<?xml version="1.0" encoding="UTF-8" standalone="no"?>
<!DOCTYPE svg  PUBLIC '-//W3C//DTD SVG 1.1//EN'  'http://www.w3.org/Graphics/SVG/1.1/DTD/svg11.dtd'>
<svg xmlns="http://www.w3.org/2000/svg">
<defs>
<font id="Tinos-Italic" horiz-adv-x="1024">
<font-face slope="-16.333" underline-position="-173" font-weight="400" descent="-410" panose-1="2 2 5 3 5 4 5 9 3 4" units-per-em="2048" unicode-range="U+0020-2666" bbox="-362 -442 1978 1758" x-height="940" underline-thickness="100" font-family="Tinos" ascent="1638" font-style="italic" cap-height="1341"/>
<missing-glyph horiz-adv-x="2048"/>
<glyph glyph-name=".notdef" horiz-adv-x="2048"/>
<glyph glyph-name=".null" horiz-adv-x="0"/>
<glyph glyph-name="nonmarkingreturn" horiz-adv-x="2048"/>
<glyph glyph-name="space" horiz-adv-x="512" unicode=" "/>
<glyph glyph-name="space" horiz-adv-x="512" unicode=" "/>
<glyph glyph-name="exclam" horiz-adv-x="682" unicode="!" d="M374 1341h218l-229 -952h-94zM400 92q0 -49 -34.5 -85t-86.5 -36t-86.5 36t-34.5 85q0 51 35 86t86 35t86 -35t35 -86z"/>
<glyph glyph-name="quotedbl" horiz-adv-x="860" unicode='&quot;' d="M285 1341h197l-147 -481h-74zM670 1341h197l-147 -481h-74z"/>
<glyph glyph-name="numbersign" d="M331 524h309l111 307h-309zM984 524l-18 -103h-260l-153 -421h-104l153 421h-310l-152 -421h-105l153 421h-171l17 103h192l112 307h-250l18 103h268l148 407h104l-147 -407h309l148 407h104l-148 -407h164l-18 -103h-182l-111 -307h239z" unicode="#"/>
<glyph glyph-name="dollar" d="M375 1025q0 -61 37.5 -108.5t125.5 -93.5l79 447q-116 -9 -179 -72.5t-63 -172.5zM762 379q0 49 -18 86.5t-53.5 68t-108.5 67.5l-95 -535q135 17 205 97.5t70 215.5zM76 371h65l1 -191q37 -53 108 -85t154 -34l102 577q-134 67 -188.5 113t-86 103.5t-31.5 135.5 q0 173 110 266t322 99l23 128h82l-23 -128q143 -3 277 -37l-49 -279h-65l-5 171q-62 50 -173 60l-85 -483q145 -78 201.5 -127t90.5 -109t34 -137q0 -195 -117.5 -306.5t-350.5 -125.5l-24 -138h-82l24 136q-225 4 -366 93z" unicode="$"/>
<glyph glyph-name="percent" horiz-adv-x="1706" unicode="%" d="M1437 473q0 81 -31.5 123.5t-104.5 42.5q-78 0 -127 -53t-77 -174.5t-28 -206.5q0 -76 29 -117t99 -41q77 0 129 53.5t81.5 167t29.5 205.5zM1184 -27q-267 0 -267 261q0 46 11 112q65 367 392 367q269 0 269 -260q0 -126 -48.5 -244t-136 -177t-220.5 -59zM635 1124 q0 80 -31 122t-104 42q-78 0 -127 -53.5t-77.5 -173.5t-28.5 -207q0 -76 29 -117t99 -41q77 0 129 53.5t81.5 167t29.5 207.5zM383 623q-266 0 -266 262q0 128 47.5 244.5t135 174.5t219.5 58q270 0 270 -259q0 -47 -11 -108q-67 -372 -395 -372zM318 -20h-110l1192 1382 h111z"/>
<glyph glyph-name="ampersand" horiz-adv-x="1593" unicode="&amp;" d="M561 1071q0 -63 30.5 -122.5t81.5 -125.5q130 49 179 82t75 77.5t26 107.5q0 92 -50 142t-135 50q-105 0 -156 -57t-51 -154zM538 687q-134 -57 -193.5 -141.5t-59.5 -202.5q0 -129 74.5 -203t208.5 -74q100 0 194.5 39.5t173.5 113.5zM1120 1102q0 -80 -38.5 -137 t-106 -99.5t-248.5 -107.5l344 -402q147 198 185 371l-137 27l9 53h457l-9 -53l-144 -27q-121 -273 -290 -455l168 -194l162 -24l-10 -54h-344l-113 137q-117 -87 -223 -122t-234 -35q-221 0 -341 93t-120 267q0 92 39.5 167.5t122.5 134t240 114.5q-62 89 -85 152t-23 129 q0 147 103 236t284 89q110 0 188.5 -32.5t121 -92t42.5 -135.5z"/>
<glyph glyph-name="quotesingle" horiz-adv-x="438" unicode="&apos;" d="M269 1341h197l-147 -481h-74z"/>
<glyph glyph-name="parenleft" horiz-adv-x="682" unicode="(" d="M251 131q0 -339 224 -483l-15 -84q-207 121 -297.5 275t-90.5 374q0 176 45.5 379.5t128 353.5t209.5 262.5t332 212.5l-15 -84q-133 -70 -223 -176.5t-149 -249.5t-104 -389t-45 -391z"/>
<glyph glyph-name="parenright" horiz-adv-x="682" unicode=")" d="M-97 -436l15 84q131 69 219.5 174t146.5 242t106 382t48 408q0 174 -55.5 292.5t-168.5 190.5l15 84q212 -126 301 -278t89 -371q0 -167 -45.5 -372t-128.5 -357.5t-211 -266t-331 -212.5z"/>
<glyph glyph-name="asterisk" d="M197 1065l64 143l315 -194l-43 327h156l-47 -327l317 190l64 -141l-332 -98l332 -97l-64 -141l-317 188l47 -325h-156l43 328l-315 -195l-64 143l328 99z" unicode="*"/>
<glyph glyph-name="plus" horiz-adv-x="1382" unicode="+" d="M760 629v-426h-103v426h-424v102h424v426h103v-426h426v-102h-426z"/>
<glyph glyph-name="comma" horiz-adv-x="512" unicode="," d="M383 42q0 -131 -83 -222.5t-232 -134.5v77q186 59 186 168q0 28 -19.5 42t-43 28.5t-43 36t-19.5 63.5q0 54 34 82.5t87 28.5q61 0 97 -45t36 -124z"/>
<glyph glyph-name="hyphen" horiz-adv-x="682" unicode="-" d="M76 406v153h532v-153h-532z"/>
<glyph glyph-name="hyphen" horiz-adv-x="682" unicode="­" d="M76 406v153h532v-153h-532z"/>
<glyph glyph-name="period" horiz-adv-x="512" unicode="." d="M327 92q0 -49 -34.5 -85t-86.5 -36t-86.5 36t-34.5 85q0 51 35 86t86 35t86 -35t35 -86z"/>
<glyph glyph-name="slash" horiz-adv-x="569" unicode="/" d="M16 -20h-110l711 1370h108z"/>
<glyph glyph-name="zero" d="M823 992q0 290 -189 290q-86 0 -150 -58t-111 -174.5t-85.5 -318.5t-38.5 -386q0 -141 47.5 -213.5t134.5 -72.5q119 0 199 109t136.5 367.5t56.5 456.5zM419 -20q-340 0 -340 419q0 235 72 478.5t197.5 364t303.5 120.5q346 0 346 -411q0 -227 -72.5 -477.5t-198 -372 t-308.5 -121.5z" unicode="0"/>
<glyph glyph-name="one" d="M534 80l270 -27l-10 -53h-721l10 53l279 27l193 1094l-288 -97l10 53l430 222h52z" unicode="1"/>
<glyph glyph-name="two" d="M821 0h-820l26 147l212 155q220 155 337 266.5t173.5 234t56.5 264.5q0 107 -58 156t-170 49q-55 0 -115.5 -15.5t-101.5 -37.5l-64 -164h-66l45 258q191 43 317 43q186 0 286 -76t100 -213q0 -131 -62 -252t-188.5 -236.5t-350.5 -272.5l-212 -152h682z" unicode="2"/>
<glyph glyph-name="three" d="M357 -20q-89 0 -188 17t-172 44l37 282h66l12 -188q33 -25 108 -48.5t137 -23.5q185 0 272 77.5t87 248.5q0 242 -269 262l-115 8l14 82l145 9q141 9 208.5 82.5t67.5 218.5q0 110 -52 165.5t-163 55.5q-54 0 -112.5 -15t-102.5 -38l-64 -164h-66l45 258q102 27 165 35 t142 8q185 0 289.5 -76.5t104.5 -214.5q0 -149 -87.5 -243t-270.5 -120q144 -21 223 -98t79 -196q0 -198 -147 -313t-393 -115z" unicode="3"/>
<glyph glyph-name="four" d="M752 1180l-603 -742h465l95 541zM754 308l-55 -308h-162l55 308h-587l20 120l751 920h160l-160 -910h202l-22 -130h-202z" unicode="4"/>
<glyph glyph-name="five" d="M490 784q205 0 310.5 -85.5t105.5 -244.5q0 -228 -141.5 -351t-408.5 -123q-173 0 -324 43l38 282h66l12 -188q36 -23 100 -38.5t122 -15.5q175 0 264 93t89 289q0 255 -260 255q-108 0 -201 -24h-96l117 665h680l-27 -153h-590l-75 -428q114 24 219 24z" unicode="5"/>
<glyph glyph-name="six" d="M260 411q0 -168 56 -260t163 -92q135 0 209 115t74 315q0 109 -48.5 163.5t-151.5 54.5q-115 0 -286 -62q-16 -114 -16 -234zM477 -20q-186 0 -290 123t-104 343q0 249 81.5 458.5t230 330.5t328.5 121q137 0 291 -53l-41 -231h-66l-11 140q-89 60 -180 60 q-156 0 -269.5 -150t-161.5 -416q76 45 161.5 71t157.5 26q163 0 253.5 -81t90.5 -223q0 -152 -56 -269.5t-163 -183.5t-252 -66z" unicode="6"/>
<glyph glyph-name="seven" d="M274 1024h-66l56 317h830l-14 -77l-821 -1264h-139l797 1188h-579z" unicode="7"/>
<glyph glyph-name="eight" d="M551 754q131 0 201.5 86.5t70.5 251.5q0 97 -43.5 143.5t-135.5 46.5q-133 0 -199.5 -81.5t-66.5 -255.5q0 -93 43.5 -142t129.5 -49zM438 59q158 0 235 90t77 298q0 219 -216 219q-314 0 -314 -377q0 -230 218 -230zM1001 1092q0 -142 -70 -244.5t-188 -136.5 q86 -30 135 -99.5t49 -171.5q0 -460 -501 -460q-195 0 -289 81.5t-94 231.5q0 326 308 418q-64 28 -106.5 87.5t-42.5 150.5q0 205 116.5 309t336.5 104q346 0 346 -270z" unicode="8"/>
<glyph glyph-name="nine" d="M814 925q0 168 -56 260t-163 92q-136 0 -209.5 -106t-73.5 -295q0 -126 55.5 -186.5t153.5 -60.5q137 0 279 61q14 114 14 235zM597 1356q189 0 291.5 -121t102.5 -345q0 -255 -83 -466t-223.5 -327.5t-308.5 -116.5q-181 0 -316 54l39 221h66l11 -140q34 -20 86.5 -35.5 t109.5 -15.5q161 0 270 152t149 415q-82 -48 -167 -73t-154 -25q-160 0 -252 90t-92 248q0 145 57 256t164 170t250 59z" unicode="9"/>
<glyph glyph-name="colon" horiz-adv-x="682" unicode=":" d="M520 839q0 -49 -34.5 -85t-86.5 -36t-86.5 36t-34.5 85q0 51 35 86t86 35t86 -35t35 -86zM379 92q0 -49 -34.5 -85t-86.5 -36t-86.5 36t-34.5 85q0 51 35 86t86 35t86 -35t35 -86z"/>
<glyph glyph-name="less" horiz-adv-x="1382" unicode="&lt;" d="M232 655v50l953 469v-103l-809 -391l809 -391v-103z"/>
<glyph glyph-name="equal" horiz-adv-x="1382" unicode="=" d="M1186 936v-102h-953v102h953zM1186 526v-102h-953v102h953z"/>
<glyph glyph-name="greater" horiz-adv-x="1382" unicode="&gt;" d="M232 186v103l809 391l-809 391v103l953 -469v-50z"/>
<glyph glyph-name="question" d="M545 92q0 -49 -34.5 -85t-85.5 -36q-52 0 -86.5 36t-34.5 85q0 51 35 86t86 35q50 0 85 -34.5t35 -86.5zM502 350h-80l33 334l148 29q115 22 170.5 103t55.5 235q0 221 -199 221q-60 0 -123.5 -22t-99.5 -50l-50 -164h-66l31 254q159 66 319 66q366 0 366 -293 q0 -357 -387 -440l-59 -13z" unicode="?"/>
<glyph glyph-name="at" horiz-adv-x="1884" unicode="@" d="M1150 807l-49 4q-130 0 -217.5 -44.5t-140 -176.5t-52.5 -281t80 -149q56 0 129.5 31t134.5 83zM1469 -184q-141 -110 -284.5 -157.5t-309.5 -47.5q-225 0 -396.5 94.5t-265 266.5t-93.5 390q0 284 125.5 514t347 359t491.5 129q336 0 520.5 -161t184.5 -451 q0 -190 -97 -357.5t-262 -268.5t-344 -101q-65 0 -65 51q0 50 8 125q-87 -87 -171 -131.5t-151 -44.5q-72 0 -111.5 54.5t-39.5 145.5q0 119 30.5 232.5t86 201.5t139 149.5t163.5 84t210 22.5h36q38 0 86 -6l-114 -530q-23 -110 -23 -174q0 -37 18.5 -49.5t55.5 -12.5 q116 0 212 81.5t152 226.5t56 299q0 252 -156 392t-430 140q-233 0 -419.5 -113.5t-294 -328t-107.5 -475.5q0 -195 77.5 -347t224.5 -237.5t347 -85.5q148 0 272.5 38.5t257.5 133.5z"/>
<glyph glyph-name="A" horiz-adv-x="1251" unicode="A" d="M723 1208l-344 -651h467zM264 53l-10 -53h-366l10 53l112 27l682 1272h191l250 -1272l125 -27l-11 -53h-475l11 53l143 27l-64 387h-528l-205 -387z"/>
<glyph glyph-name="B" horiz-adv-x="1251" unicode="B" d="M19 0l10 53l133 27l209 1182l-168 26l10 53h551q442 0 442 -282q0 -141 -88.5 -233t-246.5 -113q155 -13 240 -92.5t85 -210.5q0 -215 -145.5 -315.5t-435.5 -100.5l-383 6h-213zM615 84q192 0 282 74.5t90 247.5q0 136 -88.5 197t-255.5 61h-186l-100 -574 q153 -6 258 -6zM639 754q194 0 276.5 65t82.5 228q0 104 -65 154t-214 50h-158l-88 -497h166z"/>
<glyph glyph-name="C" horiz-adv-x="1366" unicode="C" d="M699 -19q-275 0 -430 144t-155 398q0 248 103.5 438t294 292.5t435.5 102.5q211 0 438 -51l-45 -293h-65v174q-62 43 -150 66.5t-184 23.5q-181 0 -324.5 -96.5t-223 -273.5t-79.5 -403q0 -215 104.5 -327.5t297.5 -112.5q114 0 223 34t177 87l72 201h65l-61 -315 q-115 -42 -247.5 -65.5t-245.5 -23.5z"/>
<glyph glyph-name="D" horiz-adv-x="1479" unicode="D" d="M784 1341q323 0 493.5 -141.5t170.5 -407.5q0 -239 -100.5 -421t-286.5 -278.5t-432 -96.5l-481 4h-171l9 53l176 27l208 1182l-167 26l9 53h572zM1238 785q0 466 -515 466h-162l-204 -1157q160 -8 264 -8q294 0 455.5 181.5t161.5 517.5z"/>
<glyph glyph-name="E" horiz-adv-x="1251" unicode="E" d="M370 1262l-168 26l10 53h1006l-57 -321h-66l6 217q-109 14 -321 14h-219l-93 -524h362l60 160h64l-73 -412h-64l-2 162h-362l-97 -547h264q256 0 341 16l101 248h66l-82 -354h-1070l10 53l175 27z"/>
<glyph glyph-name="F" horiz-adv-x="1251" unicode="F" d="M446 602l-92 -522l219 -27l-10 -53h-574l10 53l162 27l209 1182l-168 26l10 53h1056l-57 -321h-66l6 217q-108 14 -321 14h-269l-99 -559h445l59 160h61l-72 -412h-61l-3 162h-445z"/>
<glyph glyph-name="G" horiz-adv-x="1479" unicode="G" d="M690 -18q-273 0 -425 143.5t-152 397.5q0 251 104 440t294 291t436 102q231 0 447 -60l-51 -288h-67l3 166q-127 102 -338 102q-177 0 -321 -95.5t-225 -271.5t-81 -406q0 -208 102.5 -324.5t286.5 -116.5q89 0 179 25.5t153 65.5l63 353l-167 26l9 54h495l-9 -54 l-136 -26l-75 -420q-151 -58 -273 -81t-252 -23z"/>
<glyph glyph-name="H" horiz-adv-x="1479" unicode="H" d="M-22 0l8 53l176 27l207 1182l-166 26l8 53h537l-8 -53l-179 -26l-92 -527h631l92 527l-166 26l8 53h537l-8 -53l-178 -26l-207 -1182l166 -27l-9 -53h-536l8 53l178 27l99 565h-631l-99 -565l166 -27l-8 -53h-534z"/>
<glyph glyph-name="I" horiz-adv-x="682" unicode="I" d="M369 80l166 -27l-8 -53h-535l8 53l176 27l207 1182l-166 26l8 53h537l-8 -53l-178 -26z"/>
<glyph glyph-name="J" horiz-adv-x="909" unicode="J" d="M631 1262l-167 26l9 53h516l-9 -53l-157 -26l-146 -830q-80 -452 -410 -452q-69 0 -132 13.5t-104 32.5l42 232h65l5 -139q13 -22 54.5 -37.5t83.5 -15.5q140 0 173 190z"/>
<glyph glyph-name="K" horiz-adv-x="1366" unicode="K" d="M1454 1341l-10 -53l-156 -26l-556 -455l447 -727l134 -27l-10 -53h-307l-411 686l-143 -117l-88 -489l188 -27l-10 -53h-556l10 53l175 27l209 1182l-168 26l10 53h537l-10 -53l-176 -26l-98 -558l678 558l-119 26l10 53h420z"/>
<glyph glyph-name="L" horiz-adv-x="1139" unicode="L" d="M355 86h214q190 0 297 20l111 279h65l-86 -385h-980l10 53l175 27l209 1182l-168 26l10 53h572l-10 -53l-211 -26z"/>
<glyph glyph-name="M" horiz-adv-x="1706" unicode="M" d="M721 0h-35l-231 1153l-189 -1073l176 -27l-10 -53h-456l10 53l175 27l209 1182l-168 26l10 53h382l206 -1023l598 1023h402l-10 -53l-176 -26l-209 -1182l168 -27l-10 -53h-544l10 53l184 27l189 1073z"/>
<glyph glyph-name="N" horiz-adv-x="1366" unicode="N" d="M1170 1262l-176 26l10 53h457l-10 -53l-176 -26l-223 -1262h-97l-481 1206l-199 -1126l176 -27l-10 -53h-456l10 53l175 27l209 1182l-168 26l10 53h388l399 -1005z"/>
<glyph glyph-name="O" horiz-adv-x="1479" unicode="O" d="M663 -20q-161 0 -289.5 67.5t-199.5 190.5t-71 276q0 241 100 436.5t273 300.5t395 105q161 0 289.5 -67.5t199.5 -190t71 -276.5q0 -237 -100.5 -436t-273 -302.5t-394.5 -103.5zM1231 832q0 200 -102.5 322t-270.5 122q-149 0 -273.5 -101.5t-203 -290.5t-78.5 -381 q0 -198 100.5 -318t266.5 -120q149 0 275.5 100.5t206 289.5t79.5 377z"/>
<glyph glyph-name="P" horiz-adv-x="1251" unicode="P" d="M433 526l-79 -446l219 -27l-10 -53h-574l10 53l162 27l209 1182l-168 26l10 53h537q216 0 333 -89.5t117 -265.5q0 -224 -146.5 -342t-418.5 -118h-201zM612 616q388 0 388 357q0 143 -72.5 210.5t-218.5 67.5h-148l-112 -635h163z"/>
<glyph glyph-name="Q" horiz-adv-x="1479" unicode="Q" d="M1241 832q0 200 -102.5 322t-270.5 122q-149 0 -273.5 -101.5t-203 -290.5t-78.5 -381q0 -198 100.5 -318t266.5 -120q149 0 275.5 100.5t206 289.5t79.5 377zM113 514q0 241 100 436.5t273 300.5t395 105q161 0 289.5 -67.5t199.5 -190t71 -276.5q0 -198 -71 -373 t-199 -290t-299 -156q85 -125 123 -163t78.5 -55.5t90.5 -17.5l83 4l-12 -66q-25 -10 -90.5 -23.5t-112.5 -13.5q-102 0 -171 52.5t-166 211.5l-30 48q-160 1 -286.5 69.5t-196 190t-69.5 274.5z"/>
<glyph glyph-name="R" horiz-adv-x="1251" unicode="R" d="M616 678q182 0 280.5 86.5t98.5 245.5q0 241 -286 241h-148l-101 -573h156zM444 588l-90 -508l179 -27l-10 -53h-534l10 53l162 27l209 1182l-168 26l10 53h532q219 0 334 -83t115 -242q0 -316 -350 -400l227 -536l147 -27l-10 -53h-308l-246 588h-209z"/>
<glyph glyph-name="S" d="M76 371h65l1 -191q33 -50 112.5 -84.5t168.5 -34.5q164 0 252.5 77.5t88.5 216.5q0 54 -24 94t-64 72t-90.5 59t-103.5 54.5t-103.5 59t-90.5 73t-64 95.5t-24 127q0 178 121 272.5t346 94.5q172 0 324 -38l-49 -279h-65l-5 171q-32 26 -89 44t-131 18q-133 0 -205 -65 t-72 -182q0 -63 45 -115t134 -97q136 -71 196 -108t100.5 -79t65 -96t24.5 -124q0 -206 -134.5 -316t-388.5 -110q-126 0 -226.5 25.5t-166.5 67.5z" unicode="S"/>
<glyph glyph-name="T" horiz-adv-x="1139" unicode="T" d="M176 0l10 53l217 27l207 1175h-51q-199 0 -294 -20l-64 -209h-67l56 315h1070l-56 -315h-68l10 209q-90 18 -294 18h-49l-207 -1173l209 -27l-10 -53h-619z"/>
<glyph glyph-name="U" horiz-adv-x="1479" unicode="U" d="M1299 1262l-175 26l9 53h457l-9 -53l-177 -26l-141 -801q-40 -229 -194 -355t-390 -126q-233 0 -355 94.5t-122 273.5q0 55 10 105l143 809l-167 26l9 53h536l-9 -53l-177 -26l-141 -805q-10 -54 -10 -102q0 -263 300 -263q191 0 311.5 95t149.5 266z"/>
<glyph glyph-name="V" horiz-adv-x="1251" unicode="V" d="M1448 1341l-10 -53l-131 -26l-727 -1293h-51l-295 1293l-127 26l10 53h493l-10 -53l-169 -26l218 -979l537 979l-152 26l11 53h403z"/>
<glyph glyph-name="W" horiz-adv-x="1706" unicode="W" d="M1135 -31h-63l-146 898l-418 -898h-65l-195 1293l-113 26l9 53h467l-9 -53l-161 -26l140 -936l426 921h46l151 -923l419 938l-165 26l9 53h394l-9 -53l-121 -26z"/>
<glyph glyph-name="X" horiz-adv-x="1251" unicode="X" d="M751 753l239 -673l148 -27l-10 -53h-513l10 53l164 27l-175 507l-397 -507l162 -27l-10 -53h-437l10 53l151 27l480 606l-204 576l-147 26l10 53h493l-10 -53l-144 -26l140 -409l319 409l-132 26l10 53h409l-10 -53l-152 -26z"/>
<glyph glyph-name="Y" horiz-adv-x="1139" unicode="Y" d="M609 80l209 -27l-10 -53h-619l10 53l217 27l78 442l-230 740l-147 26l10 53h547l-10 -53l-194 -26l188 -627l393 627l-176 26l10 53h436l-10 -53l-151 -26l-472 -734z"/>
<glyph glyph-name="Z" horiz-adv-x="1139" unicode="Z" d="M907 1255h-200q-248 0 -343 -20l-68 -211h-69l56 317h873l-16 -86l-873 -1171h240q119 0 242.5 11.5t167.5 21.5l104 256h70l-93 -373h-973l17 94z"/>
<glyph glyph-name="bracketleft" horiz-adv-x="797" unicode="[" d="M118 -274l299 1695h456l-8 -47l-305 -41l-268 -1519l290 -41l-8 -47h-456z"/>
<glyph glyph-name="backslash" horiz-adv-x="569" unicode="\" d="M158 1350h98l214 -1370h-101z"/>
<glyph glyph-name="bracketright" horiz-adv-x="797" unicode="]" d="M-49 -274l8 47l303 41l268 1519l-289 41l8 47h456l-299 -1695h-455z"/>
<glyph glyph-name="asciicircum" horiz-adv-x="864" unicode="^" d="M500 1341h49l428 -952h-103l-350 809l-350 -809h-102z"/>
<glyph glyph-name="underscore" d="M-16 -264v102h1056v-102h-1056z" unicode="_"/>
<glyph glyph-name="grave" horiz-adv-x="682" unicode="`" d="M610 1118l-307 268l6 37h203l158 -272l-5 -33h-55z"/>
<glyph glyph-name="a" d="M760 837q-39 27 -73 37.5t-84 10.5q-100 0 -183.5 -75.5t-131.5 -203.5t-48 -267q0 -107 44 -171t120 -64q113 0 247 139zM789 70l113 -25l-8 -45h-285l29 156q-169 -177 -309 -177q-121 0 -194.5 89t-73.5 245q0 175 76.5 327.5t204.5 238t278 85.5q121 0 228 -42l45 34 h54z" unicode="a"/>
<glyph glyph-name="b" d="M248 107q58 -48 161 -48q102 0 188.5 75.5t136 203t49.5 267.5q0 112 -46.5 173.5t-124.5 61.5q-59 0 -127.5 -39t-130.5 -100zM305 1352l-133 24l8 45h300l-74 -441q-17 -114 -39 -193q80 82 164.5 130t155.5 48q125 0 200 -89.5t75 -244.5q0 -172 -74.5 -324.5 t-205.5 -239.5t-286 -87q-88 0 -172.5 22.5t-147.5 61.5z" unicode="b"/>
<glyph glyph-name="c" horiz-adv-x="909" unicode="c" d="M774 142q-81 -75 -182 -118.5t-192 -43.5q-161 0 -249 93t-88 257q0 174 70 317.5t199.5 230.5t271.5 87q71 0 151 -15t132 -37l-45 -262h-55l-16 174q-63 63 -168 63q-96 0 -179.5 -71t-133.5 -198t-50 -279q0 -256 206 -256q143 0 298 100z"/>
<glyph glyph-name="d" d="M760 837q-35 23 -72 36t-90 13q-94 0 -176 -74t-132 -204t-50 -269q0 -107 44 -171t119 -64q56 0 121.5 36.5t126.5 102.5zM783 941q4 48 68 411l-154 24l8 45h324l-240 -1351l113 -25l-8 -45h-285l29 156q-169 -177 -309 -177q-123 0 -195 92.5t-72 245.5 q0 171 73.5 321.5t201.5 238t281 87.5q94 0 165 -23z" unicode="d"/>
<glyph glyph-name="e" horiz-adv-x="909" unicode="e" d="M252 476q198 15 317 93t119 191q0 56 -30.5 92t-88.5 36q-70 0 -136 -57t-114 -153t-67 -202zM863 760q0 -136 -168 -232t-451 -115l-4 -73q0 -127 53.5 -191.5t158.5 -64.5q90 0 166 30.5t142 69.5l29 -42q-92 -78 -194.5 -120t-194.5 -42q-162 0 -249.5 90.5 t-87.5 259.5q0 167 70.5 311.5t195.5 234t262 89.5q123 0 197.5 -56.5t74.5 -148.5z"/>
<glyph glyph-name="f" horiz-adv-x="569" unicode="f" d="M189 -436h-166l225 1292h-162l8 49l170 39l12 66q40 223 134.5 327.5t255.5 104.5q77 0 139 -19l-35 -196h-49l-19 114q-29 21 -84 21q-61 0 -96 -52.5t-65 -213.5l-29 -156h209l-14 -84h-209z"/>
<glyph glyph-name="g" d="M662 160q-72 -79 -160.5 -130t-159.5 -51q-127 0 -200 89.5t-73 244.5q0 175 76.5 325.5t207 238t283.5 87.5q60 0 156.5 -11.5t171.5 -29.5l-168 -958q-37 -211 -144.5 -306t-317.5 -95q-88 0 -182 20.5t-151 50.5l18 228h45l36 -126q81 -79 233 -79q122 0 194 63.5 t96 203.5zM418 104q56 0 124.5 37t133.5 102l110 618q-24 6 -43 11t-37.5 8t-39.5 4.5t-48 1.5q-100 0 -186 -75t-135 -202t-49 -270q0 -108 44.5 -171.5t125.5 -63.5z" unicode="g"/>
<glyph glyph-name="h" d="M311 1352l-118 24l8 45h288l-106 -596l-16 -76q80 105 171.5 160.5t179.5 55.5q101 0 152 -54.5t51 -156.5q0 -14 -4 -43t-109 -642l131 -24l-8 -45h-301l102 582q23 127 23 166q0 45 -24 73t-76 28q-75 0 -162 -62.5t-143 -153.5l-111 -633h-165z" unicode="h"/>
<glyph glyph-name="i" horiz-adv-x="569" unicode="i" d="M507 1247q0 -44 -32 -76t-77 -32q-44 0 -76 32t-32 76q0 45 32 77t76 32q45 0 77 -32t32 -77zM292 70l157 -25l-8 -45h-327l153 870l-129 25l8 45h299z"/>
<glyph glyph-name="j" horiz-adv-x="569" unicode="j" d="M519 1247q0 -44 -32 -76t-77 -32q-44 0 -76 32t-32 76q0 45 32 77t76 32q45 0 77 -32t32 -77zM-59 -436q-81 0 -160 30l33 187h47l15 -110q27 -27 71 -27q65 0 102.5 64t61.5 202l170 960l-137 25l8 45h307l-174 -979q-36 -202 -120.5 -299.5t-223.5 -97.5z"/>
<glyph glyph-name="k" horiz-adv-x="909" unicode="k" d="M299 1352l-135 24l8 45h305l-172 -968l428 415l-94 27l8 45h292l-8 -45l-81 -23l-294 -281l243 -523l98 -23l-8 -45h-236l-218 479l-148 -139l-62 -340h-166z"/>
<glyph glyph-name="l" horiz-adv-x="569" unicode="l" d="M287 70l157 -25l-8 -45h-327l237 1352l-129 24l8 45h299z"/>
<glyph glyph-name="m" horiz-adv-x="1479" unicode="m" d="M873 746q68 97 154 158t165 61q84 0 132.5 -53.5t48.5 -154.5q0 -22 -4.5 -57.5t-106.5 -629.5l131 -25l-9 -45h-301l103 582q23 121 23 166t-21 72.5t-66 27.5q-44 0 -105 -42t-110.5 -107.5t-59.5 -122.5l-99 -576h-166l102 582q25 131 25 166q0 45 -22 72.5t-69 27.5 q-44 0 -108 -44.5t-113 -108t-58 -119.5l-99 -576h-166l153 870l-118 25l8 45h278l-28 -194q70 99 157 159t164 60q88 0 136.5 -55.5t48.5 -163.5z"/>
<glyph glyph-name="n" d="M755 748q0 45 -24 73t-76 28q-74 0 -161.5 -63t-144.5 -156l-110 -630h-166l153 871l-118 25l8 45h278l-27 -192q84 108 174 162t177 54q101 0 152 -54.5t51 -156.5q0 -14 -4 -43t-109 -642l131 -24l-8 -45h-301l102 582q23 127 23 166z" unicode="n"/>
<glyph glyph-name="o" d="M427 -20q-166 0 -266 106.5t-100 287.5q0 161 69 298t191.5 215t275.5 78q166 0 266 -106.5t100 -287.5q0 -161 -69 -298t-191.5 -215t-275.5 -78zM237 340q0 -135 52.5 -206.5t146.5 -71.5q91 0 173.5 73t130.5 199.5t48 271.5q0 138 -52.5 209.5t-150.5 71.5 q-91 0 -172.5 -73t-128.5 -199.5t-47 -274.5z" unicode="o"/>
<glyph glyph-name="p" d="M257 107q62 -48 168 -48q99 0 179.5 73t129.5 204.5t49 268.5q0 111 -44.5 173t-119.5 62q-53 0 -125 -39t-128 -100zM233 2l-11 -90l-48 -277l160 -24l-8 -47h-446l8 47l121 24l219 1235l-103 25l8 45h265l-19 -152q175 177 315 177q121 0 194.5 -89t73.5 -245 q0 -176 -75 -327.5t-204 -237.5t-280 -86q-46 0 -95.5 6.5t-74.5 15.5z" unicode="p"/>
<glyph glyph-name="q" d="M671 107q-77 -58 -162 -92.5t-159 -34.5q-137 0 -209.5 85t-72.5 253q0 183 72 332.5t202.5 232t295.5 82.5q70 0 172.5 -13.5t165.5 -28.5l-233 -1288l121 -24l-8 -47h-291l69 381q16 87 37 162zM419 107q72 0 141.5 20t116.5 51l121 683q-102 27 -204 27 q-99 0 -179.5 -72.5t-126 -200t-45.5 -272.5q0 -116 45.5 -176t130.5 -60z" unicode="q"/>
<glyph glyph-name="r" horiz-adv-x="797" unicode="r" d="M724 965q50 0 79 -8l-44 -246h-43l-38 127q-80 0 -165.5 -61t-156.5 -161l-107 -616h-166l153 870l-118 25l8 45h277l-31 -212q75 113 167.5 175t184.5 62z"/>
<glyph glyph-name="s" horiz-adv-x="797" unicode="s" d="M692 276q0 -151 -96 -223.5t-291 -72.5q-138 0 -280 62l41 226h45l17 -137q26 -28 73.5 -50t107.5 -22q219 0 219 179q0 59 -46.5 105t-151.5 97q-101 49 -150 108.5t-49 139.5q0 132 89 204.5t247 72.5q113 0 268 -35l-37 -209h-47l-14 108q-63 56 -166 56 q-82 0 -131 -37.5t-49 -116.5q0 -54 42 -95t159 -101q104 -54 152 -116t48 -143z"/>
<glyph glyph-name="t" horiz-adv-x="569" unicode="t" d="M264 174q0 -45 22.5 -67.5t57.5 -22.5q73 0 152 30l21 -47q-123 -87 -249 -87q-79 0 -124.5 48t-45.5 134q0 29 5.5 68.5t109.5 625.5h-123l8 45l133 39l137 213h64l-37 -213h215l-16 -84h-215l-97 -549q-18 -92 -18 -133z"/>
<glyph glyph-name="u" d="M268 193q0 -45 24 -73t76 -28q75 0 162 62.5t143 153.5l111 632h166l-153 -870l118 -25l-8 -45h-278l27 193q-83 -107 -173 -162t-178 -55q-101 0 -152 54.5t-51 156.5q0 15 5.5 53.5t107.5 630.5l-111 24l8 45h281l-102 -581q-23 -126 -23 -166z" unicode="u"/>
<glyph glyph-name="v" horiz-adv-x="909" unicode="v" d="M751 807q0 37 -21 59t-45 29l8 45h190q26 -23 26 -63q0 -88 -83 -220l-423 -677h-73l-189 890l-113 25l9 45h256l145 -732l249 406q64 104 64 193z"/>
<glyph glyph-name="w" horiz-adv-x="1366" unicode="w" d="M900 -20h-66l-124 619l-318 -619h-70l-171 890l-102 25l8 45h245l131 -707l309 601h75l122 -605l197 389q57 114 57 189q0 37 -21 59t-45 29l8 45h190q26 -23 26 -63q0 -68 -83 -220z"/>
<glyph glyph-name="x" horiz-adv-x="909" unicode="x" d="M142 84q0 -28 42 -39l-8 -45h-185q-16 13 -16 43q0 28 31.5 69t105.5 109l273 254l-172 395l-107 25l8 45h248l145 -358l124 118q64 61 90 96t26 60q0 10 -9 17.5t-50 21.5l8 45h177q21 -16 21 -43q0 -59 -138 -190l-214 -201l192 -440l116 -21l-8 -45h-256l-167 400 l-171 -164q-55 -53 -80.5 -87.5t-25.5 -64.5z"/>
<glyph glyph-name="y" horiz-adv-x="909" unicode="y" d="M52 940h256l145 -732l235 406q64 112 64 193q0 37 -21 59t-45 29l8 45h190q26 -23 26 -63q0 -79 -83 -220l-396 -667q-114 -194 -180.5 -275t-131.5 -119t-141 -38q-81 0 -149 18l37 203h45l16 -96q25 -23 82 -23q135 0 285 270l45 82l-183 858l-112 25z"/>
<glyph glyph-name="z" horiz-adv-x="797" unicode="z" d="M-23 0l9 45l564 815h-149q-56 0 -109 -9.5t-77 -25.5l-55 -135h-47l45 250h612l-8 -49l-562 -811h197q56 0 109 12.5t88 34.5l76 147h47l-72 -274h-668z"/>
<glyph glyph-name="braceleft" horiz-adv-x="819" unicode="{" d="M367 -274q-109 0 -163 56.5t-54 156.5q0 35 8 81l52 295q7 35 7 71q0 81 -43 121.5t-137 45.5l8 45q215 4 256 236l52 294q25 141 103.5 217t209.5 76h135l-8 -47h-62q-91 0 -139 -54.5t-67 -160.5l-59 -330q-17 -94 -81 -163t-155 -88v-3q70 -17 111 -68t41 -129 q0 -31 -5 -56l-59 -334q-8 -42 -8 -77q0 -138 138 -138h62l-8 -47h-135z"/>
<glyph glyph-name="bar" horiz-adv-x="563" unicode="|" d="M267 -442v1863h102v-1863h-102z"/>
<glyph glyph-name="braceright" horiz-adv-x="819" unicode="}" d="M36 -274l8 47h62q91 0 139 54.5t67 160.5l59 334q17 96 80 164t157 89v3q-69 16 -110.5 68t-41.5 131l4 52l59 330q8 44 8 77q0 69 -32.5 103.5t-105.5 34.5h-62l8 47h136q216 0 216 -209q0 -38 -8 -84l-52 -294q-6 -38 -6 -69q0 -87 47 -125.5t133 -41.5l-8 -45 q-112 -4 -175 -64t-82 -174l-52 -295q-25 -139 -105.5 -216.5t-206.5 -77.5h-136z"/>
<glyph glyph-name="asciitilde" horiz-adv-x="1108" unicode="~" d="M807 502q-106 0 -245 121q-74 63 -122.5 91.5t-86.5 28.5q-77 0 -116 -54.5t-52 -186.5h-101q18 187 84.5 265.5t184.5 78.5q56 0 115.5 -29t134.5 -92q86 -72 127.5 -96.5t76.5 -24.5q69 0 108 52.5t58 189.5h103q-17 -130 -49 -199t-85 -107t-135 -38z"/>
<glyph glyph-name="exclamdown" horiz-adv-x="797" unicode="¡" d="M354 -409h-218l229 952h94zM328 840q0 49 34.5 85t86.5 36t86.5 -36t34.5 -85q0 -51 -35 -86t-86 -35t-86 35t-35 86z"/>
<glyph glyph-name="cent" d="M330 545q0 -224 160 -252l139 791q-131 -36 -215 -186.5t-84 -352.5zM864 347q-69 -62 -150 -103.5t-160 -53.5l-33 -190h-82l32 185q-152 6 -235 99t-83 251q0 168 65.5 306.5t179.5 224t246 101.5l31 174h82l-30 -172q143 -8 250 -51l-45 -262h-55l-16 174 q-56 56 -148 62l-141 -802q127 10 262 99z" unicode="¢"/>
<glyph glyph-name="sterling" d="M891 154l-27 -154h-838l20 117l92 71q91 68 136.5 139.5t45.5 149.5q0 54 -24 152h-162l15 82h127q-25 95 -25 183q0 222 126.5 342t362.5 120q138 0 285 -43l-45 -278h-65l-7 187q-32 21 -82.5 35.5t-100.5 14.5q-146 0 -224.5 -109.5t-78.5 -311.5l4 -140h278l-15 -82 h-262q-3 -104 -14 -170q-14 -87 -63.5 -159t-148.5 -146h690z" unicode="£"/>
<glyph glyph-name="currency" d="M228 676q0 -77 39.5 -145t107.5 -108t146 -40q120 0 207.5 86t87.5 207t-87 208t-208 87q-77 0 -144.5 -39t-108 -108t-40.5 -148zM132 676q0 134 80 237l-107 107l74 74l104 -109q108 82 238 82t238 -82l108 109l72 -72l-109 -109q82 -110 82 -237q0 -130 -82 -238 l109 -106l-72 -72l-108 107q-103 -80 -238 -80q-133 0 -238 80l-106 -107l-72 72l107 106q-80 105 -80 238z" unicode="¤"/>
<glyph glyph-name="yen" d="M860 393l-15 -82h-279l-40 -231l167 -27l-9 -53h-536l9 53l177 27l40 231h-279l15 82h279l23 129l-6 35h-267l14 82h230l-153 623l-95 26l9 53h430l-9 -53l-136 -26l137 -628l361 628l-118 26l9 53h346l-9 -53l-109 -26l-375 -623h232l-14 -82h-267l-17 -29l-24 -135h279 z" unicode="¥"/>
<glyph glyph-name="brokenbar" horiz-adv-x="563" unicode="¦" d="M267 -442v622h102v-622h-102zM267 801v620h102v-620h-102z"/>
<glyph glyph-name="section" d="M757 604q0 54 -35 97t-123 89q-116 -6 -186 -60.5t-70 -143.5q0 -64 40.5 -106.5t109.5 -75.5q137 5 200.5 55.5t63.5 144.5zM784 69q0 -325 -412 -325q-77 0 -164 15t-142 39l41 230h45l19 -137q30 -30 90 -51t122 -21q118 0 178.5 52.5t60.5 147.5q0 64 -50.5 117.5 t-167.5 119.5q-112 63 -165.5 131.5t-53.5 154.5q0 122 79 201.5t232 101.5q-95 52 -135.5 111.5t-40.5 133.5q0 140 89 219.5t254 79.5q116 0 273 -35l-36 -209h-45l-14 108q-65 56 -174 56q-87 0 -138 -40.5t-51 -125.5q0 -40 20 -70.5t55.5 -57t145.5 -83.5 q91 -48 132.5 -86.5t64.5 -86t23 -105.5q0 -129 -84 -211t-238 -103q101 -63 144 -128t43 -143z" unicode="§"/>
<glyph glyph-name="dieresis" horiz-adv-x="682" unicode="¨" d="M404 1231q0 -42 -28 -71.5t-70 -29.5q-41 0 -71 30t-30 71q0 42 31 71t70 29q42 0 70 -29t28 -71zM760 1231q0 -42 -28 -71.5t-70 -29.5t-71 31t-29 70q0 42 29 71t71 29t70 -29t28 -71z"/>
<glyph glyph-name="copyright" horiz-adv-x="1556" unicode="©" d="M825 258q-195 0 -305.5 106.5t-110.5 299.5q0 209 105.5 315t312.5 106q115 0 268 -30l4 -187h-49l-19 105q-82 51 -200 51q-147 0 -211 -85t-64 -273q0 -349 269 -349q141 0 215 60l22 119h49l-4 -199q-124 -39 -282 -39zM188 670q0 -167 83.5 -311.5t227 -227 t309.5 -82.5q167 0 311 82.5t228 226.5t84 312t-85 313t-228 227t-310 82t-311 -83.5t-226.5 -228t-82.5 -310.5zM118 670q0 189 93.5 349.5t252 251.5t344.5 91q187 0 347 -92t252.5 -251.5t92.5 -348.5q0 -185 -90.5 -343.5t-251 -252.5t-350.5 -94q-186 0 -346 92 t-252 252t-92 346z"/>
<glyph glyph-name="ordfeminine" horiz-adv-x="565" unicode="ª" d="M508 1278q-44 27 -98 27q-85 0 -138.5 -89t-53.5 -224q0 -139 90 -139q61 0 132 42zM549 836l86 -15l-9 -39h-200l12 74q-84 -89 -188 -89q-70 0 -114 59.5t-44 156.5q0 107 43.5 193.5t124.5 136t186 49.5q65 0 132 -26l6 3l32 18h30z"/>
<glyph glyph-name="guillemotleft" d="M949 852h61l-321 -395l184 -383h-61l-292 356l11 66zM539 852h61l-320 -395l183 -383h-61l-291 356l11 66z" unicode="«"/>
<glyph glyph-name="logicalnot" horiz-adv-x="1382" unicode="¬" d="M1178 731v-528h-103v426h-850v102h953z"/>
<glyph glyph-name="registered" horiz-adv-x="1556" unicode="®" d="M962 858q0 89 -43 125.5t-158 36.5h-63v-332h67q106 0 151.5 37t45.5 133zM698 625v-289l114 -17v-43h-346v43l96 17v688l-104 16v41h330q156 0 235.5 -57.5t79.5 -163.5q0 -77 -45 -133t-133 -84l213 -307l84 -17v-43h-205l-229 349h-90zM188 670q0 -167 83.5 -311.5 t227 -227t309.5 -82.5q167 0 311 82.5t228 226.5t84 312t-85 313t-228 227t-310 82t-311 -83.5t-226.5 -228t-82.5 -310.5zM118 670q0 189 93.5 349.5t252 251.5t344.5 91q187 0 347 -92t252.5 -251.5t92.5 -348.5q0 -185 -90.5 -343.5t-251 -252.5t-350.5 -94 q-186 0 -346 92t-252 252t-92 346z"/>
<glyph glyph-name="uni00AF" d="M1205 1452h-1059v94h1059v-94z" unicode="¯"/>
<glyph glyph-name="degree" horiz-adv-x="819" unicode="°" d="M266 1051q0 -89 61.5 -149.5t146.5 -60.5q88 0 148.5 61t60.5 149q0 89 -60.5 150t-148.5 61q-85 0 -146.5 -60.5t-61.5 -150.5zM164 1051q0 83 41 155t113.5 114t155.5 42t155 -41.5t114 -113.5t42 -156t-42.5 -156.5t-114.5 -113t-154 -40.5q-130 0 -220 90t-90 220z "/>
<glyph glyph-name="plusminus" horiz-adv-x="1124" unicode="±" d="M1048 102v-102h-953v102h953zM622 629v-426h-103v426h-424v102h424v426h103v-426h426v-102h-426z"/>
<glyph glyph-name="uni00B2" horiz-adv-x="614" unicode="²" d="M547 535h-498l15 96q210 153 285 227t112 147.5t37 155.5q0 52 -28 86.5t-83 34.5q-62 0 -120 -33l-38 -98h-55l31 172q113 27 194 27q116 0 179 -51t63 -138q0 -97 -68.5 -189.5t-220.5 -201.5l-173 -127h387z"/>
<glyph glyph-name="uni00B3" horiz-adv-x="614" unicode="³" d="M259 522q-112 0 -218 27l26 186h55l7 -112q20 -13 56.5 -23t73.5 -10q103 0 154.5 47t51.5 147q0 123 -139 134l-85 6l12 65l87 4q72 3 115.5 46t43.5 135q0 108 -122 108q-65 0 -119 -29l-38 -102h-55l31 172q106 27 192 27q115 0 183.5 -47t68.5 -127q0 -90 -57 -146.5 t-170 -73.5q95 -11 144 -54.5t49 -113.5q0 -119 -92.5 -192.5t-254.5 -73.5z"/>
<glyph glyph-name="acute" horiz-adv-x="682" unicode="´" d="M248 1118l5 33l244 272h213l-6 -37l-401 -268h-55z"/>
<glyph glyph-name="uni00B5" horiz-adv-x="1180" unicode="µ" d="M719 124q-144 -144 -258 -144q-106 0 -136 78q-49 -281 -121 -494h-177l8 45q34 71 72 203.5t60 256.5l141 801l-135 25l8 45h306l-115 -652l-4 -46q0 -69 38 -107.5t102 -38.5q48 0 112.5 33t110.5 84l131 727h163l-154 -870l133 -25l-8 -45h-278z"/>
<glyph glyph-name="paragraph" horiz-adv-x="1071" unicode="¶" d="M924 1266v-1524h-94v1524h-170v-1524h-94l2 823q-209 0 -328 105.5t-119 292.5q0 183 112 280.5t322 97.5h463v-53z"/>
<glyph glyph-name="uni00B7" horiz-adv-x="512" unicode="·" d="M407 678q0 -51 -35 -86t-86 -35t-86 35t-35 86q0 49 34.5 85t86.5 36t86.5 -36t34.5 -85z"/>
<glyph glyph-name="cedilla" horiz-adv-x="682" unicode="¸" d="M526 -212q0 -98 -71.5 -156.5t-207.5 -58.5q-72 0 -133 21l23 75q48 -16 97 -16q61 0 99 27.5t38 84.5q0 44 -34 73.5t-99 35.5l68 153h86l-33 -82q80 -8 123.5 -49t43.5 -108z"/>
<glyph glyph-name="uni00B9" horiz-adv-x="614" unicode="¹" d="M388 598l164 -14l-9 -49h-474l8 49l167 14l110 625l-171 -58l8 47l257 134h72z"/>
<glyph glyph-name="ordmasculine" horiz-adv-x="635" unicode="º" d="M340 770q-101 0 -163.5 63.5t-62.5 173.5q0 97 42.5 179.5t118.5 129t171 46.5q101 0 163.5 -63.5t62.5 -173.5q0 -151 -93.5 -253t-238.5 -102zM430 1305q-78 0 -133.5 -88t-55.5 -219q0 -81 29.5 -125t82.5 -44q80 0 135.5 89t55.5 215q0 85 -29.5 128.5t-84.5 43.5z "/>
<glyph glyph-name="guillemotright" d="M74 74h-61l322 396l-185 382h61l292 -356l-11 -66zM484 74h-61l321 396l-184 382h61l291 -356l-11 -66z" unicode="»"/>
<glyph glyph-name="onequarter" horiz-adv-x="1536" unicode="¼" d="M413 0h-102l964 1341h100zM391 598l164 -14l-9 -49h-474l8 49l167 14l110 625l-171 -58l8 47l257 134h72zM1270 642h-2l-344 -379h279zM1326 160l-28 -159h-142l28 159h-365l18 97l497 550h107l-96 -544h121l-19 -103h-121z"/>
<glyph glyph-name="onehalf" horiz-adv-x="1536" unicode="½" d="M358 0h-102l964 1341h100zM391 598l164 -14l-9 -49h-474l8 49l167 14l110 625l-171 -58l8 47l257 134h72zM1386 1h-498l15 96q210 153 285 227t112 147.5t37 155.5q0 52 -28 86.5t-83 34.5q-62 0 -120 -33l-38 -98h-55l31 172q113 27 194 27q116 0 179 -51t63 -138 q0 -97 -68.5 -189.5t-220.5 -201.5l-173 -127h387z"/>
<glyph glyph-name="threequarters" horiz-adv-x="1536" unicode="¾" d="M413 0h-102l964 1341h100zM337 522q-112 0 -218 27l26 186h55l7 -112q20 -13 56.5 -23t73.5 -10q103 0 154.5 47t51.5 147q0 123 -139 134l-85 6l12 65l87 4q72 3 115.5 46t43.5 135q0 108 -122 108q-65 0 -119 -29l-38 -102h-55l31 172q106 27 192 27q115 0 183.5 -47 t68.5 -127q0 -90 -57 -146.5t-170 -73.5q95 -11 144 -54.5t49 -113.5q0 -119 -92.5 -192.5t-254.5 -73.5zM1271 642h-2l-344 -379h279zM1327 160l-28 -159h-142l28 159h-365l18 97l497 550h107l-96 -544h121l-19 -103h-121z"/>
<glyph glyph-name="questiondown" d="M550 840q0 49 34.5 85t85.5 36q52 0 86.5 -36t34.5 -85q0 -51 -35 -86t-86 -35q-50 0 -85 34.5t-35 86.5zM593 582h80l-33 -334l-148 -29q-116 -23 -171 -103.5t-55 -234.5q0 -221 199 -221q59 0 120.5 21t102.5 51l50 164h66l-31 -254q-159 -66 -319 -66 q-366 0 -366 293q0 358 387 440l59 13z" unicode="¿"/>
<glyph glyph-name="Agrave" horiz-adv-x="1251" unicode="À" d="M723 1208l-344 -651h467zM264 53l-10 -53h-366l10 53l112 27l682 1272h191l250 -1272l125 -27l-11 -53h-475l11 53l143 27l-64 387h-528l-205 -387zM871 1452l-307 268l6 37h203l158 -272l-5 -33h-55z"/>
<glyph glyph-name="Aacute" horiz-adv-x="1251" unicode="Á" d="M723 1208l-344 -651h467zM264 53l-10 -53h-366l10 53l112 27l682 1272h191l250 -1272l125 -27l-11 -53h-475l11 53l143 27l-64 387h-528l-205 -387zM691 1452l5 33l244 272h213l-6 -37l-401 -268h-55z"/>
<glyph glyph-name="Acircumflex" horiz-adv-x="1251" unicode="Â" d="M723 1208l-344 -651h467zM264 53l-10 -53h-366l10 53l112 27l682 1272h191l250 -1272l125 -27l-11 -53h-475l11 53l143 27l-64 387h-528l-205 -387zM486 1452l5 33l235 273h213l139 -273l-5 -33h-47l-206 183l-270 -183h-64z"/>
<glyph glyph-name="Atilde" horiz-adv-x="1251" unicode="Ã" d="M723 1208l-344 -651h467zM264 53l-10 -53h-366l10 53l112 27l682 1272h191l250 -1272l125 -27l-11 -53h-475l11 53l143 27l-64 387h-528l-205 -387zM922 1479q-48 0 -84.5 21.5t-68 48t-61 48t-62.5 21.5q-32 0 -52.5 -11.5t-35 -31.5t-33.5 -76h-52q32 127 90.5 184.5 t147.5 57.5q48 0 85 -21.5t68.5 -48t61 -48t61.5 -21.5q42 0 70 24t51 94h52q-32 -125 -90.5 -183t-147.5 -58z"/>
<glyph glyph-name="Adieresis" horiz-adv-x="1251" unicode="Ä" d="M723 1208l-344 -651h467zM264 53l-10 -53h-366l10 53l112 27l682 1272h191l250 -1272l125 -27l-11 -53h-475l11 53l143 27l-64 387h-528l-205 -387zM740 1565q0 -42 -28 -71.5t-70 -29.5q-41 0 -71 30t-30 71q0 42 31 71t70 29q42 0 70 -29t28 -71zM1096 1565 q0 -42 -28 -71.5t-70 -29.5t-71 31t-29 70q0 42 29 71t71 29t70 -29t28 -71z"/>
<glyph glyph-name="Aring" horiz-adv-x="1251" unicode="Å" d="M913 1475q0 51 -36 87t-87 36t-87 -36t-36 -87q0 -50 34.5 -86.5t83.5 -36.5h5q48 0 85.5 35t37.5 88zM723 1208l-344 -651h467zM993 1475q0 -57 -27.5 -103t-72.5 -72l240 -1220l125 -27l-11 -53h-475l11 53l143 27l-64 387h-528l-205 -387l135 -27l-10 -53h-366l10 53 l112 27l660 1230q-38 28 -60.5 71t-22.5 94q0 84 59.5 143.5t143.5 59.5t143.5 -59.5t59.5 -143.5z"/>
<glyph glyph-name="AE" horiz-adv-x="1821" unicode="Æ" d="M452 557h363l119 674zM799 467h-412l-275 -387l153 -27l-9 -53h-402l9 53l131 27l856 1190l-160 18l9 53h1089l-57 -321h-66l6 217q-109 14 -321 14h-219l-93 -524h362l60 160h64l-73 -412h-64l-2 162h-362l-97 -547h264q256 0 341 16l101 248h66l-82 -354h-1070l10 53 l175 27z"/>
<glyph glyph-name="Ccedilla" horiz-adv-x="1366" unicode="Ç" d="M699 -19q-275 0 -430 144t-155 398q0 248 103.5 438t294 292.5t435.5 102.5q211 0 438 -51l-45 -293h-65v174q-62 43 -150 66.5t-184 23.5q-181 0 -324.5 -96.5t-223 -273.5t-79.5 -403q0 -215 104.5 -327.5t297.5 -112.5q114 0 223 34t177 87l72 201h65l-61 -315 q-115 -42 -247.5 -65.5t-245.5 -23.5zM875 -212q0 -98 -71.5 -156.5t-207.5 -58.5q-72 0 -133 21l23 75q48 -16 97 -16q61 0 99 27.5t38 84.5q0 44 -34 73.5t-99 35.5l68 153h86l-33 -82q80 -8 123.5 -49t43.5 -108z"/>
<glyph glyph-name="Egrave" horiz-adv-x="1251" unicode="È" d="M370 1262l-168 26l10 53h1006l-57 -321h-66l6 217q-109 14 -321 14h-219l-93 -524h362l60 160h64l-73 -412h-64l-2 162h-362l-97 -547h264q256 0 341 16l101 248h66l-82 -354h-1070l10 53l175 27zM863 1452l-307 268l6 37h203l158 -272l-5 -33h-55z"/>
<glyph glyph-name="Eacute" horiz-adv-x="1251" unicode="É" d="M370 1262l-168 26l10 53h1006l-57 -321h-66l6 217q-109 14 -321 14h-219l-93 -524h362l60 160h64l-73 -412h-64l-2 162h-362l-97 -547h264q256 0 341 16l101 248h66l-82 -354h-1070l10 53l175 27zM656 1452l5 33l244 272h213l-6 -37l-401 -268h-55z"/>
<glyph glyph-name="Ecircumflex" horiz-adv-x="1251" unicode="Ê" d="M370 1262l-168 26l10 53h1006l-57 -321h-66l6 217q-109 14 -321 14h-219l-93 -524h362l60 160h64l-73 -412h-64l-2 162h-362l-97 -547h264q256 0 341 16l101 248h66l-82 -354h-1070l10 53l175 27zM517 1452l5 33l235 273h213l139 -273l-5 -33h-47l-206 183l-270 -183h-64 z"/>
<glyph glyph-name="Edieresis" horiz-adv-x="1251" unicode="Ë" d="M370 1262l-168 26l10 53h1006l-57 -321h-66l6 217q-109 14 -321 14h-219l-93 -524h362l60 160h64l-73 -412h-64l-2 162h-362l-97 -547h264q256 0 341 16l101 248h66l-82 -354h-1070l10 53l175 27zM716 1596q0 -42 -28 -71.5t-70 -29.5q-41 0 -71 30t-30 71q0 42 31 71 t70 29q42 0 70 -29t28 -71zM1072 1596q0 -42 -28 -71.5t-70 -29.5t-71 31t-29 70q0 42 29 71t71 29t70 -29t28 -71z"/>
<glyph glyph-name="Igrave" horiz-adv-x="682" unicode="Ì" d="M369 80l166 -27l-8 -53h-535l8 53l176 27l207 1182l-166 26l8 53h537l-8 -53l-178 -26zM598 1452l-307 268l6 37h203l158 -272l-5 -33h-55z"/>
<glyph glyph-name="Iacute" horiz-adv-x="682" unicode="Í" d="M369 80l166 -27l-8 -53h-535l8 53l176 27l207 1182l-166 26l8 53h537l-8 -53l-178 -26zM402 1452l5 33l244 272h213l-6 -37l-401 -268h-55z"/>
<glyph glyph-name="Icircumflex" horiz-adv-x="682" unicode="Î" d="M369 80l166 -27l-8 -53h-535l8 53l176 27l207 1182l-166 26l8 53h537l-8 -53l-178 -26zM219 1452l5 33l235 273h213l139 -273l-5 -33h-47l-206 183l-270 -183h-64z"/>
<glyph glyph-name="Idieresis" horiz-adv-x="682" unicode="Ï" d="M369 80l166 -27l-8 -53h-535l8 53l176 27l207 1182l-166 26l8 53h537l-8 -53l-178 -26zM450 1596q0 -42 -28 -71.5t-70 -29.5q-41 0 -71 30t-30 71q0 42 31 71t70 29q42 0 70 -29t28 -71zM806 1596q0 -42 -28 -71.5t-70 -29.5t-71 31t-29 70q0 42 29 71t71 29t70 -29 t28 -71z"/>
<glyph glyph-name="Eth" horiz-adv-x="1479" unicode="Ð" d="M1238 785q0 466 -515 466h-162l-95 -540h375l-15 -82h-375l-94 -535q160 -8 264 -8q294 0 455.5 181.5t161.5 517.5zM784 1341q323 0 493.5 -141.5t170.5 -407.5q0 -239 -100.5 -421t-286.5 -278.5t-432 -96.5l-481 4h-171l9 53l176 27l96 549h-180l15 82h180l97 551 l-167 26l9 53h572z"/>
<glyph glyph-name="Ntilde" horiz-adv-x="1366" unicode="Ñ" d="M1170 1262l-176 26l10 53h457l-10 -53l-176 -26l-223 -1262h-97l-481 1206l-199 -1126l176 -27l-10 -53h-456l10 53l175 27l209 1182l-168 26l10 53h388l399 -1005zM1012 1479q-48 0 -84.5 21.5t-68 48t-61 48t-62.5 21.5q-32 0 -52.5 -11.5t-35 -31.5t-33.5 -76h-52 q32 127 90.5 184.5t147.5 57.5q48 0 85 -21.5t68.5 -48t61 -48t61.5 -21.5q42 0 70 24t51 94h52q-32 -125 -90.5 -183t-147.5 -58z"/>
<glyph glyph-name="Ograve" horiz-adv-x="1479" unicode="Ò" d="M663 -20q-161 0 -289.5 67.5t-199.5 190.5t-71 276q0 241 100 436.5t273 300.5t395 105q161 0 289.5 -67.5t199.5 -190t71 -276.5q0 -237 -100.5 -436t-273 -302.5t-394.5 -103.5zM1231 832q0 200 -102.5 322t-270.5 122q-149 0 -273.5 -101.5t-203 -290.5t-78.5 -381 q0 -198 100.5 -318t266.5 -120q149 0 275.5 100.5t206 289.5t79.5 377zM1040 1452l-307 268l6 37h203l158 -272l-5 -33h-55z"/>
<glyph glyph-name="Oacute" horiz-adv-x="1479" unicode="Ó" d="M663 -20q-161 0 -289.5 67.5t-199.5 190.5t-71 276q0 241 100 436.5t273 300.5t395 105q161 0 289.5 -67.5t199.5 -190t71 -276.5q0 -237 -100.5 -436t-273 -302.5t-394.5 -103.5zM1231 832q0 200 -102.5 322t-270.5 122q-149 0 -273.5 -101.5t-203 -290.5t-78.5 -381 q0 -198 100.5 -318t266.5 -120q149 0 275.5 100.5t206 289.5t79.5 377zM836 1452l5 33l244 272h213l-6 -37l-401 -268h-55z"/>
<glyph glyph-name="Ocircumflex" horiz-adv-x="1479" unicode="Ô" d="M663 -20q-161 0 -289.5 67.5t-199.5 190.5t-71 276q0 241 100 436.5t273 300.5t395 105q161 0 289.5 -67.5t199.5 -190t71 -276.5q0 -237 -100.5 -436t-273 -302.5t-394.5 -103.5zM1231 832q0 200 -102.5 322t-270.5 122q-149 0 -273.5 -101.5t-203 -290.5t-78.5 -381 q0 -198 100.5 -318t266.5 -120q149 0 275.5 100.5t206 289.5t79.5 377zM626 1452l5 33l235 273h213l139 -273l-5 -33h-47l-206 183l-270 -183h-64z"/>
<glyph glyph-name="Otilde" horiz-adv-x="1479" unicode="Õ" d="M663 -20q-161 0 -289.5 67.5t-199.5 190.5t-71 276q0 241 100 436.5t273 300.5t395 105q161 0 289.5 -67.5t199.5 -190t71 -276.5q0 -237 -100.5 -436t-273 -302.5t-394.5 -103.5zM1231 832q0 200 -102.5 322t-270.5 122q-149 0 -273.5 -101.5t-203 -290.5t-78.5 -381 q0 -198 100.5 -318t266.5 -120q149 0 275.5 100.5t206 289.5t79.5 377zM1043 1479q-48 0 -84.5 21.5t-68 48t-61 48t-62.5 21.5q-32 0 -52.5 -11.5t-35 -31.5t-33.5 -76h-52q32 127 90.5 184.5t147.5 57.5q48 0 85 -21.5t68.5 -48t61 -48t61.5 -21.5q42 0 70 24t51 94h52 q-32 -125 -90.5 -183t-147.5 -58z"/>
<glyph glyph-name="Odieresis" horiz-adv-x="1479" unicode="Ö" d="M663 -20q-161 0 -289.5 67.5t-199.5 190.5t-71 276q0 241 100 436.5t273 300.5t395 105q161 0 289.5 -67.5t199.5 -190t71 -276.5q0 -237 -100.5 -436t-273 -302.5t-394.5 -103.5zM1231 832q0 200 -102.5 322t-270.5 122q-149 0 -273.5 -101.5t-203 -290.5t-78.5 -381 q0 -198 100.5 -318t266.5 -120q149 0 275.5 100.5t206 289.5t79.5 377zM838 1596q0 -42 -28 -71.5t-70 -29.5q-41 0 -71 30t-30 71q0 42 31 71t70 29q42 0 70 -29t28 -71zM1194 1596q0 -42 -28 -71.5t-70 -29.5t-71 31t-29 70q0 42 29 71t71 29t70 -29t28 -71z"/>
<glyph glyph-name="multiply" horiz-adv-x="1382" unicode="×" d="M708 608l-345 -344l-71 72l344 346l-344 342l74 74l342 -344l346 344l71 -72l-344 -344l344 -346l-71 -72z"/>
<glyph glyph-name="Oslash" horiz-adv-x="1479" unicode="Ø" d="M303 503q0 -114 33 -201l818 817q-49 75 -124.5 116t-171.5 41q-149 0 -273.5 -101.5t-203 -290.5t-78.5 -381zM1231 832q0 117 -37 211l-819 -820q48 -75 123 -116.5t172 -41.5q149 0 275.5 100.5t206 289.5t79.5 377zM663 -20q-236 0 -393 138l-173 -173h-119l235 235 q-110 139 -110 334q0 241 100 436.5t273 300.5t395 105q232 0 387 -134l169 169h115l-228 -228q117 -142 117 -341q0 -237 -100.5 -436t-273 -302.5t-394.5 -103.5z"/>
<glyph glyph-name="Ugrave" horiz-adv-x="1479" unicode="Ù" d="M1299 1262l-175 26l9 53h457l-9 -53l-177 -26l-141 -801q-40 -229 -194 -355t-390 -126q-233 0 -355 94.5t-122 273.5q0 55 10 105l143 809l-167 26l9 53h536l-9 -53l-177 -26l-141 -805q-10 -54 -10 -102q0 -263 300 -263q191 0 311.5 95t149.5 266zM971 1452l-307 268 l6 37h203l158 -272l-5 -33h-55z"/>
<glyph glyph-name="Uacute" horiz-adv-x="1479" unicode="Ú" d="M1299 1262l-175 26l9 53h457l-9 -53l-177 -26l-141 -801q-40 -229 -194 -355t-390 -126q-233 0 -355 94.5t-122 273.5q0 55 10 105l143 809l-167 26l9 53h536l-9 -53l-177 -26l-141 -805q-10 -54 -10 -102q0 -263 300 -263q191 0 311.5 95t149.5 266zM821 1452l5 33 l244 272h213l-6 -37l-401 -268h-55z"/>
<glyph glyph-name="Ucircumflex" horiz-adv-x="1479" unicode="Û" d="M1299 1262l-175 26l9 53h457l-9 -53l-177 -26l-141 -801q-40 -229 -194 -355t-390 -126q-233 0 -355 94.5t-122 273.5q0 55 10 105l143 809l-167 26l9 53h536l-9 -53l-177 -26l-141 -805q-10 -54 -10 -102q0 -263 300 -263q191 0 311.5 95t149.5 266zM662 1452l5 33 l235 273h213l139 -273l-5 -33h-47l-206 183l-270 -183h-64z"/>
<glyph glyph-name="Udieresis" horiz-adv-x="1479" unicode="Ü" d="M1299 1262l-175 26l9 53h457l-9 -53l-177 -26l-141 -801q-40 -229 -194 -355t-390 -126q-233 0 -355 94.5t-122 273.5q0 55 10 105l143 809l-167 26l9 53h536l-9 -53l-177 -26l-141 -805q-10 -54 -10 -102q0 -263 300 -263q191 0 311.5 95t149.5 266zM904 1596 q0 -42 -28 -71.5t-70 -29.5q-41 0 -71 30t-30 71q0 42 31 71t70 29q42 0 70 -29t28 -71zM1260 1596q0 -42 -28 -71.5t-70 -29.5t-71 31t-29 70q0 42 29 71t71 29t70 -29t28 -71z"/>
<glyph glyph-name="Yacute" horiz-adv-x="1139" unicode="Ý" d="M609 80l209 -27l-10 -53h-619l10 53l217 27l78 442l-230 740l-147 26l10 53h547l-10 -53l-194 -26l188 -627l393 627l-176 26l10 53h436l-10 -53l-151 -26l-472 -734zM638 1452l5 33l244 272h213l-6 -37l-401 -268h-55z"/>
<glyph glyph-name="Thorn" horiz-adv-x="1251" unicode="Þ" d="M703 1083q216 0 333 -89.5t117 -265.5q0 -224 -146.5 -342t-418.5 -118h-201l-33 -188l219 -27l-10 -53h-574l10 53l162 27l209 1182l-155 26l10 53h524l-10 -53l-176 -26l-32 -179h172zM566 358q388 0 388 357q0 143 -72.5 210.5t-218.5 67.5h-148l-112 -635h163z"/>
<glyph glyph-name="germandbls" d="M675 775q0 -55 28.5 -99.5t97.5 -100.5q64 -52 95 -110t31 -132q0 -165 -93 -259t-264 -94q-62 0 -128.5 13t-96.5 34l34 192h45l10 -94q18 -28 57.5 -47t90.5 -19q86 0 135 59t49 159q0 59 -30.5 107t-93.5 99q-63 50 -94 105t-31 124q0 279 303 335q15 85 15 145 q0 94 -38 132t-114 38q-196 0 -239 -252l-195 -1110h-306l7 45l145 25l175 991q34 188 141 284.5t286 96.5q150 0 222 -68t72 -217q0 -70 -16 -160q-132 -14 -185 -36.5t-84 -66t-31 -119.5z" unicode="ß"/>
<glyph glyph-name="agrave" d="M760 837q-39 27 -73 37.5t-84 10.5q-100 0 -183.5 -75.5t-131.5 -203.5t-48 -267q0 -107 44 -171t120 -64q113 0 247 139zM789 70l113 -25l-8 -45h-285l29 156q-169 -177 -309 -177q-121 0 -194.5 89t-73.5 245q0 175 76.5 327.5t204.5 238t278 85.5q121 0 228 -42l45 34 h54zM720 1118l-307 268l6 37h203l158 -272l-5 -33h-55z" unicode="à"/>
<glyph glyph-name="aacute" d="M760 837q-39 27 -73 37.5t-84 10.5q-100 0 -183.5 -75.5t-131.5 -203.5t-48 -267q0 -107 44 -171t120 -64q113 0 247 139zM789 70l113 -25l-8 -45h-285l29 156q-169 -177 -309 -177q-121 0 -194.5 89t-73.5 245q0 175 76.5 327.5t204.5 238t278 85.5q121 0 228 -42l45 34 h54zM516 1118l5 33l244 272h213l-6 -37l-401 -268h-55z" unicode="á"/>
<glyph glyph-name="acircumflex" d="M760 837q-39 27 -73 37.5t-84 10.5q-100 0 -183.5 -75.5t-131.5 -203.5t-48 -267q0 -107 44 -171t120 -64q113 0 247 139zM789 70l113 -25l-8 -45h-285l29 156q-169 -177 -309 -177q-121 0 -194.5 89t-73.5 245q0 175 76.5 327.5t204.5 238t278 85.5q121 0 228 -42l45 34 h54zM345 1118l5 33l235 273h213l139 -273l-5 -33h-47l-206 183l-270 -183h-64z" unicode="â"/>
<glyph glyph-name="atilde" d="M760 837q-39 27 -73 37.5t-84 10.5q-100 0 -183.5 -75.5t-131.5 -203.5t-48 -267q0 -107 44 -171t120 -64q113 0 247 139zM789 70l113 -25l-8 -45h-285l29 156q-169 -177 -309 -177q-121 0 -194.5 89t-73.5 245q0 175 76.5 327.5t204.5 238t278 85.5q121 0 228 -42l45 34 h54zM780 1119q-48 0 -84.5 21.5t-68 48t-61 48t-62.5 21.5q-32 0 -52.5 -11.5t-35 -31.5t-33.5 -76h-52q32 127 90.5 184.5t147.5 57.5q48 0 85 -21.5t68.5 -48t61 -48t61.5 -21.5q42 0 70 24t51 94h52q-32 -125 -90.5 -183t-147.5 -58z" unicode="ã"/>
<glyph glyph-name="adieresis" d="M760 837q-39 27 -73 37.5t-84 10.5q-100 0 -183.5 -75.5t-131.5 -203.5t-48 -267q0 -107 44 -171t120 -64q113 0 247 139zM789 70l113 -25l-8 -45h-285l29 156q-169 -177 -309 -177q-121 0 -194.5 89t-73.5 245q0 175 76.5 327.5t204.5 238t278 85.5q121 0 228 -42l45 34 h54zM581 1231q0 -42 -28 -71.5t-70 -29.5q-41 0 -71 30t-30 71q0 42 31 71t70 29q42 0 70 -29t28 -71zM937 1231q0 -42 -28 -71.5t-70 -29.5t-71 31t-29 70q0 42 29 71t71 29t70 -29t28 -71z" unicode="ä"/>
<glyph glyph-name="aring" d="M760 837q-39 27 -73 37.5t-84 10.5q-100 0 -183.5 -75.5t-131.5 -203.5t-48 -267q0 -107 44 -171t120 -64q113 0 247 139zM789 70l113 -25l-8 -45h-285l29 156q-169 -177 -309 -177q-121 0 -194.5 89t-73.5 245q0 175 76.5 327.5t204.5 238t278 85.5q121 0 228 -42l45 34 h54zM791 1277q0 51 -36 87t-87 36t-87 -36t-36 -87q0 -52 37 -87.5t86 -35.5q48 0 85.5 35t37.5 88zM871 1277q0 -84 -59.5 -143.5t-143.5 -59.5t-143.5 59.5t-59.5 143.5t59.5 143.5t143.5 59.5t143.5 -59.5t59.5 -143.5z" unicode="å"/>
<glyph glyph-name="ae" horiz-adv-x="1366" unicode="æ" d="M1145 774q0 53 -24.5 83.5t-72.5 30.5q-91 0 -158.5 -108t-100.5 -304q171 17 263.5 96t92.5 202zM391 104q46 0 103 31t109 81q-8 56 -8 93q0 295 172 510q-89 66 -176 66q-91 0 -171.5 -80t-129.5 -210t-49 -260q0 -110 41 -170.5t109 -60.5zM1320 771 q0 -91 -66.5 -168t-192 -127.5t-282.5 -62.5q-8 -54 -8 -117q0 -212 185 -212q121 0 261 100l29 -42q-186 -162 -356 -162q-103 0 -165 39t-104 128q-80 -78 -164 -123t-153 -45q-106 0 -173.5 93.5t-67.5 244.5q0 172 74 324t201.5 237.5t279.5 85.5q62 0 122 -21.5 t101 -51.5q93 74 236 74q115 0 179 -52.5t64 -141.5z"/>
<glyph glyph-name="ccedilla" horiz-adv-x="909" unicode="ç" d="M774 142q-81 -75 -182 -118.5t-192 -43.5q-161 0 -249 93t-88 257q0 174 70 317.5t199.5 230.5t271.5 87q71 0 151 -15t132 -37l-45 -262h-55l-16 174q-63 63 -168 63q-96 0 -179.5 -71t-133.5 -198t-50 -279q0 -256 206 -256q143 0 298 100zM561 -212 q0 -98 -71.5 -156.5t-207.5 -58.5q-72 0 -133 21l23 75q48 -16 97 -16q61 0 99 27.5t38 84.5q0 44 -34 73.5t-99 35.5l68 153h86l-33 -82q80 -8 123.5 -49t43.5 -108z"/>
<glyph glyph-name="egrave" horiz-adv-x="909" unicode="è" d="M252 476q198 15 317 93t119 191q0 56 -30.5 92t-88.5 36q-70 0 -136 -57t-114 -153t-67 -202zM863 760q0 -136 -168 -232t-451 -115l-4 -73q0 -127 53.5 -191.5t158.5 -64.5q90 0 166 30.5t142 69.5l29 -42q-92 -78 -194.5 -120t-194.5 -42q-162 0 -249.5 90.5 t-87.5 259.5q0 167 70.5 311.5t195.5 234t262 89.5q123 0 197.5 -56.5t74.5 -148.5zM673 1118l-307 268l6 37h203l158 -272l-5 -33h-55z"/>
<glyph glyph-name="eacute" horiz-adv-x="909" unicode="é" d="M252 476q198 15 317 93t119 191q0 56 -30.5 92t-88.5 36q-70 0 -136 -57t-114 -153t-67 -202zM863 760q0 -136 -168 -232t-451 -115l-4 -73q0 -127 53.5 -191.5t158.5 -64.5q90 0 166 30.5t142 69.5l29 -42q-92 -78 -194.5 -120t-194.5 -42q-162 0 -249.5 90.5 t-87.5 259.5q0 167 70.5 311.5t195.5 234t262 89.5q123 0 197.5 -56.5t74.5 -148.5zM521 1118l5 33l244 272h213l-6 -37l-401 -268h-55z"/>
<glyph glyph-name="ecircumflex" horiz-adv-x="909" unicode="ê" d="M252 476q198 15 317 93t119 191q0 56 -30.5 92t-88.5 36q-70 0 -136 -57t-114 -153t-67 -202zM863 760q0 -136 -168 -232t-451 -115l-4 -73q0 -127 53.5 -191.5t158.5 -64.5q90 0 166 30.5t142 69.5l29 -42q-92 -78 -194.5 -120t-194.5 -42q-162 0 -249.5 90.5 t-87.5 259.5q0 167 70.5 311.5t195.5 234t262 89.5q123 0 197.5 -56.5t74.5 -148.5zM315 1118l5 33l235 273h213l139 -273l-5 -33h-47l-206 183l-270 -183h-64z"/>
<glyph glyph-name="edieresis" horiz-adv-x="909" unicode="ë" d="M252 476q198 15 317 93t119 191q0 56 -30.5 92t-88.5 36q-70 0 -136 -57t-114 -153t-67 -202zM863 760q0 -136 -168 -232t-451 -115l-4 -73q0 -127 53.5 -191.5t158.5 -64.5q90 0 166 30.5t142 69.5l29 -42q-92 -78 -194.5 -120t-194.5 -42q-162 0 -249.5 90.5 t-87.5 259.5q0 167 70.5 311.5t195.5 234t262 89.5q123 0 197.5 -56.5t74.5 -148.5zM569 1231q0 -42 -28 -71.5t-70 -29.5q-41 0 -71 30t-30 71q0 42 31 71t70 29q42 0 70 -29t28 -71zM925 1231q0 -42 -28 -71.5t-70 -29.5t-71 31t-29 70q0 42 29 71t71 29t70 -29t28 -71z "/>
<glyph glyph-name="igrave" horiz-adv-x="569" unicode="ì" d="M287 70l157 -25l-8 -45h-327l153 870l-129 25l8 45h299zM430 1118l-307 268l6 37h203l158 -272l-5 -33h-55z"/>
<glyph glyph-name="iacute" horiz-adv-x="569" unicode="í" d="M287 70l157 -25l-8 -45h-327l153 870l-129 25l8 45h299zM259 1118l5 33l244 272h213l-6 -37l-401 -268h-55z"/>
<glyph glyph-name="icircumflex" horiz-adv-x="569" unicode="î" d="M287 70l157 -25l-8 -45h-327l153 870l-129 25l8 45h299zM67 1118l5 33l235 273h213l139 -273l-5 -33h-47l-206 183l-270 -183h-64z"/>
<glyph glyph-name="idieresis" horiz-adv-x="569" unicode="ï" d="M287 70l157 -25l-8 -45h-327l153 870l-129 25l8 45h299zM297 1231q0 -42 -28 -71.5t-70 -29.5q-41 0 -71 30t-30 71q0 42 31 71t70 29q42 0 70 -29t28 -71zM653 1231q0 -42 -28 -71.5t-70 -29.5t-71 31t-29 70q0 42 29 71t71 29t70 -29t28 -71z"/>
<glyph glyph-name="eth" d="M567 825q-88 0 -164 -64.5t-121 -180t-45 -249.5q0 -131 53.5 -201.5t147.5 -70.5q88 0 165.5 65.5t122.5 179t45 244.5q0 136 -52.5 206.5t-151.5 70.5zM959 658q0 -327 -140 -505t-396 -178q-167 0 -266.5 101t-99.5 272q0 153 69.5 283.5t191 203t272.5 72.5 q103 0 191 -48q-29 202 -133 319l-326 -172l17 96l251 131q-89 74 -199 110l14 78q172 -44 291 -133l294 156l-17 -94l-214 -115q95 -83 147.5 -238t52.5 -339z" unicode="ð"/>
<glyph glyph-name="ntilde" d="M755 748q0 45 -24 73t-76 28q-74 0 -161.5 -63t-144.5 -156l-110 -630h-166l153 871l-118 25l8 45h278l-27 -192q84 108 174 162t177 54q101 0 152 -54.5t51 -156.5q0 -14 -4 -43t-109 -642l131 -24l-8 -45h-301l102 582q23 127 23 166zM740 1119q-48 0 -84.5 21.5 t-68 48t-61 48t-62.5 21.5q-32 0 -52.5 -11.5t-35 -31.5t-33.5 -76h-52q32 127 90.5 184.5t147.5 57.5q48 0 85 -21.5t68.5 -48t61 -48t61.5 -21.5q42 0 70 24t51 94h52q-32 -125 -90.5 -183t-147.5 -58z" unicode="ñ"/>
<glyph glyph-name="ograve" d="M427 -20q-166 0 -266 106.5t-100 287.5q0 161 69 298t191.5 215t275.5 78q166 0 266 -106.5t100 -287.5q0 -161 -69 -298t-191.5 -215t-275.5 -78zM237 340q0 -135 52.5 -206.5t146.5 -71.5q91 0 173.5 73t130.5 199.5t48 271.5q0 138 -52.5 209.5t-150.5 71.5 q-91 0 -172.5 -73t-128.5 -199.5t-47 -274.5zM693 1118l-307 268l6 37h203l158 -272l-5 -33h-55z" unicode="ò"/>
<glyph glyph-name="oacute" d="M427 -20q-166 0 -266 106.5t-100 287.5q0 161 69 298t191.5 215t275.5 78q166 0 266 -106.5t100 -287.5q0 -161 -69 -298t-191.5 -215t-275.5 -78zM237 340q0 -135 52.5 -206.5t146.5 -71.5q91 0 173.5 73t130.5 199.5t48 271.5q0 138 -52.5 209.5t-150.5 71.5 q-91 0 -172.5 -73t-128.5 -199.5t-47 -274.5zM526 1118l5 33l244 272h213l-6 -37l-401 -268h-55z" unicode="ó"/>
<glyph glyph-name="ocircumflex" d="M427 -20q-166 0 -266 106.5t-100 287.5q0 161 69 298t191.5 215t275.5 78q166 0 266 -106.5t100 -287.5q0 -161 -69 -298t-191.5 -215t-275.5 -78zM237 340q0 -135 52.5 -206.5t146.5 -71.5q91 0 173.5 73t130.5 199.5t48 271.5q0 138 -52.5 209.5t-150.5 71.5 q-91 0 -172.5 -73t-128.5 -199.5t-47 -274.5zM323 1118l5 33l235 273h213l139 -273l-5 -33h-47l-206 183l-270 -183h-64z" unicode="ô"/>
<glyph glyph-name="otilde" d="M427 -20q-166 0 -266 106.5t-100 287.5q0 161 69 298t191.5 215t275.5 78q166 0 266 -106.5t100 -287.5q0 -161 -69 -298t-191.5 -215t-275.5 -78zM237 340q0 -135 52.5 -206.5t146.5 -71.5q91 0 173.5 73t130.5 199.5t48 271.5q0 138 -52.5 209.5t-150.5 71.5 q-91 0 -172.5 -73t-128.5 -199.5t-47 -274.5zM763 1119q-48 0 -84.5 21.5t-68 48t-61 48t-62.5 21.5q-32 0 -52.5 -11.5t-35 -31.5t-33.5 -76h-52q32 127 90.5 184.5t147.5 57.5q48 0 85 -21.5t68.5 -48t61 -48t61.5 -21.5q42 0 70 24t51 94h52q-32 -125 -90.5 -183 t-147.5 -58z" unicode="õ"/>
<glyph glyph-name="odieresis" d="M427 -20q-166 0 -266 106.5t-100 287.5q0 161 69 298t191.5 215t275.5 78q166 0 266 -106.5t100 -287.5q0 -161 -69 -298t-191.5 -215t-275.5 -78zM237 340q0 -135 52.5 -206.5t146.5 -71.5q91 0 173.5 73t130.5 199.5t48 271.5q0 138 -52.5 209.5t-150.5 71.5 q-91 0 -172.5 -73t-128.5 -199.5t-47 -274.5zM570 1231q0 -42 -28 -71.5t-70 -29.5q-41 0 -71 30t-30 71q0 42 31 71t70 29q42 0 70 -29t28 -71zM926 1231q0 -42 -28 -71.5t-70 -29.5t-71 31t-29 70q0 42 29 71t71 29t70 -29t28 -71z" unicode="ö"/>
<glyph glyph-name="divide" horiz-adv-x="1124" unicode="÷" d="M1069 731v-102h-953v102h953zM688 297q0 -40 -28 -68t-68 -28q-41 0 -69 28t-28 68t28 68t69 28q40 0 68 -28t28 -68zM688 1063q0 -40 -28 -68t-68 -28q-41 0 -69 28t-28 68t28 68t69 28q40 0 68 -28t28 -68z"/>
<glyph glyph-name="oslash" d="M783 590q0 63 -11 116l-487 -556q52 -91 157 -91q91 0 170 70.5t125 192.5t46 268zM579 890q-91 0 -169.5 -70t-123.5 -194.5t-45 -271.5q0 -68 12 -120l489 558q-52 98 -163 98zM427 -20q-136 0 -228 72l-119 -136h-107l169 192q-81 106 -81 266q0 161 69 298t191.5 215 t275.5 78q138 0 231 -75l117 132h104l-165 -189q79 -104 79 -262q0 -161 -69 -298t-191.5 -215t-275.5 -78z" unicode="ø"/>
<glyph glyph-name="ugrave" d="M268 193q0 -45 24 -73t76 -28q75 0 162 62.5t143 153.5l111 632h166l-153 -870l118 -25l-8 -45h-278l27 193q-83 -107 -173 -162t-178 -55q-101 0 -152 54.5t-51 156.5q0 15 5.5 53.5t107.5 630.5l-111 24l8 45h281l-102 -581q-23 -126 -23 -166zM666 1118l-307 268l6 37 h203l158 -272l-5 -33h-55z" unicode="ù"/>
<glyph glyph-name="uacute" d="M268 193q0 -45 24 -73t76 -28q75 0 162 62.5t143 153.5l111 632h166l-153 -870l118 -25l-8 -45h-278l27 193q-83 -107 -173 -162t-178 -55q-101 0 -152 54.5t-51 156.5q0 15 5.5 53.5t107.5 630.5l-111 24l8 45h281l-102 -581q-23 -126 -23 -166zM495 1118l5 33l244 272 h213l-6 -37l-401 -268h-55z" unicode="ú"/>
<glyph glyph-name="ucircumflex" d="M268 193q0 -45 24 -73t76 -28q75 0 162 62.5t143 153.5l111 632h166l-153 -870l118 -25l-8 -45h-278l27 193q-83 -107 -173 -162t-178 -55q-101 0 -152 54.5t-51 156.5q0 15 5.5 53.5t107.5 630.5l-111 24l8 45h281l-102 -581q-23 -126 -23 -166zM312 1118l5 33l235 273 h213l139 -273l-5 -33h-47l-206 183l-270 -183h-64z" unicode="û"/>
<glyph glyph-name="udieresis" d="M268 193q0 -45 24 -73t76 -28q75 0 162 62.5t143 153.5l111 632h166l-153 -870l118 -25l-8 -45h-278l27 193q-83 -107 -173 -162t-178 -55q-101 0 -152 54.5t-51 156.5q0 15 5.5 53.5t107.5 630.5l-111 24l8 45h281l-102 -581q-23 -126 -23 -166zM558 1231 q0 -42 -28 -71.5t-70 -29.5q-41 0 -71 30t-30 71q0 42 31 71t70 29q42 0 70 -29t28 -71zM914 1231q0 -42 -28 -71.5t-70 -29.5t-71 31t-29 70q0 42 29 71t71 29t70 -29t28 -71z" unicode="ü"/>
<glyph glyph-name="yacute" horiz-adv-x="909" unicode="ý" d="M52 940h256l145 -732l235 406q64 112 64 193q0 37 -21 59t-45 29l8 45h190q26 -23 26 -63q0 -79 -83 -220l-396 -667q-114 -194 -180.5 -275t-131.5 -119t-141 -38q-81 0 -149 18l37 203h45l16 -96q25 -23 82 -23q135 0 285 270l45 82l-183 858l-112 25zM432 1118l5 33 l244 272h213l-6 -37l-401 -268h-55z"/>
<glyph glyph-name="thorn" d="M233 107q60 -48 166 -48q107 0 192.5 72.5t138.5 204.5t53 269q0 110 -47 172.5t-129 62.5q-54 0 -128 -38t-137 -101zM355 788q183 177 325 177q128 0 205 -89.5t77 -244.5q0 -172 -76 -323.5t-210 -239.5t-294 -88q-48 0 -97 7t-74 15l-11 -90l-50 -277l160 -24l-8 -47 h-446l8 47l123 24l303 1717l-133 24l8 45h303z" unicode="þ"/>
<glyph glyph-name="dotlessi" horiz-adv-x="569" unicode="ı" d="M287 70l157 -25l-8 -45h-327l153 870l-129 25l8 45h299z"/>
<glyph glyph-name="OE" horiz-adv-x="1933" unicode="Œ" d="M655 65q113 0 189 22l204 1165q-66 24 -190 24q-149 0 -273.5 -101.5t-203 -290.5t-78.5 -381q0 -209 92 -323.5t260 -114.5zM642 -6q-253 0 -396 137t-143 383q0 235 96 427t271.5 299.5t400.5 107.5l265 -7h764l-57 -321h-66l6 217q-109 14 -321 14h-219l-93 -524h362 l60 160h64l-73 -412h-64l-2 162h-362l-97 -547h264q256 0 341 16l101 248h66l-82 -354h-811q-78 -6 -275 -6z"/>
<glyph glyph-name="oe" horiz-adv-x="1366" unicode="œ" d="M818 476q163 16 247 91t84 200q0 60 -23 90.5t-58 30.5q-81 0 -150.5 -114t-99.5 -298zM360 62q74 0 144 84t114.5 224.5t44.5 296.5q0 105 -34.5 162.5t-96.5 57.5q-75 0 -144.5 -86.5t-111 -229.5t-41.5 -292q0 -103 32 -160t93 -57zM341 -20q-133 0 -206.5 91 t-73.5 257q0 176 63 323t176.5 230.5t256.5 83.5q161 0 235 -145q48 66 126.5 105.5t173.5 39.5q106 0 167 -49t61 -139q0 -95 -61.5 -173.5t-177 -128t-273.5 -62.5q-1 -7 -7 -55t-6 -88q0 -102 41 -144t120 -42q121 0 261 100l29 -42q-180 -162 -348 -162q-182 0 -235 151 q-127 -151 -322 -151z"/>
<glyph glyph-name="Scaron" d="M76 371h65l1 -191q33 -50 112.5 -84.5t168.5 -34.5q164 0 252.5 77.5t88.5 216.5q0 54 -24 94t-64 72t-90.5 59t-103.5 54.5t-103.5 59t-90.5 73t-64 95.5t-24 127q0 178 121 272.5t346 94.5q172 0 324 -38l-49 -279h-65l-5 171q-32 26 -89 44t-131 18q-133 0 -205 -65 t-72 -182q0 -63 45 -115t134 -97q136 -71 196 -108t100.5 -79t65 -96t24.5 -124q0 -206 -134.5 -316t-388.5 -110q-126 0 -226.5 25.5t-166.5 67.5zM487 1758l206 -183l270 183h60l-5 -33l-235 -273h-213l-140 273l5 33h52z" unicode="Š"/>
<glyph glyph-name="scaron" horiz-adv-x="797" unicode="š" d="M692 276q0 -151 -96 -223.5t-291 -72.5q-138 0 -280 62l41 226h45l17 -137q26 -28 73.5 -50t107.5 -22q219 0 219 179q0 59 -46.5 105t-151.5 97q-101 49 -150 108.5t-49 139.5q0 132 89 204.5t247 72.5q113 0 268 -35l-37 -209h-47l-14 108q-63 56 -166 56 q-82 0 -131 -37.5t-49 -116.5q0 -54 42 -95t159 -101q104 -54 152 -116t48 -143zM329 1424l206 -183l270 183h60l-5 -33l-235 -273h-213l-140 273l5 33h52z"/>
<glyph glyph-name="Ydieresis" horiz-adv-x="1139" unicode="Ÿ" d="M609 80l209 -27l-10 -53h-619l10 53l217 27l78 442l-230 740l-147 26l10 53h547l-10 -53l-194 -26l188 -627l393 627l-176 26l10 53h436l-10 -53l-151 -26l-472 -734zM703 1596q0 -42 -28 -71.5t-70 -29.5q-41 0 -71 30t-30 71q0 42 31 71t70 29q42 0 70 -29t28 -71z M1059 1596q0 -42 -28 -71.5t-70 -29.5t-71 31t-29 70q0 42 29 71t71 29t70 -29t28 -71z"/>
<glyph glyph-name="circumflex" horiz-adv-x="682" unicode="ˆ" d="M174 1118l5 33l235 273h213l139 -273l-5 -33h-47l-206 183l-270 -183h-64z"/>
<glyph glyph-name="caron" horiz-adv-x="682" unicode="ˇ" d="M241 1424l206 -183l270 183h60l-5 -33l-235 -273h-213l-140 273l5 33h52z"/>
<glyph glyph-name="ring" horiz-adv-x="682" unicode="˚" d="M595 1277q0 51 -36 87t-87 36t-87 -36t-36 -87q0 -52 37 -87.5t86 -35.5q48 0 85.5 35t37.5 88zM675 1277q0 -84 -59.5 -143.5t-143.5 -59.5t-143.5 59.5t-59.5 143.5t59.5 143.5t143.5 59.5t143.5 -59.5t59.5 -143.5z"/>
<glyph glyph-name="tilde" horiz-adv-x="682" unicode="˜" d="M572 1119q-48 0 -84.5 21.5t-68 48t-61 48t-62.5 21.5q-32 0 -52.5 -11.5t-35 -31.5t-33.5 -76h-52q32 127 90.5 184.5t147.5 57.5q48 0 85 -21.5t68.5 -48t61 -48t61.5 -21.5q42 0 70 24t51 94h52q-32 -125 -90.5 -183t-147.5 -58z"/>
<glyph glyph-name="Alpha" horiz-adv-x="1251" unicode="Α" d="M723 1208l-344 -651h467zM264 53l-10 -53h-366l10 53l112 27l682 1272h191l250 -1272l125 -27l-11 -53h-475l11 53l143 27l-64 387h-528l-205 -387z"/>
<glyph glyph-name="Beta" horiz-adv-x="1251" unicode="Β" d="M19 0l10 53l133 27l209 1182l-168 26l10 53h551q442 0 442 -282q0 -141 -88.5 -233t-246.5 -113q155 -13 240 -92.5t85 -210.5q0 -215 -145.5 -315.5t-435.5 -100.5l-383 6h-213zM615 84q192 0 282 74.5t90 247.5q0 136 -88.5 197t-255.5 61h-186l-100 -574 q153 -6 258 -6zM639 754q194 0 276.5 65t82.5 228q0 104 -65 154t-214 50h-158l-88 -497h166z"/>
<glyph glyph-name="Gamma" horiz-adv-x="1165" unicode="Γ" d="M553 0h-570l9 53l175 26l209 1182l-167 27l10 53h1011l-50 -385h-65l-13 279q-32 7 -127.5 13.5t-152.5 6.5h-254l-208 -1176l202 -26z"/>
<glyph glyph-name="Delta" horiz-adv-x="1202" unicode="Δ" d="M734 1208l-650 -1099h806zM1092 0h-1160l15 80l763 1272h190l208 -1272z"/>
<glyph glyph-name="Epsilon" horiz-adv-x="1251" unicode="Ε" d="M370 1262l-168 26l10 53h1006l-57 -321h-66l6 217q-109 14 -321 14h-219l-93 -524h362l60 160h64l-73 -412h-64l-2 162h-362l-97 -547h264q256 0 341 16l101 248h66l-82 -354h-1070l10 53l175 27z"/>
<glyph glyph-name="Zeta" horiz-adv-x="1139" unicode="Ζ" d="M907 1255h-200q-248 0 -343 -20l-68 -211h-69l56 317h873l-16 -86l-873 -1171h240q119 0 242.5 11.5t167.5 21.5l104 256h70l-93 -373h-973l17 94z"/>
<glyph glyph-name="Eta" horiz-adv-x="1479" unicode="Η" d="M-22 0l8 53l176 27l207 1182l-166 26l8 53h537l-8 -53l-179 -26l-92 -527h631l92 527l-166 26l8 53h537l-8 -53l-178 -26l-207 -1182l166 -27l-9 -53h-536l8 53l178 27l99 565h-631l-99 -565l166 -27l-8 -53h-534z"/>
<glyph glyph-name="Theta" horiz-adv-x="1479" unicode="Θ" d="M663 -20q-161 0 -289.5 67.5t-199.5 190.5t-71 276q0 241 100 436.5t273 300.5t395 105q161 0 289.5 -67.5t199.5 -190t71 -276.5q0 -237 -100.5 -436t-273 -302.5t-394.5 -103.5zM1231 832q0 200 -102.5 322t-270.5 122q-149 0 -273.5 -101.5t-203 -290.5t-78.5 -381 q0 -198 100.5 -318t266.5 -120q149 0 275.5 100.5t206 289.5t79.5 377zM575 610l-59 -142h-64l81 412h64l3 -140h362l59 140h64l-81 -412h-64l-3 142h-362z"/>
<glyph glyph-name="Iota" horiz-adv-x="682" unicode="Ι" d="M369 80l166 -27l-8 -53h-535l8 53l176 27l207 1182l-166 26l8 53h537l-8 -53l-178 -26z"/>
<glyph glyph-name="Kappa" horiz-adv-x="1366" unicode="Κ" d="M1454 1341l-10 -53l-156 -26l-556 -455l447 -727l134 -27l-10 -53h-307l-411 686l-143 -117l-88 -489l188 -27l-10 -53h-556l10 53l175 27l209 1182l-168 26l10 53h537l-10 -53l-176 -26l-98 -558l678 558l-119 26l10 53h420z"/>
<glyph glyph-name="Lambda" horiz-adv-x="1237" unicode="Λ" d="M122 80l174 -27l-10 -53h-445l10 53l150 27l711 1272h190l158 -1272l164 -27l-10 -53h-562l10 53l186 27l-108 1117z"/>
<glyph glyph-name="Mu" horiz-adv-x="1706" unicode="Μ" d="M721 0h-35l-231 1153l-189 -1073l176 -27l-10 -53h-456l10 53l175 27l209 1182l-168 26l10 53h382l206 -1023l598 1023h402l-10 -53l-176 -26l-209 -1182l168 -27l-10 -53h-544l10 53l184 27l189 1073z"/>
<glyph glyph-name="Nu" horiz-adv-x="1366" unicode="Ν" d="M1170 1262l-176 26l10 53h457l-10 -53l-176 -26l-223 -1262h-97l-481 1206l-199 -1126l176 -27l-10 -53h-456l10 53l175 27l209 1182l-168 26l10 53h388l399 -1005z"/>
<glyph glyph-name="Xi" horiz-adv-x="1309" unicode="Ξ" d="M472 610l-59 -142h-64l80 412h64l4 -140h416l58 140h64l-80 -412h-64l-3 142h-416zM735 1181q-215 0 -327 -14l-83 -157h-66l85 331h957l-45 -331h-66l-21 157q-109 14 -321 14h-113zM681 170q256 0 341 16l94 188h66l-92 -374h-1057l53 374h66l20 -188q38 -7 157 -11.5 t205 -4.5h147z"/>
<glyph glyph-name="Omicron" horiz-adv-x="1479" unicode="Ο" d="M663 -20q-161 0 -289.5 67.5t-199.5 190.5t-71 276q0 241 100 436.5t273 300.5t395 105q161 0 289.5 -67.5t199.5 -190t71 -276.5q0 -237 -100.5 -436t-273 -302.5t-394.5 -103.5zM1231 832q0 200 -102.5 322t-270.5 122q-149 0 -273.5 -101.5t-203 -290.5t-78.5 -381 q0 -198 100.5 -318t266.5 -120q149 0 275.5 100.5t206 289.5t79.5 377z"/>
<glyph glyph-name="Pi" horiz-adv-x="1479" unicode="Π" d="M-17 0l9 53l176 27l208 1182l-167 26l10 53h1360l-10 -53l-177 -26l-208 -1182l166 -27l-9 -53h-536l9 53l178 27l206 1171h-631l-206 -1171l166 -27l-9 -53h-535z"/>
<glyph glyph-name="Rho" horiz-adv-x="1251" unicode="Ρ" d="M433 526l-79 -446l219 -27l-10 -53h-574l10 53l162 27l209 1182l-168 26l10 53h537q216 0 333 -89.5t117 -265.5q0 -224 -146.5 -342t-418.5 -118h-201zM612 616q388 0 388 357q0 143 -72.5 210.5t-218.5 67.5h-148l-112 -635h163z"/>
<glyph glyph-name="Sigma" horiz-adv-x="1217" unicode="Σ" d="M736 728l-7 -40l-497 -518h252q102 0 249.5 4.5t183.5 11.5l94 188h66l-92 -374h-989l14 74l549 572l-311 616l16 79h921l-63 -321h-66l1 217q-108 14 -304 14h-281z"/>
<glyph glyph-name="Tau" horiz-adv-x="1139" unicode="Τ" d="M176 0l10 53l217 27l207 1175h-51q-199 0 -294 -20l-64 -209h-67l56 315h1070l-56 -315h-68l10 209q-90 18 -294 18h-49l-207 -1173l209 -27l-10 -53h-619z"/>
<glyph glyph-name="Upsilon" horiz-adv-x="1139" unicode="Υ" d="M609 80l209 -27l-10 -53h-619l10 53l217 27l78 442l-230 740l-147 26l10 53h547l-10 -53l-194 -26l188 -627l393 627l-176 26l10 53h436l-10 -53l-151 -26l-472 -734z"/>
<glyph glyph-name="Phi" horiz-adv-x="1559" unicode="Φ" d="M632 222h-66q-223 0 -344 104.5t-121 308.5q0 244 146 373t424 129h124l21 125l-167 26l10 53h526l-10 -53l-177 -26l-21 -125h56q228 0 350.5 -109t122.5 -302q0 -243 -149 -373.5t-429 -130.5h-114l-24 -142l166 -27l-9 -53h-526l9 53l178 27zM681 1059 q-388 0 -388 -427q0 -162 79.5 -247t231.5 -85h42l134 759h-99zM918 300q388 0 388 427q0 162 -79.5 247t-231.5 85h-33l-133 -759h89z"/>
<glyph glyph-name="Chi" horiz-adv-x="1251" unicode="Χ" d="M751 753l239 -673l148 -27l-10 -53h-513l10 53l164 27l-175 507l-397 -507l162 -27l-10 -53h-437l10 53l151 27l480 606l-204 576l-147 26l10 53h493l-10 -53l-144 -26l140 -409l319 409l-132 26l10 53h409l-10 -53l-152 -26z"/>
<glyph glyph-name="Psi" horiz-adv-x="1440" unicode="Ψ" d="M741 80l178 -27l-10 -53h-546l10 53l186 27l75 426q-219 0 -326.5 88.5t-107.5 269.5q0 70 11 123l51 275l-118 26l10 53h314l-66 -359q-10 -56 -10 -111q0 -143 61.5 -214t194.5 -72l120 677l-178 26l10 53h546l-10 -53l-186 -26l-120 -677q164 0 253.5 80.5 t122.5 260.5l74 415h314l-10 -53l-126 -26l-59 -331q-41 -226 -180 -325.5t-403 -99.5z"/>
<glyph glyph-name="alpha" horiz-adv-x="1075" unicode="α" d="M705 572q0 166 -39.5 240t-122.5 74q-94 0 -161 -74t-106 -224t-39 -272q0 -110 38.5 -174t107.5 -64q83 0 158 79t163 276l1 81v58zM961 45l-8 -45h-213q-17 46 -31 118.5t-17 134.5q-81 -151 -161.5 -212.5t-192.5 -61.5q-127 0 -202 99t-75 269q0 115 32 233 t96.5 206.5t154.5 134t198 45.5q229 0 268 -263l1 -29l14 30l127 236h157l-8 -40q-38 -44 -92.5 -128t-185.5 -301q8 -154 25.5 -249.5t45.5 -161.5z"/>
<glyph glyph-name="beta" horiz-adv-x="1020" unicode="β" d="M686 1362q-96 0 -151 -41t-94 -133t-67 -251l-145 -822q35 -18 95.5 -32.5t124.5 -14.5q147 0 233 103t86 286q0 125 -68.5 187t-188.5 68l14 78q158 2 243 101.5t85 272.5q0 93 -43 145.5t-124 52.5zM697 1442q148 0 234 -77.5t86 -211.5q0 -154 -82.5 -256.5 t-225.5 -133.5l-1 -10q109 -24 172 -105t63 -200q0 -215 -128 -341.5t-345 -126.5q-78 0 -145.5 15t-109.5 38l-83 -469h-165l242 1377q45 258 160 379.5t328 121.5z"/>
<glyph glyph-name="gamma" horiz-adv-x="807" unicode="γ" d="M37 895l8 45h210q80 -341 128 -757h8l215 399q98 177 98 241q0 30 -17.5 48t-36.5 24l8 45h189q5 -10 5 -41q0 -38 -28 -104t-112 -214l-313 -556q-4 -83 -28 -229.5t-46 -220.5l-157 -11l-41 29q12 62 49 189t73 218q-27 234 -72 481t-89 392z"/>
<glyph glyph-name="delta" horiz-adv-x="952" unicode="δ" d="M429 59q86 0 151 53.5t102.5 161t37.5 224.5q0 184 -144 320q-162 -52 -253.5 -189t-91.5 -313q0 -126 50.5 -191.5t147.5 -65.5zM420 -20q-167 0 -263.5 96t-96.5 264q0 187 116 323t349 207q-146 156 -146 299q0 125 94 193.5t266 68.5q110 0 240 -38l-35 -198h-47 l-23 109q-22 23 -62 35t-85 12q-87 0 -141 -41.5t-54 -124.5q0 -53 35.5 -112t149.5 -172q94 -96 138 -191.5t44 -210.5q0 -141 -62 -264t-170 -189t-247 -66z"/>
<glyph glyph-name="epsilon" horiz-adv-x="807" unicode="ε" d="M550 965q64 0 136.5 -10t118.5 -26l-36 -196h-48l-29 115q-20 15 -61.5 27t-86.5 12q-96 0 -154 -51t-58 -141q0 -53 27.5 -97t62.5 -57q120 18 177 18h51l-16 -103h-52q-34 0 -197 13q-81 -24 -123 -80t-42 -135q0 -84 49 -127t136 -43q153 0 290 96l32 -48 q-167 -152 -374 -152q-148 0 -228.5 68t-80.5 191q0 104 71.5 176t191.5 91l2 7q-66 27 -105 81t-39 121q0 117 103.5 183.5t281.5 66.5z"/>
<glyph glyph-name="zeta" horiz-adv-x="829" unicode="ζ" d="M66 320q0 130 74 276.5t228 318.5t450 422v7l-555 -81v114q483 31 666 57l15 -70q-234 -230 -341 -351t-182.5 -232t-120 -227.5t-44.5 -205.5q0 -55 24 -93.5t73 -65.5t152 -53q104 -26 156.5 -71.5t52.5 -117.5q0 -103 -74 -175t-236 -124l-22 55q183 70 183 184 q0 51 -46 80t-137 47q-167 34 -241.5 110.5t-74.5 195.5z"/>
<glyph glyph-name="eta" horiz-adv-x="1016" unicode="η" d="M765 748q0 45 -26.5 73t-78.5 28q-74 0 -164 -63t-147 -156l-110 -630h-166l153 871l-118 25l8 45h278l-27 -192q81 105 173.5 160.5t182.5 55.5q102 0 155 -55t53 -156q0 -36 -25 -174l-88 -511q-16 -97 -27.5 -234t-11.5 -227l-8 -45h-175q0 102 17.5 246.5t36.5 247.5 l92 525q23 127 23 166z"/>
<glyph glyph-name="theta" horiz-adv-x="1006" unicode="θ" d="M303 662q-34 -206 -34 -343q0 -260 135 -260q118 0 198.5 141t137.5 462h-437zM632 1352q-79 0 -134.5 -60t-97 -183t-82.5 -359h437q30 193 30 317q0 285 -153 285zM639 1432q155 0 237 -121.5t82 -348.5q0 -129 -29 -292q-121 -690 -529 -690q-149 0 -224.5 117 t-75.5 336q0 147 31 317q120 682 508 682z"/>
<glyph glyph-name="iota" horiz-adv-x="569" unicode="ι" d="M298 174q0 -45 18.5 -67.5t47.5 -22.5q60 0 124 30l21 -47q-47 -36 -101.5 -61.5t-123.5 -25.5q-71 0 -111.5 48t-40.5 134q0 30 5.5 70.5t112.5 637.5l-129 25l8 45h299l-112 -633q-18 -93 -18 -133z"/>
<glyph glyph-name="kappa" horiz-adv-x="983" unicode="κ" d="M321 453l505 487h179l-8 -45l-101 -23l-319 -287l235 -517l111 -23l-8 -45h-250l-206 467l-155 -109l-63 -358h-166l153 871l-115 24l8 45h285z"/>
<glyph glyph-name="lambda" horiz-adv-x="887" unicode="λ" d="M349 1348q-35 0 -66 -12l-48 -83h-49l21 168q79 21 150 21q68 0 110.5 -26t68.5 -83.5t45 -180.5l157 -1005q13 -75 98 -102l-8 -45h-196l-97 736q-19 -44 -58 -115.5t-61 -111.5l-293 -509h-173l8 43l551 909l-25 172q-17 122 -49 173t-86 51z"/>
<glyph glyph-name="mu" horiz-adv-x="1028" unicode="μ" d="M241 940h164l-96 -556q-25 -133 -25 -174q0 -47 32 -80t85 -33q62 0 131.5 26t130.5 68l131 749h166l-153 -870l118 -25l-8 -45h-278l18 134q-96 -93 -153.5 -123t-127.5 -30q-75 0 -131 43l-81 -462h-166z"/>
<glyph glyph-name="nu" horiz-adv-x="909" unicode="ν" d="M751 807q0 37 -21 59t-45 29l8 45h190q26 -23 26 -63q0 -88 -83 -220l-423 -677h-73l-189 890l-113 25l9 45h256l145 -732l249 406q64 104 64 193z"/>
<glyph glyph-name="xi" horiz-adv-x="877" unicode="ξ" d="M780 -62q0 -103 -74 -175t-236 -124l-22 55q183 70 183 184q0 51 -47.5 77.5t-138.5 44.5q-192 38 -283.5 119.5t-91.5 222.5q0 165 114 271.5t339 144.5l2 7q-106 31 -159.5 94.5t-53.5 152.5q0 122 112 214t312 123l1 3l-440 -31l17 100h314q98 0 149 1.5t99 8.5 l-7 -102q-103 -20 -152 -37t-94 -41.5t-77.5 -57.5t-52 -78.5t-19.5 -102.5q0 -84 39 -141t107 -69q99 11 153 11h32l-19 -106h-32l-153 13q-177 -46 -258.5 -129t-81.5 -219q0 -67 28 -110t81 -72t194 -62q216 -52 216 -190z"/>
<glyph glyph-name="omicron" d="M427 -20q-166 0 -266 106.5t-100 287.5q0 161 69 298t191.5 215t275.5 78q166 0 266 -106.5t100 -287.5q0 -161 -69 -298t-191.5 -215t-275.5 -78zM237 340q0 -135 52.5 -206.5t146.5 -71.5q91 0 173.5 73t130.5 199.5t48 271.5q0 138 -52.5 209.5t-150.5 71.5 q-91 0 -172.5 -73t-128.5 -199.5t-47 -274.5z" unicode="ο"/>
<glyph glyph-name="pi" horiz-adv-x="1026" unicode="π" d="M757 174q0 -45 18 -67.5t47 -22.5q60 0 124 30l21 -47q-47 -36 -101.5 -61.5t-123.5 -25.5q-71 0 -111.5 48t-40.5 134q0 46 16 137l98 557h-286l-110 -453q-61 -253 -114 -403h-183l8 45q78 67 114 135t72 209l117 467h-134l-70 -128h-57l58 212h954l-15 -84h-188 l-96 -549q-17 -85 -17 -133z"/>
<glyph glyph-name="rho" horiz-adv-x="983" unicode="ρ" d="M425 60q148 0 235 142t87 359q0 140 -56 219.5t-154 79.5q-194 0 -245 -285l-83 -467q113 -48 216 -48zM428 -20q-122 0 -234 42l-81 -458h-165l176 997q33 195 142 297.5t276 102.5q171 0 275 -110t104 -301q0 -167 -61 -297.5t-174 -201.5t-258 -71z"/>
<glyph glyph-name="sigma1" horiz-adv-x="831" unicode="ς" d="M251 348q0 -55 24 -93.5t73 -65.5t152 -53q104 -26 156.5 -71.5t52.5 -117.5q0 -103 -74 -175t-236 -124l-22 55q183 70 183 184q0 51 -46 80t-137 47q-167 34 -241.5 110.5t-74.5 195.5q0 152 75.5 301t205 246.5t255.5 97.5q111 0 242 -37l-37 -208h-55l-20 129 q-50 43 -141 43q-79 0 -159 -79.5t-128 -204t-48 -260.5z"/>
<glyph glyph-name="sigma" horiz-adv-x="1010" unicode="σ" d="M802 856l-1 -7q111 -145 111 -326q0 -154 -61 -279t-172 -194.5t-247 -69.5q-171 0 -271 107.5t-100 289.5q0 265 150 414t421 149h310l76 116h57l-52 -200h-221zM438 59q85 0 152 65.5t106 187.5t39 255q0 168 -51 289q-210 0 -329 -128t-119 -360q0 -147 53 -228 t149 -81z"/>
<glyph glyph-name="tau" horiz-adv-x="733" unicode="τ" d="M394 174q0 -90 66 -90q49 0 123 36l25 -46q-48 -40 -102 -67t-125 -27q-72 0 -112.5 48t-40.5 134q0 29 5.5 68.5t109.5 625.5h-171l-70 -128h-57l58 212h692l-15 -84h-271l-97 -549q-18 -95 -18 -133z"/>
<glyph glyph-name="upsilon" horiz-adv-x="940" unicode="υ" d="M405 -20q-147 0 -230.5 90t-83.5 238q0 83 19 183l78 379l-77 25l8 45h247l-100 -510q-17 -85 -17 -151q0 -100 46 -156.5t128 -56.5q291 0 291 533q0 109 -21 197t-58 112l30 56q97 -28 155 -127t58 -242q0 -279 -127 -447t-346 -168z"/>
<glyph glyph-name="phi" horiz-adv-x="1133" unicode="φ" d="M796 885q-55 0 -89 -52t-53 -163l-108 -610q167 11 260.5 170.5t93.5 435.5q0 112 -28.5 165.5t-75.5 53.5zM809 966q130 0 199 -87.5t69 -248.5q0 -302 -137 -466t-407 -181l-74 -419h-106l74 420q-175 14 -270.5 112.5t-95.5 278.5q0 159 53 284t149.5 201.5 t220.5 93.5l18 -63q-81 -29 -138 -101t-90 -189.5t-33 -249.5q0 -256 199 -293l108 612q27 153 90.5 224.5t170.5 71.5z"/>
<glyph glyph-name="chi" horiz-adv-x="901" unicode="χ" d="M355 327l-145 480q-10 33 -37 55t-84 33l8 45h183q19 -14 39 -86l109 -419q204 305 324 505h191l-7 -39q-123 -165 -453 -643l167 -561q14 -47 36 -65t55 -23l-8 -45h-153q-20 18 -46 118l-125 470q-61 -88 -188 -281.5t-196 -306.5h-189l6 33q29 40 68 95t83.5 118 t92 131l95 136t92 132t82.5 118z"/>
<glyph glyph-name="psi" horiz-adv-x="1272" unicode="ψ" d="M527 -436h-106l74 418q-173 0 -273 79.5t-100 221.5q0 63 14 152l73 435l-77 25l8 45h247l-93 -548q-13 -78 -13 -126q0 -89 63.5 -147.5t164.5 -58.5l207 1172h106l-207 -1172q131 3 216 78t111 221l103 581h256l-8 -45l-95 -25l-91 -515q-66 -369 -506 -372z"/>
<glyph glyph-name="uni03D1" horiz-adv-x="1005" unicode="ϑ" d="M909 1221q0 124 -83 124q-44 0 -84.5 -35.5t-64.5 -97t-24 -134.5q0 -69 39 -103.5t130 -34.5h51q29 169 32.5 204t3.5 77zM558 1066q0 99 41 181.5t113 128t155 45.5q99 0 150.5 -55t51.5 -163q0 -52 -5 -96t-25 -167h56l-15 -84h-56l-66 -376q-44 -253 -178.5 -376.5 t-374.5 -123.5q-147 0 -230.5 90t-83.5 238q0 94 19 183l78 379l-77 25l8 45h247l-100 -510q-17 -85 -17 -151q0 -100 46 -156.5t128 -56.5q165 0 245.5 86t119.5 309l70 395h-49q-121 0 -186 54.5t-65 155.5z"/>
<glyph glyph-name="uni03D2" horiz-adv-x="1303" unicode="ϒ" d="M1284 1356q105 0 177 -39l-39 -261h-59l-27 111q-13 51 -35 75.5t-71 24.5q-60 0 -134.5 -51.5t-147.5 -156.5t-136.5 -265t-102.5 -377l-60 -337l208 -27l-9 -53h-619l9 53l218 27l75 426q19 114 19 211q0 164 -55 295.5t-154.5 203.5t-223.5 72l9 53q274 0 432 -153 t158 -429l-2 -41l-5 -43q52 195 145 352t205.5 243t224.5 86z"/>
<glyph glyph-name="uni03D6" horiz-adv-x="1446" unicode="ϖ" d="M248 332q0 -250 155 -250q70 0 138 57t108 157q0 200 10 260l9 52h166l-9 -52q-13 -79 -84 -260q0 -93 44.5 -151t118.5 -58q130 0 201.5 126t71.5 326q0 214 -138 317h-520q-89 -49 -149 -127.5t-91 -186.5t-31 -210zM1437 940l-15 -84h-202q136 -123 136 -336 q0 -245 -118.5 -392.5t-320.5 -147.5q-93 0 -154 47.5t-84 140.5h-7q-60 -104 -132.5 -146t-170.5 -42q-146 0 -223.5 97t-77.5 268q0 165 64 296.5t189 214.5h-142l-71 -128h-57l59 212h1327z"/>
<glyph glyph-name="uni2002" unicode=" "/>
<glyph glyph-name="uni2003" horiz-adv-x="2048" unicode=" "/>
<glyph glyph-name="uni200C" horiz-adv-x="0" unicode="‌" d="M42 1287v-1560h-84v1560h84z"/>
<glyph glyph-name="uni200D" horiz-adv-x="0" unicode="‍" d="M42 -273h-84v1369l-127 -128l-55 55l169 168l-169 167l55 56l169 -170l169 170l55 -56l-169 -167l169 -168l-55 -55l-127 128v-1369z"/>
<glyph glyph-name="uni200E" horiz-adv-x="0" unicode="‎" d="M435 1193l-223 -219l-55 55l132 125h-248v-1427h-82v1506h330l-132 125l55 56z"/>
<glyph glyph-name="endash" d="M1038 528v-102h-1052v102h1052z" unicode="–"/>
<glyph glyph-name="emdash" horiz-adv-x="1821" unicode="—" d="M1831 528v-102h-1845v102h1845z"/>
<glyph glyph-name="quoteleft" horiz-adv-x="682" unicode="‘" d="M302 1005q0 131 83 222.5t232 134.5v-77q-186 -59 -186 -168q0 -28 19.5 -42t43 -28.5t43 -36t19.5 -63.5q0 -54 -34 -82.5t-87 -28.5q-61 0 -97 45t-36 124z"/>
<glyph glyph-name="quotesinglbase" horiz-adv-x="682" unicode="‚" d="M483 42q0 -131 -83 -222.5t-232 -134.5v77q186 59 186 168q0 28 -19.5 42t-43 28.5t-43 36t-19.5 63.5q0 54 34 82.5t87 28.5q61 0 97 -45t36 -124z"/>
<glyph glyph-name="quotedblleft" horiz-adv-x="1139" unicode="“" d="M300 1005q0 131 83 222.5t232 134.5v-77q-186 -59 -186 -168q0 -28 19.5 -42t43 -28.5t43 -36t19.5 -63.5q0 -54 -34 -82.5t-87 -28.5q-61 0 -97 45t-36 124zM713 1005q0 131 83 222.5t232 134.5v-77q-186 -59 -186 -168q0 -28 19.5 -42t43 -28.5t43 -36t19.5 -63.5 q0 -54 -34 -82.5t-87 -28.5q-61 0 -97 45t-36 124z"/>
<glyph glyph-name="quotedblright" horiz-adv-x="1139" unicode="”" d="M1033 1193q0 -131 -83 -222.5t-232 -134.5v77q186 59 186 168q0 28 -19.5 42t-43 28.5t-43 36t-19.5 63.5q0 54 34 82.5t87 28.5q61 0 97 -45t36 -124zM620 1193q0 -131 -83 -222.5t-232 -134.5v77q186 59 186 168q0 28 -19.5 42t-43 28.5t-43 36t-19.5 63.5 q0 54 34 82.5t87 28.5q61 0 97 -45t36 -124z"/>
<glyph glyph-name="dagger" d="M664 780l-257 -1020h-46l107 1020l91 160l-424 -47l27 156l409 -43l30 415h156l-120 -415l423 43l-27 -156l-408 47z" unicode="†"/>
<glyph glyph-name="daggerdbl" d="M402 401l106 189l-39 190l91 160l-424 -47l27 156l409 -43l30 415h156l-120 -415l423 43l-27 -156l-408 47l39 -160l-111 -190l44 -189l-95 -159l424 47l-27 -156l-409 43l-26 -416h-156l116 416l-422 -43l26 156l408 -47z" unicode="‡"/>
<glyph glyph-name="ellipsis" horiz-adv-x="1821" unicode="…" d="M1682 92q0 -49 -34.5 -85t-86.5 -36t-86.5 36t-34.5 85q0 51 35 86t86 35t86 -35t35 -86zM996 92q0 -49 -34.5 -85t-86.5 -36t-86.5 36t-34.5 85q0 51 35 86t86 35t86 -35t35 -86zM310 92q0 -49 -34.5 -85t-86.5 -36t-86.5 36t-34.5 85q0 51 35 86t86 35t86 -35t35 -86z "/>
<glyph glyph-name="perthousand" horiz-adv-x="2048" unicode="‰" d="M1825 452q0 73 -24.5 108t-80.5 35q-71 0 -112.5 -47t-65.5 -158t-24 -197q0 -74 26.5 -111.5t89.5 -37.5t101.5 48.5t64 158.5t25.5 201zM1619 -29q-253 0 -253 247q0 122 43 233.5t125.5 164.5t206.5 53q237 0 237 -237q0 -84 -24.5 -179.5t-70 -158t-112 -93 t-152.5 -30.5zM1129 452q0 73 -24.5 108t-80.5 35q-71 0 -112.5 -47t-65.5 -158t-24 -197q0 -74 26.5 -111.5t89.5 -37.5t101.5 48.5t64 158.5t25.5 201zM923 -29q-253 0 -253 247q0 122 43 233.5t125.5 164.5t206.5 53q237 0 237 -237q0 -84 -24.5 -179.5t-70 -158 t-112 -93t-152.5 -30.5zM171 -20h-112l1192 1382h112zM582 1145q0 73 -24.5 108t-80.5 35q-71 0 -112.5 -47t-65.5 -158t-24 -197q0 -74 26.5 -111.5t89.5 -37.5t101.5 48.5t64 158.5t25.5 201zM376 664q-253 0 -253 247q0 122 43 233.5t125.5 164.5t206.5 53 q237 0 237 -237q0 -84 -24.5 -179.5t-70 -158t-112 -93t-152.5 -30.5z"/>
<glyph glyph-name="minute" horiz-adv-x="448" unicode="′" d="M276 1341h197l-172 -481h-74z"/>
<glyph glyph-name="second" horiz-adv-x="853" unicode="″" d="M290 1341h197l-172 -481h-74zM675 1341h197l-172 -481h-74z"/>
<glyph glyph-name="guilsinglleft" horiz-adv-x="682" unicode="‹" d="M539 852h61l-320 -395l183 -383h-61l-291 356l11 66z"/>
<glyph glyph-name="guilsinglright" horiz-adv-x="682" unicode="›" d="M143 74h-61l322 396l-185 382h61l292 -356l-11 -66z"/>
<glyph glyph-name="uni203E" horiz-adv-x="682" unicode="‾" d="M742 1540h-802v80h802v-80z"/>
<glyph glyph-name="fraction" horiz-adv-x="342" unicode="⁄" d="M-260 0h-102l964 1341h100z"/>
<glyph glyph-name="fraction" horiz-adv-x="342" unicode="∕" d="M-260 0h-102l964 1341h100z"/>
<glyph glyph-name="foursuperior" horiz-adv-x="614" unicode="⁴" d="M468 1176h-2l-344 -379h279zM524 694l-28 -159h-142l28 159h-365l18 97l497 550h107l-96 -544h121l-19 -103h-121z"/>
<glyph glyph-name="Euro" d="M194 829q78 269 229 398t362 129q74 0 147 -10.5t172 -40.5l-41 -252h-68l4 133q-38 43 -92.5 66.5t-114.5 23.5q-143 0 -237 -109.5t-154 -337.5h350l-14 -81h-355q-19 -78 -30 -164h356l-15 -82h-350l-4 -101q0 -174 63.5 -259t176.5 -85q82 0 148 30t107 71l53 159h67 l-53 -274q-161 -63 -344 -63q-201 0 -312 123.5t-111 342.5l2 56h-112l15 82h105q10 89 30 164h-106l14 81h112z" unicode="€"/>
<glyph glyph-name="trademark" horiz-adv-x="2007" unicode="™" d="M1410 537h-28l-285 669v-610l109 -16v-43h-285v43l104 16v688l-104 16v41h270l244 -583l264 583h254v-41l-102 -16v-688l102 -16v-43h-348v43l108 16v608zM284 537v43l127 16v684h-31q-146 0 -196 -12l-17 -125h-41v198h709v-198h-41l-16 125q-44 10 -201 10h-29v-682 l127 -16v-43h-391z"/>
<glyph glyph-name="arrowleft" horiz-adv-x="2048" unicode="←" d="M641 297q57 -67 119 -197h-72q-127 149 -270 222v36q143 73 270 222h72q-62 -130 -119 -197h989v-86h-989z"/>
<glyph glyph-name="arrowup" d="M469 928q-67 -57 -197 -119v72q149 127 222 270h36q73 -143 222 -270v-72q-130 62 -197 119v-989h-86v989z" unicode="↑"/>
<glyph glyph-name="arrowright" horiz-adv-x="2048" unicode="→" d="M1407 383q-57 67 -119 197h72q127 -149 270 -222v-36q-143 -73 -270 -222h-72q62 130 119 197h-989v86h989z"/>
<glyph glyph-name="arrowdown" d="M555 162q67 57 197 119v-72q-149 -127 -222 -270h-36q-73 143 -222 270v72q130 -62 197 -119v989h86v-989z" unicode="↓"/>
<glyph glyph-name="partialdiff" horiz-adv-x="1012" unicode="∂" d="M813 643q-18 92 -78.5 152.5t-138.5 60.5q-91 0 -166 -69t-123.5 -206t-48.5 -276q0 -124 52 -193t141 -69q81 0 154.5 70.5t129.5 211.5t78 318zM928 938q0 -170 -36 -359t-107.5 -326.5t-172 -208.5t-224.5 -71q-152 0 -236 93.5t-84 265.5q0 155 70 306t180 226.5 t246 75.5q93 0 164.5 -49.5t105.5 -132.5h4l4 116q0 227 -74.5 348t-216.5 121q-107 0 -228 -84l-36 33l105 150q79 35 157 35q183 0 281 -138.5t98 -400.5z"/>
<glyph glyph-name="product" horiz-adv-x="1686" unicode="∏" d="M114 -436v53l172 27v1618l-172 26v53h1460v-53l-172 -26v-1618l172 -27v-53h-536v53l172 27v1607h-731v-1607l172 -27v-53h-537z"/>
<glyph glyph-name="summation" horiz-adv-x="1460" unicode="∑" d="M831 587v-39l-557 -814h445q41 0 89.5 0.5t98 1.5t97 3t86 3.5t66.5 3.5t38 4l57 228h66l-19 -414h-1206v74l578 843l-533 781v79h1105v-351h-66l-42 247q-115 14 -352 14h-404z"/>
<glyph glyph-name="minus" horiz-adv-x="1382" unicode="−" d="M1186 731v-102h-953v102h953z"/>
<glyph glyph-name="periodcentered" horiz-adv-x="512" unicode="∙" d="M407 678q0 -51 -35 -86t-86 -35t-86 35t-35 86q0 49 34.5 85t86.5 36t86.5 -36t34.5 -85z"/>
<glyph glyph-name="radical" horiz-adv-x="1124" unicode="√" d="M623 -14h-107l-297 829h-168v80h271l258 -737l452 1462h90z"/>
<glyph glyph-name="infinity" horiz-adv-x="1460" unicode="∞" d="M645 596q-59 140 -128.5 211.5t-162.5 71.5q-96 0 -158.5 -80t-62.5 -205q0 -126 60.5 -203.5t164.5 -77.5q84 0 154 70.5t133 212.5zM1099 872q-83 0 -152.5 -70t-135.5 -212q62 -141 131.5 -212t158.5 -71q99 0 162.5 79.5t63.5 205.5q0 122 -64 201t-164 79zM1402 590 q0 -166 -93 -276.5t-232 -110.5q-214 0 -361 264q-66 -127 -150.5 -192.5t-180.5 -65.5q-145 0 -236.5 105.5t-91.5 281.5q0 168 91.5 277.5t236.5 109.5q111 0 203 -66t155 -192q66 125 147 188.5t189 63.5q145 0 234 -106t89 -281z"/>
<glyph glyph-name="intersection" horiz-adv-x="1479" unicode="∩" d="M282 -2v512q0 150 58 269.5t162.5 186t234.5 66.5q131 0 236.5 -66t165 -187t59.5 -269v-512h-103v514q0 190 -98 304t-258 114q-162 0 -258 -113t-96 -307v-512h-103z"/>
<glyph glyph-name="approxequal" horiz-adv-x="1124" unicode="≈" d="M811 301q-106 0 -245 121q-74 63 -122.5 91.5t-86.5 28.5q-77 0 -116 -54.5t-52 -186.5h-101q18 187 84.5 265.5t184.5 78.5q55 0 115 -29t135 -92q86 -72 127.5 -96.5t76.5 -24.5q69 0 108 52.5t58 189.5h103q-17 -130 -49 -199t-85 -107t-135 -38zM811 711 q-106 0 -245 121q-74 63 -122.5 91.5t-86.5 28.5q-77 0 -116 -54.5t-52 -186.5h-101q18 187 84.5 265.5t184.5 78.5q55 0 115 -29t135 -92q86 -72 127.5 -96.5t76.5 -24.5q69 0 108 52.5t58 189.5h103q-17 -130 -49 -199t-85 -107t-135 -38z"/>
<glyph glyph-name="notequal" horiz-adv-x="1124" unicode="≠" d="M826 936h236v-102h-307l-215 -308h522v-102h-594l-198 -284h-123l198 284h-236v102h307l215 308h-522v102h593l198 284h125z"/>
<glyph glyph-name="equivalence" horiz-adv-x="1382" unicode="≡" d="M1186 731v-102h-953v102h953zM1186 1026v-102h-953v102h953zM1186 436v-102h-953v102h953z"/>
<glyph glyph-name="lessequal" horiz-adv-x="1124" unicode="≤" d="M1050 102v-102h-953v102h953zM97 655v50l953 469v-103l-809 -391l809 -391v-103z"/>
<glyph glyph-name="greaterequal" horiz-adv-x="1124" unicode="≥" d="M1050 102v-102h-953v102h953zM99 186v103l809 391l-809 391v103l953 -469v-50z"/>
<glyph glyph-name="lozenge" horiz-adv-x="1012" unicode="◊" d="M508 1286l-354 -565l354 -574l352 574zM547 0h-82l-457 719l457 721h82l459 -719z"/>
<glyph glyph-name="spade" horiz-adv-x="1088" unicode="♠" d="M544 1231q25 -96 73 -180.5t199 -223.5q141 -126 176 -192t37 -137q0 -96 -65 -160t-152 -64q-157 0 -256 191q3 -159 42.5 -242t121 -130t213.5 -56l8 -37h-792l6 37q124 0 210 48.5t129.5 134.5t43.5 231v14q-90 -191 -260 -191q-89 0 -154 64t-65 156q0 89 44.5 157 t143.5 150q139 119 205 212t92 218z"/>
<glyph glyph-name="club" horiz-adv-x="1344" unicode="♣" d="M1094 0h-842l8 35q135 27 194.5 54t107 87t74 134.5t26.5 150.5l-2 47q-57 -120 -146 -179t-178 -59q-77 0 -141.5 38t-99.5 101t-35 140q0 115 73 194t166 80q62 0 162 -51q-38 65 -55 105q-11 37 -11 75q0 121 81 196t194 75q116 0 196 -80t80 -187q0 -86 -69 -184 q84 40 100 43q22 8 61 8q105 0 173 -78q73 -76 73 -192t-78 -198.5t-194 -82.5q-56 0 -115 24.5t-106.5 65.5t-108.5 146q5 -126 29.5 -202.5t79 -136.5t118 -86.5t177.5 -47.5z"/>
<glyph glyph-name="heart" horiz-adv-x="1216" unicode="♥" d="M610 -23q-22 86 -67.5 177t-221.5 327l-90 123q-75 100 -102 164.5t-27 130.5q0 107 69.5 175.5t170.5 68.5q87 0 158.5 -57t109.5 -177q34 119 105 177.5t159 58.5q97 0 168.5 -68t71.5 -166q0 -86 -44 -181t-155 -232q-140 -179 -204.5 -285.5t-100.5 -235.5z"/>
<glyph glyph-name="diamond" horiz-adv-x="1045" unicode="♦" d="M519 1223q72 -125 204.5 -305.5t254.5 -317.5q-68 -70 -221 -273.5t-236 -351.5q-37 71 -129.5 201.5t-166.5 226t-159 197.5q116 137 245.5 309.5t207.5 313.5z"/>
</font>
</defs>
</svg>
