<?xml version="1.0" encoding="UTF-8" standalone="no"?>
<!DOCTYPE svg  PUBLIC '-//W3C//DTD SVG 1.1//EN'  'http://www.w3.org/Graphics/SVG/1.1/DTD/svg11.dtd'>
<svg xmlns="http://www.w3.org/2000/svg">
<defs>
<font id="Tinos-Regular" horiz-adv-x="1024">
<font-face underline-position="-173" font-weight="400" descent="-410" panose-1="2 2 6 3 5 4 5 2 3 4" units-per-em="2048" unicode-range="U+0020-2666" bbox="-362 -442 2062 1759" x-height="940" underline-thickness="100" font-family="Tinos" ascent="1638" cap-height="1341"/>
<missing-glyph horiz-adv-x="2048"/>
<glyph glyph-name=".notdef" horiz-adv-x="2048"/>
<glyph glyph-name=".null" horiz-adv-x="0"/>
<glyph glyph-name="nonmarkingreturn" horiz-adv-x="2048"/>
<glyph glyph-name="space" horiz-adv-x="512" unicode=" "/>
<glyph glyph-name="space" horiz-adv-x="512" unicode=" "/>
<glyph glyph-name="exclam" horiz-adv-x="682" unicode="!" d="M231 1341h218l-62 -952h-94zM461 92q0 -49 -34.5 -85t-86.5 -36t-86.5 36t-34.5 85q0 51 35 86t86 35t86 -35t35 -86z"/>
<glyph glyph-name="quotedbl" horiz-adv-x="836" unicode='&quot;' d="M127 1341h197l-62 -481h-74zM512 1341h197l-62 -481h-74z"/>
<glyph glyph-name="numbersign" d="M334 524h309l57 307h-309zM987 524v-102h-260l-78 -422h-104l78 422h-310l-77 -422h-105l78 422h-172v102h192l58 307h-250v103h268l76 407h104l-75 -407h309l76 407h104l-76 -407h164v-103h-182l-57 -307h239z" unicode="#"/>
<glyph glyph-name="dollar" d="M274 1067q0 -59 19.5 -100.5t56.5 -72t131 -69.5v443q-100 -13 -153.5 -66t-53.5 -135zM791 330q0 94 -48.5 155t-179.5 111v-530q110 17 169 83t59 181zM481 -20q-107 2 -222.5 24t-170.5 47v320h66l34 -191q31 -41 117.5 -77.5t175.5 -41.5v566q-119 41 -167 64.5 t-86 52.5t-65.5 68t-42 89.5t-14.5 112.5q0 144 102.5 235t272.5 105v129h82v-127q153 -6 307 -43v-279h-65l-29 164q-30 28 -90.5 49t-122.5 25v-477l95 -34q165 -61 234 -150.5t69 -223.5q0 -175 -107.5 -282.5t-290.5 -120.5v-140h-82v136z" unicode="$"/>
<glyph glyph-name="percent" horiz-adv-x="1706" unicode="%" d="M1481 346q0 152 -41.5 222.5t-132.5 70.5q-87 0 -126.5 -66.5t-39.5 -226.5q0 -164 40 -231.5t126 -67.5q90 0 132 71.5t42 227.5zM1636 346q0 -373 -329 -373q-161 0 -241.5 95t-80.5 278q0 178 81 272.5t247 94.5q159 0 241 -92t82 -275zM565 995q0 152 -41.5 222.5 t-132.5 70.5q-87 0 -126.5 -66.5t-39.5 -226.5q0 -164 40 -231.5t126 -67.5q90 0 132 71.5t42 227.5zM721 995q0 -372 -330 -372q-161 0 -241 95t-80 277q0 367 327 367q159 0 241.5 -92t82.5 -275zM440 -20h-110l948 1382h111z"/>
<glyph glyph-name="ampersand" horiz-adv-x="1593" unicode="&amp;" d="M434 1090q0 -163 154 -279q97 36 139.5 70.5t64 84.5t21.5 124q0 192 -182 192q-105 0 -151 -48t-46 -144zM602 66q217 0 370 153l-499 457q-105 -45 -152 -122t-47 -187q0 -145 84.5 -223t243.5 -78zM989 1083q0 -78 -33.5 -135t-94.5 -100.5t-204 -99.5l422 -384 q97 198 103 363l-142 27v53h457v-53l-139 -27q-76 -265 -195 -441l228 -208l165 -25v-53h-344l-171 155q-104 -93 -217.5 -134t-248.5 -41q-248 0 -372.5 96.5t-124.5 279.5q0 97 36 167t98 119.5t196 100.5q-151 146 -151 327q0 143 96 217.5t278 74.5q174 0 266 -71 t92 -208z"/>
<glyph glyph-name="quotesingle" horiz-adv-x="369" unicode="&apos;" d="M86 1341h197l-62 -481h-74z"/>
<glyph glyph-name="parenleft" horiz-adv-x="682" unicode="(" d="M283 494q0 -260 35 -414.5t110 -260.5t188 -171v-84q-198 105 -309.5 229.5t-164 293t-52.5 407.5q0 238 52 405.5t163 291.5t311 230v-84q-122 -70 -194 -179.5t-105.5 -255.5t-33.5 -408z"/>
<glyph glyph-name="parenright" horiz-adv-x="682" unicode=")" d="M66 -436v84q113 65 188 171.5t110 261t35 413.5q0 262 -33.5 408t-105.5 255.5t-194 179.5v84q200 -107 311 -230.5t163 -291t52 -405.5t-52 -406.5t-163 -292.5t-311 -231z"/>
<glyph glyph-name="asterisk" d="M100 1065l64 143l315 -194l-43 327h156l-47 -327l317 190l64 -141l-332 -98l332 -97l-64 -141l-317 188l47 -325h-156l43 328l-315 -195l-64 143l328 99z" unicode="*"/>
<glyph glyph-name="plus" horiz-adv-x="1155" unicode="+" d="M629 629v-426h-103v426h-424v102h424v426h103v-426h426v-102h-426z"/>
<glyph glyph-name="comma" horiz-adv-x="512" unicode="," d="M383 49q0 -137 -79.5 -229.5t-225.5 -134.5v77q176 56 176 168q0 20 -15 36t-52 35q-68 35 -68 99q0 54 34 82.5t87 28.5q64 0 103.5 -46t39.5 -116z"/>
<glyph glyph-name="hyphen" horiz-adv-x="682" unicode="-" d="M76 406v153h532v-153h-532z"/>
<glyph glyph-name="hyphen" horiz-adv-x="682" unicode="­" d="M76 406v153h532v-153h-532z"/>
<glyph glyph-name="period" horiz-adv-x="512" unicode="." d="M377 92q0 -49 -34.5 -85t-86.5 -36t-86.5 36t-34.5 85q0 51 35 86t86 35t86 -35t35 -86z"/>
<glyph glyph-name="slash" horiz-adv-x="569" unicode="/" d="M100 -20h-100l471 1370h98z"/>
<glyph glyph-name="zero" d="M762 676q0 322 -61 464t-195 142q-130 0 -187 -134t-57 -472q0 -340 58 -478.5t186 -138.5q132 0 194 145.5t62 471.5zM946 676q0 -696 -440 -696q-212 0 -320 178t-108 518q0 333 108 509.5t328 176.5q212 0 322 -174.5t110 -511.5z" unicode="0"/>
<glyph glyph-name="one" d="M627 80l274 -27v-53h-721v53l275 27v1094l-271 -97v53l391 222h52v-1272z" unicode="1"/>
<glyph glyph-name="two" d="M911 0h-821v147l186 169q179 157 263 254t120.5 200t36.5 236q0 130 -59 198t-193 68q-53 0 -109 -14.5t-99 -38.5l-35 -164h-66v258q182 43 309 43q220 0 330.5 -91.5t110.5 -258.5q0 -112 -43.5 -211.5t-133.5 -198t-298 -275.5q-89 -76 -189 -167h690v-154z" unicode="2"/>
<glyph glyph-name="three" d="M944 365q0 -181 -124 -283t-351 -102q-190 0 -360 43l-11 282h66l45 -188q39 -22 110.5 -38t133.5 -16q157 0 232 72t75 240q0 132 -69 200.5t-214 75.5l-143 8v82l143 9q113 6 167 70t54 194q0 135 -58.5 196.5t-186.5 61.5q-53 0 -111 -14.5t-102 -38.5l-35 -164h-66 v258q99 26 171 34.5t143 8.5q430 0 430 -330q0 -139 -76.5 -221.5t-216.5 -102.5q182 -21 268 -104.5t86 -232.5z" unicode="3"/>
<glyph glyph-name="four" d="M638 1113h-5l-480 -675h485v675zM810 295v-295h-172v295h-598v133l655 920h115v-910h182v-143h-182z" unicode="4"/>
<glyph glyph-name="five" d="M485 784q232 0 345.5 -95t113.5 -290q0 -202 -123 -310.5t-352 -108.5q-190 0 -339 43l-11 282h66l45 -188q44 -24 105.5 -39t117.5 -15q158 0 232.5 74.5t74.5 251.5q0 124 -32 187.5t-102 93.5t-188 30q-91 0 -178 -24h-96v665h680v-153h-590v-428q108 24 231 24z" unicode="5"/>
<glyph glyph-name="six" d="M549 59q121 0 175 78.5t54 259.5q0 164 -51.5 237t-163.5 73q-137 0 -291 -50q0 -305 69 -451.5t208 -146.5zM963 416q0 -209 -105.5 -322.5t-304.5 -113.5q-226 0 -345.5 176t-119.5 506q0 216 63 373t176.5 239t262.5 82q146 0 291 -35v-231h-66l-35 137 q-33 18 -89 31.5t-101 13.5q-146 0 -227.5 -141.5t-89.5 -413.5q163 86 327 86q177 0 270 -99.5t93 -287.5z" unicode="6"/>
<glyph glyph-name="seven" d="M201 1024h-66v317h830v-77l-598 -1264h-129l587 1188h-589z" unicode="7"/>
<glyph glyph-name="eight" d="M725 1014q0 138 -54 203t-163 65q-106 0 -157.5 -63t-51.5 -205q0 -139 50 -199.5t159 -60.5q112 0 164.5 61.5t52.5 198.5zM766 362q0 160 -62.5 232t-197.5 72q-132 0 -190 -68.5t-58 -235.5q0 -169 59 -236t189 -67q133 0 196.5 69.5t63.5 233.5zM905 1014 q0 -110 -53.5 -186.5t-144.5 -116.5q114 -42 176.5 -131.5t62.5 -217.5q0 -190 -107 -286t-333 -96q-428 0 -428 382q0 133 64 220.5t173 128.5q-87 40 -141.5 116t-54.5 187q0 166 101.5 257t293.5 91q186 0 288.5 -90.5t102.5 -257.5z" unicode="8"/>
<glyph glyph-name="nine" d="M500 1276q-250 0 -250 -348q0 -153 60 -226t186 -73q129 0 260 53q0 307 -60.5 450.5t-195.5 143.5zM66 932q0 202 113 313t319 111q229 0 335.5 -165t106.5 -517q0 -337 -137 -515.5t-385 -178.5q-163 0 -299 34v232h65l35 -144q32 -15 86 -27t109 -12q160 0 246 140.5 t95 413.5q-152 -85 -309 -85q-177 0 -278.5 105.5t-101.5 294.5z" unicode="9"/>
<glyph glyph-name="colon" horiz-adv-x="569" unicode=":" d="M403 840q0 -51 -35 -86t-85 -35q-51 0 -86 35t-35 86q0 49 34.5 85t86.5 36q51 0 85.5 -36t34.5 -85zM403 92q0 -49 -34.5 -85t-85.5 -36q-52 0 -86.5 36t-34.5 85q0 51 35 86t86 35q50 0 85 -34.5t35 -86.5z"/>
<glyph glyph-name="less" horiz-adv-x="1155" unicode="&lt;" d="M102 655v50l953 469v-103l-809 -391l809 -391v-103z"/>
<glyph glyph-name="equal" horiz-adv-x="1155" unicode="=" d="M1055 936v-102h-953v102h953zM1055 526v-102h-953v102h953z"/>
<glyph glyph-name="greater" horiz-adv-x="1155" unicode="&gt;" d="M104 186v103l809 391l-809 391v103l953 -469v-50z"/>
<glyph glyph-name="question" horiz-adv-x="909" unicode="?" d="M530 92q0 -49 -34.5 -85t-85.5 -36q-52 0 -86.5 36t-34.5 85q0 51 35 86t86 35q50 0 85 -34.5t35 -86.5zM440 350h-80l-26 334l143 29q86 17 125 87t39 204q0 147 -53 207.5t-187 60.5q-112 0 -194 -49l-35 -164h-66v254q158 43 295 43q424 0 424 -340q0 -163 -80.5 -262 t-234.5 -131l-57 -13z"/>
<glyph glyph-name="at" horiz-adv-x="1886" unicode="@" d="M1139 807l-49 4q-130 0 -217.5 -44.5t-140 -176.5t-52.5 -281t80 -149q56 0 129.5 31t134.5 83zM1458 -184q-141 -110 -284.5 -157.5t-309.5 -47.5q-225 0 -396.5 94.5t-265 266.5t-93.5 390q0 284 125.5 514t347 359t491.5 129q336 0 520.5 -161t184.5 -451 q0 -190 -97 -357.5t-262 -268.5t-344 -101q-65 0 -65 51q0 50 8 125q-87 -87 -171 -131.5t-151 -44.5q-72 0 -111.5 54.5t-39.5 145.5q0 119 30.5 232.5t86 201.5t139 149.5t163.5 84t210 22.5h36q38 0 86 -6l-114 -530q-8 -35 -15.5 -92t-7.5 -82q0 -37 18.5 -49.5 t55.5 -12.5q116 0 212 81.5t152 226.5t56 299q0 252 -156 392t-430 140q-233 0 -419.5 -113.5t-294 -328t-107.5 -475.5q0 -195 77.5 -347t224.5 -237.5t347 -85.5q148 0 272.5 38.5t257.5 133.5z"/>
<glyph glyph-name="A" horiz-adv-x="1479" unicode="A" d="M676 1208l-230 -651h467zM461 53v-53h-441v53l152 27l457 1272h190l475 -1272l170 -27v-53h-567v53l180 27l-133 387h-528l-135 -387z"/>
<glyph glyph-name="B" horiz-adv-x="1366" unicode="B" d="M59 0v53l172 27v1182l-172 26v53h613q255 0 373 -75.5t118 -239.5q0 -118 -72.5 -201t-203.5 -111q181 -19 280 -105.5t99 -222.5q0 -193 -133.5 -292.5t-389.5 -99.5l-428 6h-256zM1059 382q0 141 -94 206.5t-301 65.5h-240v-564q138 -6 294 -6q171 0 256 72.5t85 225.5 zM958 1016q0 123 -77 179t-250 56h-207v-507h219q162 0 238.5 64t76.5 208z"/>
<glyph glyph-name="C" horiz-adv-x="1366" unicode="C" d="M774 -20q-326 0 -508 177.5t-182 497.5q0 346 175 523.5t519 177.5q209 0 449 -51l6 -293h-66l-30 174q-70 43 -162.5 66.5t-188.5 23.5q-257 0 -375 -151t-118 -468q0 -292 123.5 -446t359.5 -154q114 0 215 27.5t160 73.5l37 200h65l-6 -315q-220 -63 -473 -63z"/>
<glyph glyph-name="D" horiz-adv-x="1479" unicode="D" d="M668 1341q371 0 550 -165.5t179 -497.5q0 -336 -172.5 -509t-515.5 -173l-478 4h-172v53l172 27v1182l-172 26v53h609zM1188 680q0 281 -151.5 426t-432.5 145h-180v-1157q120 -8 285 -8q246 0 362.5 145t116.5 449z"/>
<glyph glyph-name="E" horiz-adv-x="1251" unicode="E" d="M59 53l172 27v1182l-172 26v53h1006v-321h-66l-32 217q-112 14 -324 14h-219v-524h362l31 160h64v-412h-64l-31 162h-362v-547h264q258 0 338 16l57 248h66l-19 -354h-1071v53z"/>
<glyph glyph-name="F" horiz-adv-x="1139" unicode="F" d="M424 602v-522l223 -27v-53h-575v53l159 27v1182l-172 26v53h1006v-321h-66l-32 217q-112 14 -324 14h-219v-559h395l31 160h61v-412h-61l-31 162h-395z"/>
<glyph glyph-name="G" horiz-adv-x="1479" unicode="G" d="M1284 70q-116 -38 -241 -64t-269 -26q-326 0 -508 176t-182 499q0 352 176.5 526.5t517.5 174.5q244 0 471 -60v-288h-67l-27 166q-69 49 -165.5 75.5t-203.5 26.5q-256 0 -374.5 -152.5t-118.5 -466.5q0 -295 122 -447.5t361 -152.5q84 0 176 20t140 48v381l-172 26v54 h495v-54l-131 -26v-436z"/>
<glyph glyph-name="H" horiz-adv-x="1479" unicode="H" d="M59 0v53l172 27v1182l-172 26v53h537v-53l-172 -26v-527h631v527l-172 26v53h536v-53l-172 -26v-1182l172 -27v-53h-536v53l172 27v565h-631v-565l172 -27v-53h-537z"/>
<glyph glyph-name="I" horiz-adv-x="682" unicode="I" d="M438 80l172 -27v-53h-536v53l172 27v1182l-172 26v53h536v-53l-172 -26v-1182z"/>
<glyph glyph-name="J" horiz-adv-x="797" unicode="J" d="M410 1262l-172 26v53h516v-53l-152 -26v-830q0 -134 -41 -234.5t-124.5 -159t-186.5 -58.5q-128 0 -207 30v244h66l30 -139q19 -23 54 -36t77 -13q140 0 140 190v1006z"/>
<glyph glyph-name="K" horiz-adv-x="1479" unicode="K" d="M1353 1341v-53l-155 -26l-458 -448l573 -734l145 -27v-53h-328l-525 678l-181 -145v-453l192 -27v-53h-557v53l172 27v1182l-172 26v53h537v-53l-172 -26v-632l642 632l-133 26v53h420z"/>
<glyph glyph-name="L" horiz-adv-x="1251" unicode="L" d="M631 1288l-207 -26v-1176h264q213 0 313 20l62 279h65l-18 -385h-1051v53l172 27v1182l-172 26v53h572v-53z"/>
<glyph glyph-name="M" horiz-adv-x="1821" unicode="M" d="M862 0h-35l-491 1153v-1073l180 -27v-53h-457v53l172 27v1182l-172 26v53h406l436 -1020l476 1020h384v-53l-172 -26v-1182l172 -27v-53h-544v53l180 27v1073z"/>
<glyph glyph-name="N" horiz-adv-x="1479" unicode="N" d="M1155 1262l-180 26v53h457v-53l-172 -26v-1262h-97l-827 1206v-1126l180 -27v-53h-457v53l172 27v1182l-172 26v53h406l690 -993v914z"/>
<glyph glyph-name="O" horiz-adv-x="1479" unicode="O" d="M84 672q0 684 655 684q324 0 490 -173.5t166 -510.5q0 -342 -168 -517t-488 -175q-319 0 -487 174.5t-168 517.5zM293 672q0 -323 108 -468t338 -145q229 0 338 145t109 468q0 321 -108.5 462.5t-338.5 141.5q-231 0 -338.5 -141.5t-107.5 -462.5z"/>
<glyph glyph-name="P" horiz-adv-x="1139" unicode="P" d="M424 526v-446l213 -27v-53h-565v53l159 27v1182l-172 26v53h506q492 0 492 -395q0 -206 -124.5 -313t-357.5 -107h-151zM858 944q0 165 -77 236t-259 71h-98v-635h104q169 0 249.5 77t80.5 251z"/>
<glyph glyph-name="Q" horiz-adv-x="1479" unicode="Q" d="M84 670q0 686 655 686q322 0 489 -173.5t167 -512.5q0 -491 -355 -637l50 -62q88 -110 150 -157t122 -47l82 4v-66q-23 -10 -86.5 -23.5t-110.5 -13.5q-71 0 -126 23.5t-111 75t-187 217.5q-36 -4 -84 -4q-321 0 -488 175.5t-167 514.5zM293 670q0 -323 108 -467 t338 -144q229 0 338 143t109 468q0 323 -109.5 464.5t-337.5 141.5q-230 0 -338 -142.5t-108 -463.5z"/>
<glyph glyph-name="R" horiz-adv-x="1366" unicode="R" d="M931 969q0 153 -74.5 217.5t-261.5 64.5h-171v-573h177q179 0 254.5 66.5t75.5 224.5zM424 588v-508l203 -27v-53h-555v53l159 27v1182l-172 26v53h579q252 0 372 -85t120 -273q0 -134 -73 -231.5t-202 -135.5l363 -536l145 -27v-53h-321l-377 588h-241z"/>
<glyph glyph-name="S" horiz-adv-x="1139" unicode="S" d="M139 361h65l35 -181q37 -47 127.5 -83t178.5 -36q140 0 218.5 71.5t78.5 197.5q0 72 -30.5 119t-80 79.5t-112.5 55t-129.5 45.5t-129.5 51t-112.5 71t-80 106.5t-30.5 156.5q0 160 120 251t333 91q162 0 352 -43v-279h-65l-35 164q-102 74 -252 74q-134 0 -209.5 -54.5 t-75.5 -150.5q0 -65 30.5 -108t80 -73.5t113 -52.5t130 -45.5t130 -53t113 -75t80 -111t30.5 -161.5q0 -194 -119 -300.5t-343 -106.5q-108 0 -217 19t-194 52v310z"/>
<glyph glyph-name="T" horiz-adv-x="1251" unicode="T" d="M315 0v53l213 27v1175h-51q-253 0 -346 -20l-27 -209h-67v315h1180v-315h-68l-27 209q-30 7 -131 12.5t-221 5.5h-49v-1173l213 -27v-53h-619z"/>
<glyph glyph-name="U" horiz-adv-x="1479" unicode="U" d="M1159 1262l-180 26v53h457v-53l-172 -26v-801q0 -241 -132.5 -361t-384.5 -120q-267 0 -399.5 120.5t-132.5 341.5v820l-172 26v53h536v-53l-172 -26v-805q0 -365 355 -365q192 0 294.5 91t102.5 270v809z"/>
<glyph glyph-name="V" horiz-adv-x="1479" unicode="V" d="M1456 1341v-53l-147 -26l-539 -1293h-51l-545 1293l-151 26v53h542v-53l-180 -26l406 -987l405 987l-176 26v53h436z"/>
<glyph glyph-name="W" horiz-adv-x="1933" unicode="W" d="M1374 -31h-53l-348 924l-357 -924h-53l-444 1293l-117 26v53h512v-53l-197 -26l319 -945l361 930h45l348 -930l304 945l-209 26v53h444v-53l-117 -26z"/>
<glyph glyph-name="X" horiz-adv-x="1479" unicode="X" d="M317 80l166 -27v-53h-438v53l148 27l456 606l-389 576l-151 26v53h553v-53l-170 -26l278 -414l311 414l-166 26v53h439v-53l-148 -26l-377 -502l461 -680l152 -27v-53h-553v53l170 27l-352 520z"/>
<glyph glyph-name="Y" horiz-adv-x="1479" unicode="Y" d="M838 528v-448l213 -27v-53h-619v53l213 27v442l-471 740l-151 26v53h567v-53l-180 -26l385 -619l366 619l-170 26v53h436v-53l-147 -26z"/>
<glyph glyph-name="Z" horiz-adv-x="1251" unicode="Z" d="M98 94l752 1161h-250q-247 0 -340 -20l-31 -211h-69v317h913v-86l-757 -1171h290q116 0 235.5 11t168.5 22l59 256h70l-27 -373h-1014v94z"/>
<glyph glyph-name="bracketleft" horiz-adv-x="682" unicode="[" d="M152 -274v1695h456v-47l-297 -41v-1519l297 -41v-47h-456z"/>
<glyph glyph-name="backslash" horiz-adv-x="569" unicode="\" d="M0 1350h98l471 -1370h-100z"/>
<glyph glyph-name="bracketright" horiz-adv-x="682" unicode="]" d="M74 -274v47l297 41v1519l-297 41v47h456v-1695h-456z"/>
<glyph glyph-name="asciicircum" horiz-adv-x="961" unicode="^" d="M457 1341h49l428 -952h-103l-350 809l-350 -809h-102z"/>
<glyph glyph-name="underscore" d="M-16 -264v102h1056v-102h-1056z" unicode="_"/>
<glyph glyph-name="grave" horiz-adv-x="682" unicode="`" d="M473 1119l-354 268v37h213l196 -272v-33h-55z"/>
<glyph glyph-name="a" horiz-adv-x="909" unicode="a" d="M598 479l-131 -4q-134 -5 -181.5 -52t-47.5 -157q0 -176 143 -176q68 0 117.5 15.5t99.5 39.5v334zM465 961q154 0 226.5 -63t72.5 -193v-635l117 -25v-45h-258l-19 94q-114 -114 -291 -114q-241 0 -241 280q0 94 36.5 155.5t116.5 94t232 35.5l141 4v147q0 97 -35.5 143 t-109.5 46q-100 0 -183 -47l-34 -117h-56v205q162 35 285 35z"/>
<glyph glyph-name="b" d="M137 1352l-137 24v45h303v-336q0 -54 -6 -198q100 78 252 78q192 0 294.5 -116.5t102.5 -352.5q0 -253 -112.5 -384.5t-325.5 -131.5q-86 0 -189.5 19t-181.5 50v1303zM766 496q0 184 -64 274t-198 90q-59 0 -117 -10.5t-84 -22.5v-745q84 -16 201 -16q138 0 200 108 t62 322z" unicode="b"/>
<glyph glyph-name="c" horiz-adv-x="909" unicode="c" d="M846 57q-49 -36 -135 -56.5t-176 -20.5q-457 0 -457 497q0 235 116.5 361.5t333.5 126.5q135 0 295 -31v-262h-55l-43 166q-83 47 -199 47q-268 0 -268 -408q0 -212 81.5 -302.5t252.5 -90.5q146 0 254 33v-60z"/>
<glyph glyph-name="d" d="M254 461q0 -190 64 -283.5t196 -93.5q113 0 203 39v743q-89 17 -203 17q-260 0 -260 -422zM723 70q-113 -90 -264 -90q-385 0 -385 481q0 247 109 375.5t321 128.5q108 0 219 -23q-6 33 -6 166v244l-158 24v45h324v-1351l116 -25v-45h-264z" unicode="d"/>
<glyph glyph-name="e" horiz-adv-x="909" unicode="e" d="M477 885q-104 0 -159.5 -84t-55.5 -248h402q0 179 -46 255.5t-141 76.5zM260 473v-18q0 -138 30.5 -214.5t94 -116.5t166.5 -40q54 0 128 9t122 20v-56q-48 -31 -130.5 -54t-168.5 -23q-219 0 -320.5 118t-101.5 379q0 246 103 367t294 121q361 0 361 -410v-82h-578z"/>
<glyph glyph-name="f" horiz-adv-x="682" unicode="f" d="M225 856h-162v49l162 39v66q0 208 82.5 320t231.5 112q77 0 143 -19v-205h-49l-45 123q-34 21 -82 21q-63 0 -89 -56t-26 -210v-156h250v-84h-250v-778l203 -33v-45h-508v45l139 33v778z"/>
<glyph glyph-name="g" d="M496 391q109 0 154.5 62.5t45.5 189.5q0 133 -47 189.5t-151 56.5q-105 0 -154 -57t-49 -189t48 -192t153 -60zM829 -127q0 57 -35 89t-106 32h-364q-42 -36 -68.5 -91.5t-26.5 -103.5q0 -86 62 -123.5t190 -37.5q167 0 257.5 62t90.5 173zM870 643q0 -162 -97 -245 t-279 -83q-82 0 -152 15l-63 -131q3 -17 39 -32t90 -15h278q152 0 225.5 -66t73.5 -182q0 -105 -58.5 -183t-171.5 -120.5t-274 -42.5q-192 0 -292.5 59t-100.5 168q0 53 36 104.5t132 120.5q-57 19 -96 65t-39 99l158 178q-158 74 -158 291q0 154 97.5 238t283.5 84 q37 0 95 -7.5t89 -17.5l221 111l35 -43l-139 -144q67 -75 67 -221z" unicode="g"/>
<glyph glyph-name="h" d="M326 1014q0 -104 -7 -150q72 41 163.5 71t154.5 30q122 0 184 -71t62 -206v-618l114 -25v-45h-405v45l125 25v606q0 172 -166 172q-94 0 -225 -29v-749l127 -25v-45h-412v45l119 25v1282l-140 24v45h306v-407z" unicode="h"/>
<glyph glyph-name="i" horiz-adv-x="569" unicode="i" d="M369 70l161 -25v-45h-487v45l160 25v800l-133 25v45h299v-870zM379 1247q0 -44 -32 -76t-77 -32q-44 0 -76 32t-32 76q0 45 32 77t76 32q45 0 77 -32t32 -77z"/>
<glyph glyph-name="j" horiz-adv-x="569" unicode="j" d="M383 -39q0 -195 -75.5 -296t-221.5 -101q-62 0 -145 18v199h47l27 -109q33 -28 83 -28q59 0 89 63t30 203v960l-141 25v45h307v-979zM393 1247q0 -44 -32 -76t-76 -32q-45 0 -77 32t-32 76q0 45 32 77t77 32q44 0 76 -32t32 -77z"/>
<glyph glyph-name="k" d="M344 453l385 415l-98 27v45h332v-45l-117 -23l-268 -274l344 -530l102 -23v-45h-385v45l86 25l-258 405l-123 -135v-270l100 -25v-45h-385v45l119 25v1282l-139 24v45h305v-968z" unicode="k"/>
<glyph glyph-name="l" horiz-adv-x="569" unicode="l" d="M367 70l161 -25v-45h-487v45l160 25v1282l-160 24v45h326v-1351z"/>
<glyph glyph-name="m" horiz-adv-x="1593" unicode="m" d="M326 864q75 43 159 72t148 29q69 0 127.5 -26t87.5 -83q77 43 180.5 76t171.5 33q240 0 240 -277v-618l121 -25v-45h-427v45l140 25v600q0 172 -160 172q-26 0 -60.5 -4t-69 -9t-66 -11.5t-52.5 -10.5q17 -54 17 -119v-618l141 -25v-45h-446v45l139 25v600 q0 83 -42.5 127.5t-127.5 44.5q-88 0 -219 -29v-743l141 -25v-45h-426v45l119 25v800l-119 25v45h275z"/>
<glyph glyph-name="n" d="M324 864q77 44 164 72.5t145 28.5q122 0 184 -71t62 -206v-618l114 -25v-45h-405v45l125 25v600q0 83 -40.5 130.5t-125.5 47.5q-90 0 -221 -29v-749l127 -25v-45h-406v45l113 25v800l-113 25v45h268z" unicode="n"/>
<glyph glyph-name="o" d="M766 475q0 216 -63 313t-197 97q-131 0 -189.5 -93t-58.5 -317q0 -227 59.5 -321.5t188.5 -94.5q132 0 196 98t64 318zM946 475q0 -495 -440 -495q-212 0 -320 127t-108 368q0 238 108 364t328 126q214 0 323 -123.5t109 -366.5z" unicode="o"/>
<glyph glyph-name="p" d="M764 481q0 192 -62.5 285.5t-189.5 93.5q-117 0 -195 -33v-751q89 -17 195 -17q252 0 252 422zM152 870l-107 25v45h264l2 -55q42 36 112.5 58t143.5 22q180 0 278.5 -125t98.5 -359q0 -239 -107.5 -370t-310.5 -131q-113 0 -215 22q6 -72 6 -113v-254l164 -24v-47h-448 v47l119 24v1235z" unicode="p"/>
<glyph glyph-name="q" d="M254 467q0 -191 63.5 -287t196.5 -96q59 0 116.5 10t86.5 23v749q-89 17 -203 17q-260 0 -260 -416zM813 985h70v-1350l104 -24v-47h-399v47l129 24v261q0 97 10 167q-107 -83 -268 -83q-385 0 -385 487q0 241 108.5 369.5t317.5 128.5q112 0 223 -23z" unicode="q"/>
<glyph glyph-name="r" horiz-adv-x="682" unicode="r" d="M664 965v-254h-43l-58 110q-50 0 -118.5 -13.5t-118.5 -35.5v-702l161 -25v-45h-446v45l119 25v800l-119 25v45h274l9 -117q60 50 162.5 96t162.5 46h15z"/>
<glyph glyph-name="s" horiz-adv-x="797" unicode="s" d="M723 264q0 -140 -88.5 -212t-261.5 -72q-70 0 -154.5 14.5t-132.5 32.5v231h45l49 -131q75 -68 195 -68q194 0 194 166q0 122 -153 174l-89 29q-101 33 -147 67t-71 83.5t-25 119.5q0 124 84.5 195.5t228.5 71.5q103 0 258 -31v-205h-47l-42 109q-53 47 -167 47 q-81 0 -123.5 -40t-42.5 -108q0 -57 38.5 -96t116.5 -65q147 -50 192 -73t76.5 -56.5t49 -76.5t17.5 -106z"/>
<glyph glyph-name="t" horiz-adv-x="569" unicode="t" d="M334 -20q-96 0 -143.5 57t-47.5 160v659h-123v45l125 39l101 213h63v-213h215v-84h-215v-641q0 -65 29.5 -98t77.5 -33q58 0 141 16v-65q-35 -24 -101 -39.5t-122 -15.5z"/>
<glyph glyph-name="u" d="M313 268q0 -172 160 -172q124 0 232 31v743l-142 25v45h307v-870l119 -25v-45h-274l-8 76q-71 -39 -164 -67.5t-156 -28.5q-240 0 -240 276v614l-120 25v45h286v-672z" unicode="u"/>
<glyph glyph-name="v" d="M557 -20h-74l-387 890l-96 25v45h438v-45l-149 -27l274 -649l262 651l-149 25v45h348v-45l-90 -21z" unicode="v"/>
<glyph glyph-name="w" horiz-adv-x="1479" unicode="w" d="M1051 -20h-78l-232 620l-229 -620h-74l-325 890l-111 25v45h447v-45l-156 -27l223 -635l227 613h84l226 -617l213 641l-154 25v45h358v-45l-104 -21z"/>
<glyph glyph-name="x" d="M999 45v-45h-426v45l125 23l-217 333l-254 -335l129 -21v-45h-338v45l109 16l309 408l-272 401l-111 25v45h426v-45l-125 -27l181 -270l208 272l-129 25v45h338v-45l-108 -21l-264 -342l309 -466z" unicode="x"/>
<glyph glyph-name="y" d="M199 -442q-78 0 -154 18v203h47l33 -96q31 -23 86 -23q52 0 96 30t80.5 89t91.5 211l-358 880l-96 25v45h436v-45l-148 -27l254 -657l246 659l-147 25v45h350v-45l-98 -21l-367 -933q-65 -165 -113 -237t-106 -109t-133 -37z" unicode="y"/>
<glyph glyph-name="z" horiz-adv-x="909" unicode="z" d="M55 0v45l516 815h-221q-56 0 -108 -9.5t-72 -25.5l-31 -135h-47v250h694v-49l-516 -811h275q57 0 120 13.5t89 33.5l51 197h47l-25 -324h-772z"/>
<glyph glyph-name="braceleft" horiz-adv-x="983" unicode="{" d="M662 -274q-126 0 -193.5 77t-67.5 217v295q0 117 -52.5 175.5t-162.5 62.5v45q215 4 215 236v294q0 141 65 217t196 76h135v-47h-62q-91 0 -129.5 -54.5t-38.5 -160.5v-330q0 -95 -52 -163.5t-140 -87.5v-3q89 -21 140.5 -88.5t51.5 -164.5v-334q0 -106 38.5 -160.5 t129.5 -54.5h62v-47h-135z"/>
<glyph glyph-name="bar" horiz-adv-x="410" unicode="|" d="M154 -442v1863h102v-1863h-102z"/>
<glyph glyph-name="braceright" horiz-adv-x="983" unicode="}" d="M186 -274v47h62q91 0 129.5 54.5t38.5 160.5v334q0 97 51 164.5t141 88.5v3q-88 19 -140 88t-52 163v330q0 106 -38.5 160.5t-129.5 54.5h-62v47h136q130 0 195 -76t65 -217v-294q0 -232 215 -236v-45q-108 -4 -161.5 -62t-53.5 -176v-295q0 -139 -67.5 -216.5 t-192.5 -77.5h-136z"/>
<glyph glyph-name="asciitilde" horiz-adv-x="1108" unicode="~" d="M780 502q-106 0 -245 121q-74 63 -122.5 91.5t-86.5 28.5q-77 0 -116 -54.5t-52 -186.5h-101q18 187 84.5 265.5t184.5 78.5q56 0 115.5 -29t134.5 -92q86 -72 127.5 -96.5t76.5 -24.5q69 0 108 52.5t58 189.5h103q-17 -130 -49 -199t-85 -107t-135 -38z"/>
<glyph glyph-name="exclamdown" horiz-adv-x="682" unicode="¡" d="M449 -410h-218l62 953h94zM219 840q0 49 34.5 85t86.5 36t86.5 -36t34.5 -85q0 -51 -35 -86t-86 -35t-86 35t-35 86z"/>
<glyph glyph-name="cent" d="M307 684q0 -178 55 -268.5t174 -114.5v789q-229 -29 -229 -406zM536 186q-207 13 -308 137t-101 361q0 221 105.5 347.5t303.5 137.5v172h82v-170q135 -6 254 -30v-262h-55l-43 165q-66 36 -156 46v-799h23q146 0 254 33v-60q-35 -28 -106 -49.5t-171 -28.5v-186h-82v186 z" unicode="¢"/>
<glyph glyph-name="sterling" d="M961 154v-154h-838v117l72 64q143 124 143 249q0 47 -16.5 96t-38.5 103h-162v82h127q-67 156 -67 295q0 168 104.5 259t312.5 91q56 0 115 -7.5t178 -35.5v-258h-65l-35 164q-93 53 -193 53q-229 0 -229 -266q0 -137 29 -295h278v-82h-262q16 -109 16 -170 q0 -89 -36 -160t-123 -145h690z" unicode="£"/>
<glyph glyph-name="currency" d="M219 676q0 -77 39.5 -145t107.5 -108t146 -40q120 0 207.5 86t87.5 207t-87 208t-208 87q-77 0 -144.5 -39t-108 -108t-40.5 -148zM123 676q0 134 80 237l-107 107l74 74l104 -109q108 82 238 82t238 -82l108 109l72 -72l-109 -109q82 -110 82 -237q0 -130 -82 -238 l109 -106l-72 -72l-108 107q-103 -80 -238 -80q-133 0 -238 80l-106 -107l-72 72l107 106q-80 105 -80 238z" unicode="¤"/>
<glyph glyph-name="yen" d="M885 393v-82h-279v-231l172 -27v-53h-536v53l172 27v231h-279v82h279v129l-15 35h-264v82h230l-263 623l-100 26v53h453v-53l-131 -26l239 -619l246 619l-123 26v53h336v-53l-104 -26l-265 -623h232v-82h-267l-12 -29v-135h279z" unicode="¥"/>
<glyph glyph-name="brokenbar" horiz-adv-x="410" unicode="¦" d="M154 -442v622h102v-622h-102zM154 801v620h102v-620h-102z"/>
<glyph glyph-name="section" d="M719 580q0 43 -21 76t-61 62t-131 70q-85 -4 -140 -52t-55 -118q0 -46 18 -78.5t51 -59.5t142 -87q92 11 144.5 61t52.5 126zM842 29q0 -138 -93 -211.5t-268 -73.5q-79 0 -169.5 16.5t-127.5 30.5v232h45l39 -132q30 -28 92.5 -47.5t122.5 -19.5q98 0 151.5 42.5 t53.5 123.5q0 50 -22.5 88t-59.5 68t-84.5 56t-96.5 52.5t-96.5 56t-84.5 68t-59.5 88t-22.5 115.5q0 96 66 165.5t171 90.5q-108 55 -157 124.5t-49 159.5q0 124 84.5 195.5t228.5 71.5q115 0 258 -25v-211h-47l-33 109q-24 21 -70.5 34t-105.5 13q-82 0 -124 -40t-42 -108 q0 -48 24 -83t65.5 -63t175.5 -90q109 -50 159 -91t78 -93t28 -118q0 -106 -68 -180.5t-190 -100.5q92 -53 136 -96.5t68 -96.5t24 -120z" unicode="§"/>
<glyph glyph-name="dieresis" horiz-adv-x="682" unicode="¨" d="M262 1194q0 -42 -28 -71.5t-70 -29.5q-41 0 -71 30t-30 71q0 42 31 71t70 29q42 0 70 -29t28 -71zM618 1194q0 -42 -28 -71.5t-70 -29.5t-71 31t-29 70q0 42 29 71t71 29t70 -29t28 -71z"/>
<glyph glyph-name="copyright" horiz-adv-x="1556" unicode="©" d="M795 258q-195 0 -305.5 106.5t-110.5 299.5q0 209 105.5 315t312.5 106q115 0 268 -30l4 -187h-49l-19 105q-82 51 -200 51q-147 0 -211 -85t-64 -273q0 -349 269 -349q141 0 215 60l22 119h49l-4 -199q-124 -39 -282 -39zM158 670q0 -167 83.5 -311.5t227 -227 t309.5 -82.5q167 0 311 82.5t228 226.5t84 312t-85 313t-228 227t-310 82t-311 -83.5t-226.5 -228t-82.5 -310.5zM88 670q0 189 93.5 349.5t252 251.5t344.5 91q187 0 347 -92t252.5 -251.5t92.5 -348.5q0 -185 -90.5 -343.5t-251 -252.5t-350.5 -94q-186 0 -346 92 t-252 252t-92 346z"/>
<glyph glyph-name="ordfeminine" horiz-adv-x="565" unicode="ª" d="M371 1063q-121 -3 -144.5 -8t-39 -17t-23.5 -33.5t-8 -58.5q0 -54 21 -75t65 -21q58 0 129 39v174zM281 1362q110 0 160.5 -44.5t50.5 -127.5v-352l69 -15v-37h-174l-12 62q-32 -32 -85 -53t-106 -21q-73 0 -111 42.5t-38 125.5q0 82 57.5 125.5t194.5 46.5l84 2v80 q0 111 -97 111q-62 0 -110 -29l-21 -59h-43v122q82 21 181 21z"/>
<glyph glyph-name="guillemotleft" d="M526 496l335 356h81l-228 -389l228 -389h-81l-335 356v66zM117 496l334 356h81l-227 -389l227 -389h-81l-334 356v66z" unicode="«"/>
<glyph glyph-name="logicalnot" horiz-adv-x="1155" unicode="¬" d="M1055 731v-528h-103v426h-850v102h953z"/>
<glyph glyph-name="registered" horiz-adv-x="1556" unicode="®" d="M932 858q0 89 -43 125.5t-158 36.5h-63v-332h67q106 0 151.5 37t45.5 133zM668 625v-289l114 -17v-43h-346v43l96 17v688l-104 16v41h330q156 0 235.5 -57.5t79.5 -163.5q0 -77 -45 -133t-133 -84l213 -307l84 -17v-43h-205l-229 349h-90zM158 670q0 -167 83.5 -311.5 t227 -227t309.5 -82.5q167 0 311 82.5t228 226.5t84 312t-85 313t-228 227t-310 82t-311 -83.5t-226.5 -228t-82.5 -310.5zM88 670q0 189 93.5 349.5t252 251.5t344.5 91q187 0 347 -92t252.5 -251.5t92.5 -348.5q0 -185 -90.5 -343.5t-251 -252.5t-350.5 -94 q-186 0 -346 92t-252 252t-92 346z"/>
<glyph glyph-name="uni00AF" d="M1042 1452h-1059v94h1059v-94z" unicode="¯"/>
<glyph glyph-name="degree" horiz-adv-x="819" unicode="°" d="M200 1051q0 -89 61.5 -149.5t146.5 -60.5q88 0 148.5 61t60.5 149q0 89 -60.5 150t-148.5 61q-85 0 -146.5 -60.5t-61.5 -150.5zM98 1051q0 83 41 155t113.5 114t155.5 42t155 -41.5t114 -113.5t42 -156t-42.5 -156.5t-114.5 -113t-154 -40.5q-130 0 -220 90t-90 220z "/>
<glyph glyph-name="plusminus" horiz-adv-x="1124" unicode="±" d="M1038 102v-102h-953v102h953zM612 629v-426h-103v426h-424v102h424v426h103v-426h426v-102h-426z"/>
<glyph glyph-name="uni00B2" horiz-adv-x="614" unicode="²" d="M567 535h-499v96l110 100q100 91 145.5 147.5t65 118t19.5 142.5q0 143 -132 143q-61 0 -114 -33l-21 -98h-55v172q110 27 190 27q134 0 204.5 -55.5t70.5 -155.5q0 -97 -45.5 -173t-166.5 -181l-159 -142h387v-108z"/>
<glyph glyph-name="uni00B3" horiz-adv-x="614" unicode="³" d="M575 754q0 -106 -85 -169t-226 -63q-105 0 -215 27l-6 186h55l27 -112q22 -13 58 -23t73 -10q96 0 136 36.5t40 133.5q0 78 -36 115.5t-126 42.5l-86 6v65l86 4q68 3 96.5 37.5t28.5 112.5q0 77 -29.5 108t-109.5 31q-64 0 -113 -29l-20 -102h-55v172q111 27 188 27 q132 0 207.5 -51.5t75.5 -147.5q0 -75 -49 -128t-140 -67q225 -25 225 -202z"/>
<glyph glyph-name="acute" horiz-adv-x="682" unicode="´" d="M156 1119v33l196 272h213v-37l-354 -268h-55z"/>
<glyph glyph-name="uni00B5" horiz-adv-x="1180" unicode="µ" d="M816 121q-91 -83 -152 -112t-118 -29q-119 0 -180 78q0 -288 -34 -494h-178v45q21 67 36.5 204t15.5 256v801l-140 25v45h306v-652q0 -87 55.5 -139.5t151.5 -52.5q51 0 114.5 24t117.5 63v687l-142 25v45h307v-870l137 -25v-45h-278z"/>
<glyph glyph-name="paragraph" horiz-adv-x="928" unicode="¶" d="M811 1266v-1524h-94v1524h-170v-1524h-94l2 823q-209 0 -328 105.5t-119 292.5q0 183 112 280.5t322 97.5h463v-53z"/>
<glyph glyph-name="uni00B7" horiz-adv-x="682" unicode="·" d="M462 678q0 -51 -35 -86t-86 -35t-86 35t-35 86q0 49 34.5 85t86.5 36t86.5 -36t34.5 -85z"/>
<glyph glyph-name="cedilla" horiz-adv-x="682" unicode="¸" d="M528 -234q0 -92 -69.5 -147t-177.5 -55q-76 0 -138 22v74q22 -7 60 -11.5t60 -4.5q60 0 87 29.5t27 74.5q0 49 -40 80t-112 37l41 153h86l-18 -82q91 -9 142.5 -53t51.5 -117z"/>
<glyph glyph-name="uni00B9" horiz-adv-x="614" unicode="¹" d="M375 598l166 -14v-49h-475v49l165 14v625l-161 -58v47l233 134h72v-748z"/>
<glyph glyph-name="ordmasculine" horiz-adv-x="635" unicode="º" d="M469 1069q0 129 -37 182.5t-119 53.5q-77 0 -112 -51t-35 -185q0 -135 35.5 -187.5t111.5 -52.5q82 0 119 54.5t37 185.5zM598 1069q0 -145 -74 -222t-211 -77q-129 0 -202.5 77.5t-73.5 221.5t74.5 218.5t207.5 74.5t206 -78t73 -215z"/>
<glyph glyph-name="guillemotright" d="M498 430l-335 -356h-81l228 389l-228 389h81l335 -356v-66zM907 430l-334 -356h-81l227 389l-227 389h81l334 -356v-66z" unicode="»"/>
<glyph glyph-name="onequarter" horiz-adv-x="1536" unicode="¼" d="M336 0h-102l964 1341h100zM375 598l166 -14v-49h-475v49l165 14v625l-161 -58v47l233 134h72v-748zM1156 652h-2l-277 -389h279v389zM1293 160v-159h-137v159h-361v97l391 550h107v-544h101v-103h-101z"/>
<glyph glyph-name="onehalf" horiz-adv-x="1536" unicode="½" d="M336 0h-102l964 1341h100zM375 598l166 -14v-49h-475v49l165 14v625l-161 -58v47l233 134h72v-748zM1458 1h-499v96l110 100q100 91 145.5 147.5t65 118t19.5 142.5q0 143 -132 143q-61 0 -114 -33l-21 -98h-55v172q110 27 190 27q134 0 204.5 -55.5t70.5 -155.5 q0 -97 -45.5 -173t-166.5 -181l-159 -142h387v-108z"/>
<glyph glyph-name="threequarters" horiz-adv-x="1536" unicode="¾" d="M336 0h-102l964 1341h100zM606 754q0 -106 -85 -169t-226 -63q-105 0 -215 27l-6 186h55l27 -112q22 -13 58 -23t73 -10q96 0 136 36.5t40 133.5q0 78 -36 115.5t-126 42.5l-86 6v65l86 4q68 3 96.5 37.5t28.5 112.5q0 77 -29.5 108t-109.5 31q-64 0 -113 -29l-20 -102 h-55v172q111 27 188 27q132 0 207.5 -51.5t75.5 -147.5q0 -75 -49 -128t-140 -67q225 -25 225 -202zM1127 652h-2l-277 -389h279v389zM1264 160v-159h-137v159h-361v97l391 550h107v-544h101v-103h-101z"/>
<glyph glyph-name="questiondown" horiz-adv-x="909" unicode="¿" d="M379 840q0 49 34.5 85t86.5 36q50 0 85.5 -35.5t35.5 -85.5q0 -52 -36 -86.5t-85 -34.5q-51 0 -86 35t-35 86zM469 582h80l26 -334l-143 -29q-86 -17 -125 -87t-39 -204q0 -148 54 -208t186 -60q112 0 194 49l35 164h66v-254q-148 -43 -295 -43q-424 0 -424 340 q0 161 80.5 261t234.5 132l58 13z"/>
<glyph glyph-name="Agrave" horiz-adv-x="1479" unicode="À" d="M676 1208l-230 -651h467zM461 53v-53h-441v53l152 27l457 1272h190l475 -1272l170 -27v-53h-567v53l180 27l-133 387h-528l-135 -387zM797 1453l-354 268v37h213l196 -272v-33h-55z"/>
<glyph glyph-name="Aacute" horiz-adv-x="1479" unicode="Á" d="M676 1208l-230 -651h467zM461 53v-53h-441v53l152 27l457 1272h190l475 -1272l170 -27v-53h-567v53l180 27l-133 387h-528l-135 -387zM611 1453v33l196 272h213v-37l-354 -268h-55z"/>
<glyph glyph-name="Acircumflex" horiz-adv-x="1479" unicode="Â" d="M676 1208l-230 -651h467zM461 53v-53h-441v53l152 27l457 1272h190l475 -1272l170 -27v-53h-567v53l180 27l-133 387h-528l-135 -387zM395 1453v33l218 273h213l217 -273v-33h-56l-268 183l-268 -183h-56z"/>
<glyph glyph-name="Atilde" horiz-adv-x="1479" unicode="Ã" d="M676 1208l-230 -651h467zM461 53v-53h-441v53l152 27l457 1272h190l475 -1272l170 -27v-53h-567v53l180 27l-133 387h-528l-135 -387zM846 1452q-48 0 -88.5 21.5t-76.5 48t-69.5 48t-66.5 21.5q-32 0 -51.5 -12t-30.5 -34.5t-18 -72.5h-52q15 242 195 242 q48 0 88.5 -21.5t77 -48t70 -48t65.5 -21.5q43 0 67 25t33 93h52q-15 -241 -195 -241z"/>
<glyph glyph-name="Adieresis" horiz-adv-x="1479" unicode="Ä" d="M676 1208l-230 -651h467zM461 53v-53h-441v53l152 27l457 1272h190l475 -1272l170 -27v-53h-567v53l180 27l-133 387h-528l-135 -387zM647 1559q0 -42 -28 -71.5t-70 -29.5q-41 0 -71 30t-30 71q0 42 31 71t70 29q42 0 70 -29t28 -71zM1003 1559q0 -42 -28 -71.5 t-70 -29.5t-71 31t-29 70q0 42 29 71t71 29t70 -29t28 -71z"/>
<glyph glyph-name="Aring" horiz-adv-x="1479" unicode="Å" d="M676 1208l-230 -651h467zM461 53v-53h-441v53l152 27l457 1272h190l475 -1272l170 -27v-53h-567v53l180 27l-133 387h-528l-135 -387zM845 1476q0 51 -36 87t-87 36t-87 -36t-36 -87q0 -52 37 -87.5t86 -35.5q48 0 85.5 35t37.5 88zM925 1476q0 -84 -59.5 -143.5 t-143.5 -59.5t-143.5 59.5t-59.5 143.5t59.5 143.5t143.5 59.5t143.5 -59.5t59.5 -143.5z"/>
<glyph glyph-name="AE" horiz-adv-x="1821" unicode="Æ" d="M883 557v674l-363 -674h363zM731 53l152 27v387h-412l-207 -387l158 -27v-53h-402v53l136 27l647 1190l-164 18v53h995v-321h-65l-33 217q-112 14 -324 14h-137v-524h281l30 160h64v-412h-64l-30 162h-281v-547h182q258 0 338 16l58 248h65l-18 -354h-969v53z"/>
<glyph glyph-name="Ccedilla" horiz-adv-x="1366" unicode="Ç" d="M774 -20q-326 0 -508 177.5t-182 497.5q0 346 175 523.5t519 177.5q209 0 449 -51l6 -293h-66l-30 174q-70 43 -162.5 66.5t-188.5 23.5q-257 0 -375 -151t-118 -468q0 -292 123.5 -446t359.5 -154q114 0 215 27.5t160 73.5l37 200h65l-6 -315q-220 -63 -473 -63z M957 -234q0 -92 -69.5 -147t-177.5 -55q-76 0 -138 22v74q22 -7 60 -11.5t60 -4.5q60 0 87 29.5t27 74.5q0 49 -40 80t-112 37l41 153h86l-18 -82q91 -9 142.5 -53t51.5 -117z"/>
<glyph glyph-name="Egrave" horiz-adv-x="1251" unicode="È" d="M59 53l172 27v1182l-172 26v53h1006v-321h-66l-32 217q-112 14 -324 14h-219v-524h362l31 160h64v-412h-64l-31 162h-362v-547h264q258 0 338 16l57 248h66l-19 -354h-1071v53zM758 1453l-354 268v37h213l196 -272v-33h-55z"/>
<glyph glyph-name="Eacute" horiz-adv-x="1251" unicode="É" d="M59 53l172 27v1182l-172 26v53h1006v-321h-66l-32 217q-112 14 -324 14h-219v-524h362l31 160h64v-412h-64l-31 162h-362v-547h264q258 0 338 16l57 248h66l-19 -354h-1071v53zM470 1453v33l196 272h213v-37l-354 -268h-55z"/>
<glyph glyph-name="Ecircumflex" horiz-adv-x="1251" unicode="Ê" d="M59 53l172 27v1182l-172 26v53h1006v-321h-66l-32 217q-112 14 -324 14h-219v-524h362l31 160h64v-412h-64l-31 162h-362v-547h264q258 0 338 16l57 248h66l-19 -354h-1071v53zM303 1453v33l218 273h213l217 -273v-33h-56l-268 183l-268 -183h-56z"/>
<glyph glyph-name="Edieresis" horiz-adv-x="1251" unicode="Ë" d="M59 53l172 27v1182l-172 26v53h1006v-321h-66l-32 217q-112 14 -324 14h-219v-524h362l31 160h64v-412h-64l-31 162h-362v-547h264q258 0 338 16l57 248h66l-19 -354h-1071v53zM557 1559q0 -42 -28 -71.5t-70 -29.5q-41 0 -71 30t-30 71q0 42 31 71t70 29q42 0 70 -29 t28 -71zM913 1559q0 -42 -28 -71.5t-70 -29.5t-71 31t-29 70q0 42 29 71t71 29t70 -29t28 -71z"/>
<glyph glyph-name="Igrave" horiz-adv-x="682" unicode="Ì" d="M438 80l172 -27v-53h-536v53l172 27v1182l-172 26v53h536v-53l-172 -26v-1182zM408 1453l-354 268v37h213l196 -272v-33h-55z"/>
<glyph glyph-name="Iacute" horiz-adv-x="682" unicode="Í" d="M438 80l172 -27v-53h-536v53l172 27v1182l-172 26v53h536v-53l-172 -26v-1182zM209 1453v33l196 272h213v-37l-354 -268h-55z"/>
<glyph glyph-name="Icircumflex" horiz-adv-x="682" unicode="Î" d="M438 80l172 -27v-53h-536v53l172 27v1182l-172 26v53h536v-53l-172 -26v-1182zM18 1453v33l218 273h213l217 -273v-33h-56l-268 183l-268 -183h-56z"/>
<glyph glyph-name="Idieresis" horiz-adv-x="682" unicode="Ï" d="M438 80l172 -27v-53h-536v53l172 27v1182l-172 26v53h536v-53l-172 -26v-1182zM262 1559q0 -42 -28 -71.5t-70 -29.5q-41 0 -71 30t-30 71q0 42 31 71t70 29q42 0 70 -29t28 -71zM618 1559q0 -42 -28 -71.5t-70 -29.5t-71 31t-29 70q0 42 29 71t71 29t70 -29t28 -71z"/>
<glyph glyph-name="Eth" horiz-adv-x="1479" unicode="Ð" d="M801 711v-82h-377v-535q120 -8 285 -8q247 0 363 140.5t116 443.5q0 289 -148.5 435t-453.5 146h-162v-540h377zM631 1341q379 0 572.5 -169.5t193.5 -493.5q0 -345 -165 -513.5t-499 -168.5l-502 4h-172v53l172 27v549h-178v82h178v551l-172 26v53h572z"/>
<glyph glyph-name="Ntilde" horiz-adv-x="1479" unicode="Ñ" d="M1155 1262l-180 26v53h457v-53l-172 -26v-1262h-97l-827 1206v-1126l180 -27v-53h-457v53l172 27v1182l-172 26v53h406l690 -993v914zM879 1452q-48 0 -88.5 21.5t-76.5 48t-69.5 48t-66.5 21.5q-32 0 -51.5 -12t-30.5 -34.5t-18 -72.5h-52q15 242 195 242 q48 0 88.5 -21.5t77 -48t70 -48t65.5 -21.5q43 0 67 25t33 93h52q-15 -241 -195 -241z"/>
<glyph glyph-name="Ograve" horiz-adv-x="1479" unicode="Ò" d="M84 672q0 684 655 684q324 0 490 -173.5t166 -510.5q0 -342 -168 -517t-488 -175q-319 0 -487 174.5t-168 517.5zM293 672q0 -323 108 -468t338 -145q229 0 338 145t109 468q0 321 -108.5 462.5t-338.5 141.5q-231 0 -338.5 -141.5t-107.5 -462.5zM840 1453l-354 268v37 h213l196 -272v-33h-55z"/>
<glyph glyph-name="Oacute" horiz-adv-x="1479" unicode="Ó" d="M84 672q0 684 655 684q324 0 490 -173.5t166 -510.5q0 -342 -168 -517t-488 -175q-319 0 -487 174.5t-168 517.5zM293 672q0 -323 108 -468t338 -145q229 0 338 145t109 468q0 321 -108.5 462.5t-338.5 141.5q-231 0 -338.5 -141.5t-107.5 -462.5zM627 1453v33l196 272 h213v-37l-354 -268h-55z"/>
<glyph glyph-name="Ocircumflex" horiz-adv-x="1479" unicode="Ô" d="M84 672q0 684 655 684q324 0 490 -173.5t166 -510.5q0 -342 -168 -517t-488 -175q-319 0 -487 174.5t-168 517.5zM293 672q0 -323 108 -468t338 -145q229 0 338 145t109 468q0 321 -108.5 462.5t-338.5 141.5q-231 0 -338.5 -141.5t-107.5 -462.5zM417 1453v33l218 273 h213l217 -273v-33h-56l-268 183l-268 -183h-56z"/>
<glyph glyph-name="Otilde" horiz-adv-x="1479" unicode="Õ" d="M84 672q0 684 655 684q324 0 490 -173.5t166 -510.5q0 -342 -168 -517t-488 -175q-319 0 -487 174.5t-168 517.5zM293 672q0 -323 108 -468t338 -145q229 0 338 145t109 468q0 321 -108.5 462.5t-338.5 141.5q-231 0 -338.5 -141.5t-107.5 -462.5zM867 1452 q-48 0 -88.5 21.5t-76.5 48t-69.5 48t-66.5 21.5q-32 0 -51.5 -12t-30.5 -34.5t-18 -72.5h-52q15 242 195 242q48 0 88.5 -21.5t77 -48t70 -48t65.5 -21.5q43 0 67 25t33 93h52q-15 -241 -195 -241z"/>
<glyph glyph-name="Odieresis" horiz-adv-x="1479" unicode="Ö" d="M84 672q0 684 655 684q324 0 490 -173.5t166 -510.5q0 -342 -168 -517t-488 -175q-319 0 -487 174.5t-168 517.5zM293 672q0 -323 108 -468t338 -145q229 0 338 145t109 468q0 321 -108.5 462.5t-338.5 141.5q-231 0 -338.5 -141.5t-107.5 -462.5zM657 1559 q0 -42 -28 -71.5t-70 -29.5q-41 0 -71 30t-30 71q0 42 31 71t70 29q42 0 70 -29t28 -71zM1013 1559q0 -42 -28 -71.5t-70 -29.5t-71 31t-29 70q0 42 29 71t71 29t70 -29t28 -71z"/>
<glyph glyph-name="multiply" horiz-adv-x="1155" unicode="×" d="M578 608l-345 -344l-71 72l344 346l-344 342l74 74l342 -344l346 344l71 -72l-344 -344l344 -346l-71 -72z"/>
<glyph glyph-name="Oslash" horiz-adv-x="1479" unicode="Ø" d="M1186 672q0 244 -64 387l-712 -866q106 -134 329 -134q229 0 338 145t109 468zM293 672q0 -253 65 -398l715 865q-108 137 -334 137q-231 0 -338.5 -141.5t-107.5 -462.5zM84 672q0 684 655 684q259 0 418 -113l123 148h115l-170 -205q170 -178 170 -514 q0 -342 -168 -517t-488 -175q-259 0 -413 110l-121 -145h-119l170 205q-172 176 -172 522z"/>
<glyph glyph-name="Ugrave" horiz-adv-x="1479" unicode="Ù" d="M1159 1262l-180 26v53h457v-53l-172 -26v-801q0 -241 -132.5 -361t-384.5 -120q-267 0 -399.5 120.5t-132.5 341.5v820l-172 26v53h536v-53l-172 -26v-805q0 -365 355 -365q192 0 294.5 91t102.5 270v809zM844 1453l-354 268v37h213l196 -272v-33h-55z"/>
<glyph glyph-name="Uacute" horiz-adv-x="1479" unicode="Ú" d="M1159 1262l-180 26v53h457v-53l-172 -26v-801q0 -241 -132.5 -361t-384.5 -120q-267 0 -399.5 120.5t-132.5 341.5v820l-172 26v53h536v-53l-172 -26v-805q0 -365 355 -365q192 0 294.5 91t102.5 270v809zM652 1453v33l196 272h213v-37l-354 -268h-55z"/>
<glyph glyph-name="Ucircumflex" horiz-adv-x="1479" unicode="Û" d="M1159 1262l-180 26v53h457v-53l-172 -26v-801q0 -241 -132.5 -361t-384.5 -120q-267 0 -399.5 120.5t-132.5 341.5v820l-172 26v53h536v-53l-172 -26v-805q0 -365 355 -365q192 0 294.5 91t102.5 270v809zM444 1453v33l218 273h213l217 -273v-33h-56l-268 183l-268 -183 h-56z"/>
<glyph glyph-name="Udieresis" horiz-adv-x="1479" unicode="Ü" d="M1159 1262l-180 26v53h457v-53l-172 -26v-801q0 -241 -132.5 -361t-384.5 -120q-267 0 -399.5 120.5t-132.5 341.5v820l-172 26v53h536v-53l-172 -26v-805q0 -365 355 -365q192 0 294.5 91t102.5 270v809zM661 1559q0 -42 -28 -71.5t-70 -29.5q-41 0 -71 30t-30 71 q0 42 31 71t70 29q42 0 70 -29t28 -71zM1017 1559q0 -42 -28 -71.5t-70 -29.5t-71 31t-29 70q0 42 29 71t71 29t70 -29t28 -71z"/>
<glyph glyph-name="Yacute" horiz-adv-x="1479" unicode="Ý" d="M838 528v-448l213 -27v-53h-619v53l213 27v442l-471 740l-151 26v53h567v-53l-180 -26l385 -619l366 619l-170 26v53h436v-53l-147 -26zM641 1453v33l196 272h213v-37l-354 -268h-55z"/>
<glyph glyph-name="Thorn" horiz-adv-x="1139" unicode="Þ" d="M565 1083q492 0 492 -395q0 -206 -124.5 -313t-357.5 -107h-151v-188l172 -27v-53h-524v53l159 27v1182l-159 26v53h524v-53l-172 -26v-179h141zM858 686q0 170 -79.5 245t-256.5 75h-98v-660h104q166 0 248 81.5t82 258.5z"/>
<glyph glyph-name="germandbls" d="M877 997q-45 -5 -92.5 -11.5t-85.5 -24.5t-62.5 -51t-24.5 -91q0 -73 39.5 -128.5t130.5 -119.5q86 -61 128 -136t42 -179q0 -137 -76.5 -206.5t-224.5 -69.5q-62 0 -130.5 13t-102.5 34v192h45l33 -94q23 -28 62.5 -47t90.5 -19q150 0 150 166q0 81 -40.5 141 t-127.5 119q-83 57 -125.5 128.5t-42.5 170.5q0 108 63 175t187 88q0 167 -43 241t-150 74q-194 0 -194 -252v-1110h-306v45l140 25v991q0 188 90.5 284.5t269.5 96.5q187 0 272 -106t85 -339z" unicode="ß"/>
<glyph glyph-name="agrave" horiz-adv-x="909" unicode="à" d="M598 479l-131 -4q-134 -5 -181.5 -52t-47.5 -157q0 -176 143 -176q68 0 117.5 15.5t99.5 39.5v334zM465 961q154 0 226.5 -63t72.5 -193v-635l117 -25v-45h-258l-19 94q-114 -114 -291 -114q-241 0 -241 280q0 94 36.5 155.5t116.5 94t232 35.5l141 4v147q0 97 -35.5 143 t-109.5 46q-100 0 -183 -47l-34 -117h-56v205q162 35 285 35zM544 1119l-354 268v37h213l196 -272v-33h-55z"/>
<glyph glyph-name="aacute" horiz-adv-x="909" unicode="á" d="M598 479l-131 -4q-134 -5 -181.5 -52t-47.5 -157q0 -176 143 -176q68 0 117.5 15.5t99.5 39.5v334zM465 961q154 0 226.5 -63t72.5 -193v-635l117 -25v-45h-258l-19 94q-114 -114 -291 -114q-241 0 -241 280q0 94 36.5 155.5t116.5 94t232 35.5l141 4v147q0 97 -35.5 143 t-109.5 46q-100 0 -183 -47l-34 -117h-56v205q162 35 285 35zM342 1119v33l196 272h213v-37l-354 -268h-55z"/>
<glyph glyph-name="acircumflex" horiz-adv-x="909" unicode="â" d="M598 479l-131 -4q-134 -5 -181.5 -52t-47.5 -157q0 -176 143 -176q68 0 117.5 15.5t99.5 39.5v334zM465 961q154 0 226.5 -63t72.5 -193v-635l117 -25v-45h-258l-19 94q-114 -114 -291 -114q-241 0 -241 280q0 94 36.5 155.5t116.5 94t232 35.5l141 4v147q0 97 -35.5 143 t-109.5 46q-100 0 -183 -47l-34 -117h-56v205q162 35 285 35zM143 1119v33l218 273h213l217 -273v-33h-56l-268 183l-268 -183h-56z"/>
<glyph glyph-name="atilde" horiz-adv-x="909" unicode="ã" d="M598 479l-131 -4q-134 -5 -181.5 -52t-47.5 -157q0 -176 143 -176q68 0 117.5 15.5t99.5 39.5v334zM465 961q154 0 226.5 -63t72.5 -193v-635l117 -25v-45h-258l-19 94q-114 -114 -291 -114q-241 0 -241 280q0 94 36.5 155.5t116.5 94t232 35.5l141 4v147q0 97 -35.5 143 t-109.5 46q-100 0 -183 -47l-34 -117h-56v205q162 35 285 35zM586 1118q-48 0 -88.5 21.5t-76.5 48t-69.5 48t-66.5 21.5q-32 0 -51.5 -12t-30.5 -34.5t-18 -72.5h-52q15 242 195 242q48 0 88.5 -21.5t77 -48t70 -48t65.5 -21.5q43 0 67 25t33 93h52q-15 -241 -195 -241z "/>
<glyph glyph-name="adieresis" horiz-adv-x="909" unicode="ä" d="M598 479l-131 -4q-134 -5 -181.5 -52t-47.5 -157q0 -176 143 -176q68 0 117.5 15.5t99.5 39.5v334zM465 961q154 0 226.5 -63t72.5 -193v-635l117 -25v-45h-258l-19 94q-114 -114 -291 -114q-241 0 -241 280q0 94 36.5 155.5t116.5 94t232 35.5l141 4v147q0 97 -35.5 143 t-109.5 46q-100 0 -183 -47l-34 -117h-56v205q162 35 285 35zM377 1194q0 -42 -28 -71.5t-70 -29.5q-41 0 -71 30t-30 71q0 42 31 71t70 29q42 0 70 -29t28 -71zM733 1194q0 -42 -28 -71.5t-70 -29.5t-71 31t-29 70q0 42 29 71t71 29t70 -29t28 -71z"/>
<glyph glyph-name="aring" horiz-adv-x="909" unicode="å" d="M598 479l-131 -4q-134 -5 -181.5 -52t-47.5 -157q0 -176 143 -176q68 0 117.5 15.5t99.5 39.5v334zM465 961q154 0 226.5 -63t72.5 -193v-635l117 -25v-45h-258l-19 94q-114 -114 -291 -114q-241 0 -241 280q0 94 36.5 155.5t116.5 94t232 35.5l141 4v147q0 97 -35.5 143 t-109.5 46q-100 0 -183 -47l-34 -117h-56v205q162 35 285 35zM594 1280q0 51 -36 87t-87 36t-87 -36t-36 -87q0 -52 37 -87.5t86 -35.5q48 0 85.5 35t37.5 88zM674 1280q0 -84 -59.5 -143.5t-143.5 -59.5t-143.5 59.5t-59.5 143.5t59.5 143.5t143.5 59.5t143.5 -59.5 t59.5 -143.5z"/>
<glyph glyph-name="ae" horiz-adv-x="1366" unicode="æ" d="M946 885q-95 0 -138.5 -74t-43.5 -258h360q0 171 -43.5 251.5t-134.5 80.5zM381 90q115 0 244 68q-9 17 -18 65t-9 96v160l-131 -4q-134 -5 -181.5 -52t-47.5 -157q0 -176 143 -176zM764 473v-90q2 -124 27.5 -182t79 -87.5t141.5 -29.5q54 0 128 9t122 20v-56 q-50 -32 -128 -54.5t-161 -22.5q-230 0 -322 129q-145 -129 -338 -129q-241 0 -241 280q0 94 36.5 155.5t116.5 94t232 35.5l141 4v147q0 97 -35.5 143t-109.5 46q-100 0 -183 -47l-34 -117h-56v205q162 35 285 35q167 0 237 -74q88 78 244 78q175 0 263.5 -104t88.5 -306 v-82h-534z"/>
<glyph glyph-name="ccedilla" horiz-adv-x="909" unicode="ç" d="M846 57q-49 -36 -135 -56.5t-176 -20.5q-457 0 -457 497q0 235 116.5 361.5t333.5 126.5q135 0 295 -31v-262h-55l-43 166q-83 47 -199 47q-268 0 -268 -408q0 -212 81.5 -302.5t252.5 -90.5q146 0 254 33v-60zM706 -234q0 -92 -69.5 -147t-177.5 -55q-76 0 -138 22v74 q22 -7 60 -11.5t60 -4.5q60 0 87 29.5t27 74.5q0 49 -40 80t-112 37l41 153h86l-18 -82q91 -9 142.5 -53t51.5 -117z"/>
<glyph glyph-name="egrave" horiz-adv-x="909" unicode="è" d="M477 885q-104 0 -159.5 -84t-55.5 -248h402q0 179 -46 255.5t-141 76.5zM260 473v-18q0 -138 30.5 -214.5t94 -116.5t166.5 -40q54 0 128 9t122 20v-56q-48 -31 -130.5 -54t-168.5 -23q-219 0 -320.5 118t-101.5 379q0 246 103 367t294 121q361 0 361 -410v-82h-578z M594 1119l-354 268v37h213l196 -272v-33h-55z"/>
<glyph glyph-name="eacute" horiz-adv-x="909" unicode="é" d="M477 885q-104 0 -159.5 -84t-55.5 -248h402q0 179 -46 255.5t-141 76.5zM260 473v-18q0 -138 30.5 -214.5t94 -116.5t166.5 -40q54 0 128 9t122 20v-56q-48 -31 -130.5 -54t-168.5 -23q-219 0 -320.5 118t-101.5 379q0 246 103 367t294 121q361 0 361 -410v-82h-578z M382 1119v33l196 272h213v-37l-354 -268h-55z"/>
<glyph glyph-name="ecircumflex" horiz-adv-x="909" unicode="ê" d="M477 885q-104 0 -159.5 -84t-55.5 -248h402q0 179 -46 255.5t-141 76.5zM260 473v-18q0 -138 30.5 -214.5t94 -116.5t166.5 -40q54 0 128 9t122 20v-56q-48 -31 -130.5 -54t-168.5 -23q-219 0 -320.5 118t-101.5 379q0 246 103 367t294 121q361 0 361 -410v-82h-578z M151 1119v33l218 273h213l217 -273v-33h-56l-268 183l-268 -183h-56z"/>
<glyph glyph-name="edieresis" horiz-adv-x="909" unicode="ë" d="M477 885q-104 0 -159.5 -84t-55.5 -248h402q0 179 -46 255.5t-141 76.5zM260 473v-18q0 -138 30.5 -214.5t94 -116.5t166.5 -40q54 0 128 9t122 20v-56q-48 -31 -130.5 -54t-168.5 -23q-219 0 -320.5 118t-101.5 379q0 246 103 367t294 121q361 0 361 -410v-82h-578z M387 1194q0 -42 -28 -71.5t-70 -29.5q-41 0 -71 30t-30 71q0 42 31 71t70 29q42 0 70 -29t28 -71zM743 1194q0 -42 -28 -71.5t-70 -29.5t-71 31t-29 70q0 42 29 71t71 29t70 -29t28 -71z"/>
<glyph glyph-name="igrave" horiz-adv-x="569" unicode="ì" d="M369 70l161 -25v-45h-487v45l160 25v800l-133 25v45h299v-870zM376 1119l-354 268v37h213l196 -272v-33h-55z"/>
<glyph glyph-name="iacute" horiz-adv-x="569" unicode="í" d="M369 70l161 -25v-45h-487v45l160 25v800l-133 25v45h299v-870zM138 1119v33l196 272h213v-37l-354 -268h-55z"/>
<glyph glyph-name="icircumflex" horiz-adv-x="569" unicode="î" d="M369 70l161 -25v-45h-487v45l160 25v800l-133 25v45h299v-870zM-40 1119v33l218 273h213l217 -273v-33h-56l-268 183l-268 -183h-56z"/>
<glyph glyph-name="idieresis" horiz-adv-x="569" unicode="ï" d="M369 70l161 -25v-45h-487v45l160 25v800l-133 25v45h299v-870zM193 1194q0 -42 -28 -71.5t-70 -29.5q-41 0 -71 30t-30 71q0 42 31 71t70 29q42 0 70 -29t28 -71zM549 1194q0 -42 -28 -71.5t-70 -29.5t-71 31t-29 70q0 42 29 71t71 29t70 -29t28 -71z"/>
<glyph glyph-name="eth" d="M766 444q0 200 -63 289.5t-197 89.5q-130 0 -189 -85t-59 -294q0 -211 59.5 -298t188.5 -87q132 0 196 91t64 294zM229 1102l228 131q-103 74 -219 110v78q181 -44 315 -133l266 156v-94l-194 -115q151 -122 233 -311.5t86 -444.5l2 -35q0 -464 -440 -464 q-212 0 -320 119t-108 345q0 223 108 341t328 118q109 0 197 -35q-48 178 -187 310l-295 -172v96z" unicode="ð"/>
<glyph glyph-name="ntilde" d="M324 864q77 44 164 72.5t145 28.5q122 0 184 -71t62 -206v-618l114 -25v-45h-405v45l125 25v600q0 83 -40.5 130.5t-125.5 47.5q-90 0 -221 -29v-749l127 -25v-45h-406v45l113 25v800l-113 25v45h268zM645 1118q-48 0 -88.5 21.5t-76.5 48t-69.5 48t-66.5 21.5 q-32 0 -51.5 -12t-30.5 -34.5t-18 -72.5h-52q15 242 195 242q48 0 88.5 -21.5t77 -48t70 -48t65.5 -21.5q43 0 67 25t33 93h52q-15 -241 -195 -241z" unicode="ñ"/>
<glyph glyph-name="ograve" d="M766 475q0 216 -63 313t-197 97q-131 0 -189.5 -93t-58.5 -317q0 -227 59.5 -321.5t188.5 -94.5q132 0 196 98t64 318zM946 475q0 -495 -440 -495q-212 0 -320 127t-108 368q0 238 108 364t328 126q214 0 323 -123.5t109 -366.5zM603 1119l-354 268v37h213l196 -272v-33 h-55z" unicode="ò"/>
<glyph glyph-name="oacute" d="M766 475q0 216 -63 313t-197 97q-131 0 -189.5 -93t-58.5 -317q0 -227 59.5 -321.5t188.5 -94.5q132 0 196 98t64 318zM946 475q0 -495 -440 -495q-212 0 -320 127t-108 368q0 238 108 364t328 126q214 0 323 -123.5t109 -366.5zM404 1119v33l196 272h213v-37l-354 -268 h-55z" unicode="ó"/>
<glyph glyph-name="ocircumflex" d="M766 475q0 216 -63 313t-197 97q-131 0 -189.5 -93t-58.5 -317q0 -227 59.5 -321.5t188.5 -94.5q132 0 196 98t64 318zM946 475q0 -495 -440 -495q-212 0 -320 127t-108 368q0 238 108 364t328 126q214 0 323 -123.5t109 -366.5zM187 1119v33l218 273h213l217 -273v-33 h-56l-268 183l-268 -183h-56z" unicode="ô"/>
<glyph glyph-name="otilde" d="M766 475q0 216 -63 313t-197 97q-131 0 -189.5 -93t-58.5 -317q0 -227 59.5 -321.5t188.5 -94.5q132 0 196 98t64 318zM946 475q0 -495 -440 -495q-212 0 -320 127t-108 368q0 238 108 364t328 126q214 0 323 -123.5t109 -366.5zM633 1118q-48 0 -88.5 21.5t-76.5 48 t-69.5 48t-66.5 21.5q-32 0 -51.5 -12t-30.5 -34.5t-18 -72.5h-52q15 242 195 242q48 0 88.5 -21.5t77 -48t70 -48t65.5 -21.5q43 0 67 25t33 93h52q-15 -241 -195 -241z" unicode="õ"/>
<glyph glyph-name="odieresis" d="M766 475q0 216 -63 313t-197 97q-131 0 -189.5 -93t-58.5 -317q0 -227 59.5 -321.5t188.5 -94.5q132 0 196 98t64 318zM946 475q0 -495 -440 -495q-212 0 -320 127t-108 368q0 238 108 364t328 126q214 0 323 -123.5t109 -366.5zM430 1194q0 -42 -28 -71.5t-70 -29.5 q-41 0 -71 30t-30 71q0 42 31 71t70 29q42 0 70 -29t28 -71zM786 1194q0 -42 -28 -71.5t-70 -29.5t-71 31t-29 70q0 42 29 71t71 29t70 -29t28 -71z" unicode="ö"/>
<glyph glyph-name="divide" horiz-adv-x="1124" unicode="÷" d="M1038 731v-102h-953v102h953zM657 297q0 -40 -28 -68t-68 -28q-41 0 -69 28t-28 68t28 68t69 28q40 0 68 -28t28 -68zM657 1063q0 -40 -28 -68t-68 -28q-41 0 -69 28t-28 68t28 68t69 28q40 0 68 -28t28 -68z"/>
<glyph glyph-name="oslash" d="M766 475q0 147 -31 240l-405 -580q60 -76 176 -76q132 0 196 98t64 318zM258 475q0 -161 29 -252l405 578q-62 84 -186 84q-131 0 -189.5 -93t-58.5 -317zM952 1022l-123 -174q117 -127 117 -373q0 -495 -440 -495q-145 0 -242 59l-86 -123h-108l127 178 q-119 125 -119 381q0 238 108 364t328 126q149 0 250 -64l84 121h104z" unicode="ø"/>
<glyph glyph-name="ugrave" d="M313 268q0 -172 160 -172q124 0 232 31v743l-142 25v45h307v-870l119 -25v-45h-274l-8 76q-71 -39 -164 -67.5t-156 -28.5q-240 0 -240 276v614l-120 25v45h286v-672zM559 1119l-354 268v37h213l196 -272v-33h-55z" unicode="ù"/>
<glyph glyph-name="uacute" d="M313 268q0 -172 160 -172q124 0 232 31v743l-142 25v45h307v-870l119 -25v-45h-274l-8 76q-71 -39 -164 -67.5t-156 -28.5q-240 0 -240 276v614l-120 25v45h286v-672zM420 1119v33l196 272h213v-37l-354 -268h-55z" unicode="ú"/>
<glyph glyph-name="ucircumflex" d="M313 268q0 -172 160 -172q124 0 232 31v743l-142 25v45h307v-870l119 -25v-45h-274l-8 76q-71 -39 -164 -67.5t-156 -28.5q-240 0 -240 276v614l-120 25v45h286v-672zM185 1119v33l218 273h213l217 -273v-33h-56l-268 183l-268 -183h-56z" unicode="û"/>
<glyph glyph-name="udieresis" d="M313 268q0 -172 160 -172q124 0 232 31v743l-142 25v45h307v-870l119 -25v-45h-274l-8 76q-71 -39 -164 -67.5t-156 -28.5q-240 0 -240 276v614l-120 25v45h286v-672zM434 1194q0 -42 -28 -71.5t-70 -29.5q-41 0 -71 30t-30 71q0 42 31 71t70 29q42 0 70 -29t28 -71z M790 1194q0 -42 -28 -71.5t-70 -29.5t-71 31t-29 70q0 42 29 71t71 29t70 -29t28 -71z" unicode="ü"/>
<glyph glyph-name="yacute" d="M199 -442q-78 0 -154 18v203h47l33 -96q31 -23 86 -23q52 0 96 30t80.5 89t91.5 211l-358 880l-96 25v45h436v-45l-148 -27l254 -657l246 659l-147 25v45h350v-45l-98 -21l-367 -933q-65 -165 -113 -237t-106 -109t-133 -37zM404 1119v33l196 272h213v-37l-354 -268h-55z " unicode="ý"/>
<glyph glyph-name="thorn" d="M152 1352l-138 24v45h303v-336q0 -56 -6 -200q42 36 112.5 58t143.5 22q180 0 278.5 -125t98.5 -359q0 -239 -107.5 -370t-310.5 -131q-113 0 -215 22q6 -72 6 -113v-254l164 -24v-47h-448v47l119 24v1717zM758 481q0 195 -60.5 287t-185.5 92q-117 0 -195 -33v-751 q89 -17 195 -17q124 0 185 103.5t61 318.5z" unicode="þ"/>
<glyph glyph-name="dotlessi" horiz-adv-x="569" unicode="ı" d="M369 70l161 -25v-45h-487v45l160 25v800l-133 25v45h299v-870z"/>
<glyph glyph-name="OE" horiz-adv-x="1821" unicode="Œ" d="M739 74q78 0 142 10v1173q-50 11 -142 11q-231 0 -338.5 -138.5t-107.5 -457.5q0 -320 107.5 -459t338.5 -139zM1016 0l-277 -6q-325 0 -490 170.5t-165 507.5q0 339 162 507.5t493 168.5l273 -7h622v-321h-65l-33 217q-112 14 -324 14h-137v-524h281l30 160h64v-412h-64 l-30 162h-281v-547h182q258 0 338 16l58 248h65l-18 -354h-684z"/>
<glyph glyph-name="oe" horiz-adv-x="1479" unicode="œ" d="M1063 885q-96 0 -146.5 -84t-50.5 -248h367q0 176 -41.5 254t-128.5 78zM465 885q-110 0 -158.5 -93.5t-48.5 -316.5q0 -224 49 -320t158 -96q113 0 166 100t53 316v27q-5 207 -58 295t-161 88zM864 473v-18q0 -200 68 -285.5t205 -85.5q51 0 120.5 9t112.5 20v-56 q-47 -32 -127 -54.5t-158 -22.5q-218 0 -315 131q-99 -131 -305 -131q-193 0 -290 126.5t-97 368.5q0 238 97.5 364t297.5 126t299 -136q95 136 291 136q344 0 344 -410v-82h-543z"/>
<glyph glyph-name="Scaron" horiz-adv-x="1139" unicode="Š" d="M139 361h65l35 -181q37 -47 127.5 -83t178.5 -36q140 0 218.5 71.5t78.5 197.5q0 72 -30.5 119t-80 79.5t-112.5 55t-129.5 45.5t-129.5 51t-112.5 71t-80 106.5t-30.5 156.5q0 160 120 251t333 91q162 0 352 -43v-279h-65l-35 164q-102 74 -252 74q-134 0 -209.5 -54.5 t-75.5 -150.5q0 -65 30.5 -108t80 -73.5t113 -52.5t130 -45.5t130 -53t113 -75t80 -111t30.5 -161.5q0 -194 -119 -300.5t-343 -106.5q-108 0 -217 19t-194 52v310zM331 1759l268 -183l268 183h56v-33l-217 -273h-213l-218 273v33h56z"/>
<glyph glyph-name="scaron" horiz-adv-x="797" unicode="š" d="M723 264q0 -140 -88.5 -212t-261.5 -72q-70 0 -154.5 14.5t-132.5 32.5v231h45l49 -131q75 -68 195 -68q194 0 194 166q0 122 -153 174l-89 29q-101 33 -147 67t-71 83.5t-25 119.5q0 124 84.5 195.5t228.5 71.5q103 0 258 -31v-205h-47l-42 109q-53 47 -167 47 q-81 0 -123.5 -40t-42.5 -108q0 -57 38.5 -96t116.5 -65q147 -50 192 -73t76.5 -56.5t49 -76.5t17.5 -106zM148 1425l268 -183l268 183h56v-33l-217 -273h-213l-218 273v33h56z"/>
<glyph glyph-name="Ydieresis" horiz-adv-x="1479" unicode="Ÿ" d="M838 528v-448l213 -27v-53h-619v53l213 27v442l-471 740l-151 26v53h567v-53l-180 -26l385 -619l366 619l-170 26v53h436v-53l-147 -26zM672 1559q0 -42 -28 -71.5t-70 -29.5q-41 0 -71 30t-30 71q0 42 31 71t70 29q42 0 70 -29t28 -71zM1028 1559q0 -42 -28 -71.5 t-70 -29.5t-71 31t-29 70q0 42 29 71t71 29t70 -29t28 -71z"/>
<glyph glyph-name="circumflex" horiz-adv-x="682" unicode="ˆ" d="M18 1119v33l218 273h213l217 -273v-33h-56l-268 183l-268 -183h-56z"/>
<glyph glyph-name="caron" horiz-adv-x="682" unicode="ˇ" d="M74 1425l268 -183l268 183h56v-33l-217 -273h-213l-218 273v33h56z"/>
<glyph glyph-name="ring" horiz-adv-x="682" unicode="˚" d="M463 1280q0 51 -36 87t-87 36t-87 -36t-36 -87q0 -52 37 -87.5t86 -35.5q48 0 85.5 35t37.5 88zM543 1280q0 -84 -59.5 -143.5t-143.5 -59.5t-143.5 59.5t-59.5 143.5t59.5 143.5t143.5 59.5t143.5 -59.5t59.5 -143.5z"/>
<glyph glyph-name="tilde" horiz-adv-x="682" unicode="˜" d="M471 1118q-48 0 -88.5 21.5t-76.5 48t-69.5 48t-66.5 21.5q-32 0 -51.5 -12t-30.5 -34.5t-18 -72.5h-52q15 242 195 242q48 0 88.5 -21.5t77 -48t70 -48t65.5 -21.5q43 0 67 25t33 93h52q-15 -241 -195 -241z"/>
<glyph glyph-name="Alpha" horiz-adv-x="1479" unicode="Α" d="M676 1208l-230 -651h467zM461 53v-53h-441v53l152 27l457 1272h190l475 -1272l170 -27v-53h-567v53l180 27l-133 387h-528l-135 -387z"/>
<glyph glyph-name="Beta" horiz-adv-x="1366" unicode="Β" d="M59 0v53l172 27v1182l-172 26v53h613q255 0 373 -75.5t118 -239.5q0 -118 -72.5 -201t-203.5 -111q181 -19 280 -105.5t99 -222.5q0 -193 -133.5 -292.5t-389.5 -99.5l-428 6h-256zM1059 382q0 141 -94 206.5t-301 65.5h-240v-564q138 -6 294 -6q171 0 256 72.5t85 225.5 zM958 1016q0 123 -77 179t-250 56h-207v-507h219q162 0 238.5 64t76.5 208z"/>
<glyph glyph-name="Gamma" horiz-adv-x="1184" unicode="Γ" d="M631 0h-572v53l172 26v1182l-172 27v53h1041l18 -385h-65l-62 279q-100 20 -313 20h-254v-1176l207 -26v-53z"/>
<glyph glyph-name="Delta" horiz-adv-x="1317" unicode="Δ" d="M606 1196l-400 -1087h806zM1240 0h-1161l-1 80l477 1272h190l495 -1272v-80z"/>
<glyph glyph-name="Epsilon" horiz-adv-x="1251" unicode="Ε" d="M59 53l172 27v1182l-172 26v53h1006v-321h-66l-32 217q-112 14 -324 14h-219v-524h362l31 160h64v-412h-64l-31 162h-362v-547h264q258 0 338 16l57 248h66l-19 -354h-1071v53z"/>
<glyph glyph-name="Zeta" horiz-adv-x="1251" unicode="Ζ" d="M98 94l752 1161h-250q-247 0 -340 -20l-31 -211h-69v317h913v-86l-757 -1171h290q116 0 235.5 11t168.5 22l59 256h70l-27 -373h-1014v94z"/>
<glyph glyph-name="Eta" horiz-adv-x="1479" unicode="Η" d="M59 0v53l172 27v1182l-172 26v53h537v-53l-172 -26v-527h631v527l-172 26v53h536v-53l-172 -26v-1182l172 -27v-53h-536v53l172 27v565h-631v-565l172 -27v-53h-537z"/>
<glyph glyph-name="Theta" horiz-adv-x="1479" unicode="Θ" d="M558 610l-31 -142h-64v412h64l31 -140h362l31 140h64v-412h-64l-31 142h-362zM84 672q0 684 655 684q324 0 490 -173.5t166 -510.5q0 -342 -168 -517t-488 -175q-319 0 -487 174.5t-168 517.5zM293 672q0 -323 108 -468t338 -145q229 0 338 145t109 468 q0 321 -108.5 462.5t-338.5 141.5q-231 0 -338.5 -141.5t-107.5 -462.5z"/>
<glyph glyph-name="Iota" horiz-adv-x="682" unicode="Ι" d="M438 80l172 -27v-53h-536v53l172 27v1182l-172 26v53h536v-53l-172 -26v-1182z"/>
<glyph glyph-name="Kappa" horiz-adv-x="1479" unicode="Κ" d="M1353 1341v-53l-155 -26l-458 -448l573 -734l145 -27v-53h-328l-525 678l-181 -145v-453l192 -27v-53h-557v53l172 27v1182l-172 26v53h537v-53l-172 -26v-632l642 632l-133 26v53h420z"/>
<glyph glyph-name="Lambda" horiz-adv-x="1485" unicode="Λ" d="M281 80l180 -27v-53h-441v53l145 27l464 1272h190l475 -1272l170 -27v-53h-567v53l180 27l-395 1117z"/>
<glyph glyph-name="Mu" horiz-adv-x="1821" unicode="Μ" d="M862 0h-35l-491 1153v-1073l180 -27v-53h-457v53l172 27v1182l-172 26v53h406l436 -1020l476 1020h384v-53l-172 -26v-1182l172 -27v-53h-544v53l180 27v1073z"/>
<glyph glyph-name="Nu" horiz-adv-x="1479" unicode="Ν" d="M1155 1262l-180 26v53h457v-53l-172 -26v-1262h-97l-827 1206v-1126l180 -27v-53h-457v53l172 27v1182l-172 26v53h406l690 -993v914z"/>
<glyph glyph-name="Xi" horiz-adv-x="1317" unicode="Ξ" d="M450 610l-31 -142h-64v412h64l31 -140h416l31 140h64v-412h-64l-31 142h-416zM602 1181q-216 0 -324 -14l-52 -157h-66l20 331h957l20 -331h-66l-52 157q-112 14 -324 14h-113zM745 170q258 0 338 16l57 188h66l-19 -374h-1058l-19 374h66l57 -188q35 -7 142.5 -11.5 t222.5 -4.5h147z"/>
<glyph glyph-name="Omicron" horiz-adv-x="1479" unicode="Ο" d="M84 672q0 684 655 684q324 0 490 -173.5t166 -510.5q0 -342 -168 -517t-488 -175q-319 0 -487 174.5t-168 517.5zM293 672q0 -323 108 -468t338 -145q229 0 338 145t109 468q0 321 -108.5 462.5t-338.5 141.5q-231 0 -338.5 -141.5t-107.5 -462.5z"/>
<glyph glyph-name="Pi" horiz-adv-x="1479" unicode="Π" d="M59 0v53l172 27v1182l-172 26v53h1360v-53l-172 -26v-1182l172 -27v-53h-536v53l172 27v1171h-631v-1171l172 -27v-53h-537z"/>
<glyph glyph-name="Rho" horiz-adv-x="1139" unicode="Ρ" d="M424 526v-446l213 -27v-53h-565v53l159 27v1182l-172 26v53h506q492 0 492 -395q0 -206 -124.5 -313t-357.5 -107h-151zM858 944q0 165 -77 236t-259 71h-98v-635h104q169 0 249.5 77t80.5 251z"/>
<glyph glyph-name="Sigma" horiz-adv-x="1192" unicode="Σ" d="M678 748v-51l-403 -527h261q104 0 250.5 4.5t179.5 11.5l57 188h66l-19 -374h-990v74l438 572l-430 616v79h921v-321h-66l-42 217q-112 14 -306 14h-266z"/>
<glyph glyph-name="Tau" horiz-adv-x="1251" unicode="Τ" d="M315 0v53l213 27v1175h-51q-253 0 -346 -20l-27 -209h-67v315h1180v-315h-68l-27 209q-30 7 -131 12.5t-221 5.5h-49v-1173l213 -27v-53h-619z"/>
<glyph glyph-name="Upsilon" horiz-adv-x="1479" unicode="Υ" d="M838 528v-448l213 -27v-53h-619v53l213 27v442l-471 740l-151 26v53h567v-53l-180 -26l385 -619l366 619l-170 26v53h436v-53l-147 -26z"/>
<glyph glyph-name="Phi" horiz-adv-x="1497" unicode="Φ" d="M261 690q0 -191 85 -290.5t245 -99.5h66v760h-60q-166 0 -251 -93t-85 -277zM906 300q160 0 245 99.5t85 290.5q0 184 -85 277t-251 93h-61v-760h67zM839 80l172 -27v-53h-526v53l172 27v142h-113q-146 0 -253 53t-168 162t-61 255q0 214 129 329.5t363 115.5h103v125 l-172 26v53h526v-53l-172 -26v-125h104q234 0 363 -115.5t129 -329.5q0 -145 -60.5 -254t-167.5 -162.5t-254 -53.5h-114v-142z"/>
<glyph glyph-name="Chi" horiz-adv-x="1479" unicode="Χ" d="M317 80l166 -27v-53h-438v53l148 27l456 606l-389 576l-151 26v53h553v-53l-170 -26l278 -414l311 414l-166 26v53h439v-53l-148 -26l-377 -502l461 -680l152 -27v-53h-553v53l170 27l-352 520z"/>
<glyph glyph-name="Psi" horiz-adv-x="1511" unicode="Ψ" d="M846 80l182 -27v-53h-546v53l182 27v426q-280 0 -408 99t-128 326v331l-122 26v53h314v-415q0 -171 82 -255.5t262 -85.5v677l-182 26v53h546v-53l-182 -26v-677q181 1 263.5 85t82.5 256v415h314v-53l-122 -26v-331q0 -226 -127.5 -325.5t-410.5 -99.5v-426z"/>
<glyph glyph-name="alpha" horiz-adv-x="1073" unicode="α" d="M724 463q-26 226 -83 324.5t-157 98.5q-225 0 -225 -433q0 -184 47 -279.5t125 -95.5q60 0 107.5 38t87 108t98.5 239zM1024 45v-45h-212q-37 118 -66 274h-6q-72 -137 -118 -189.5t-102 -78.5t-129 -26q-150 0 -231.5 123t-81.5 350q0 242 102.5 377.5t288.5 135.5 q128 0 203 -64t122 -212h6l70 250h157v-40q-23 -36 -54 -107t-121 -310q57 -246 124 -423z"/>
<glyph glyph-name="beta" horiz-adv-x="1042" unicode="β" d="M735 1096q0 128 -49 197t-146 69q-130 0 -186 -101.5t-56 -323.5v-831q118 -38 254 -38q228 0 228 321q0 161 -75 239t-230 84v78q135 4 197.5 76t62.5 230zM298 -436h-166v1377q0 251 100.5 376t309.5 125q169 0 266 -90.5t97 -252.5q0 -133 -66.5 -223t-174.5 -113v-10 q148 -31 219.5 -119t71.5 -242q0 -196 -101.5 -304t-289.5 -108q-144 0 -266 53v-469z"/>
<glyph glyph-name="gamma" horiz-adv-x="905" unicode="γ" d="M-3 895v45h218q60 -135 136.5 -348.5t135.5 -417.5h8l170 408q24 54 41.5 117t17.5 100q0 41 -23 65t-47 31v45h193q11 -17 11 -76q0 -92 -87 -283l-248 -563q13 -79 21 -222.5t8 -220.5l-159 -11l-46 29q0 89 10.5 199.5t27.5 199.5q-130 381 -174 499.5t-84 215.5 t-75 166z"/>
<glyph glyph-name="delta" horiz-adv-x="965" unicode="δ" d="M249 391q0 -160 62 -246t176 -86q109 0 168 89.5t59 273.5q0 118 -43 206.5t-142 172.5l-25 20q-138 -48 -196.5 -154.5t-58.5 -275.5zM251 1188q0 112 85 177.5t228 65.5q97 0 246 -31v-205h-47l-42 109q-53 47 -155 47q-81 0 -123.5 -40t-42.5 -108q0 -55 42.5 -112.5 t188.5 -175.5q142 -117 199.5 -223.5t57.5 -241.5q0 -221 -104.5 -345.5t-297.5 -124.5q-196 0 -302.5 108t-106.5 311q0 184 95 306t272 168q-109 96 -151 167.5t-42 147.5z"/>
<glyph glyph-name="epsilon" horiz-adv-x="860" unicode="ε" d="M801 70q-137 -90 -344 -90q-183 0 -280.5 75.5t-97.5 213.5q0 91 60.5 153.5t163.5 83.5v7q-184 61 -184 212q0 112 104 176t281 64q142 0 269 -36l-1 -196h-48l-57 113q-27 16 -75.5 28.5t-94.5 12.5q-100 0 -154.5 -44.5t-54.5 -124.5q0 -68 33.5 -114.5t89.5 -62.5 q40 4 119.5 7.5t105.5 3.5h32v-96h-32q-68 0 -243 13q-69 -20 -105 -70.5t-36 -120.5q0 -90 67.5 -142t186.5 -52q69 0 136 10t159 41v-65z"/>
<glyph glyph-name="zeta" horiz-adv-x="848" unicode="ζ" d="M802 -82q0 -97 -66 -162.5t-224 -117.5v65q80 31 116 69.5t36 92.5q0 58 -52 87t-154 49q-195 39 -282 124.5t-87 247.5q0 188 133 418t436 549v4l-505 -78v114q417 27 627 58v-68q-222 -265 -314 -410.5t-139.5 -283.5t-47.5 -283q0 -72 25 -119.5t74.5 -78t175.5 -61.5 q123 -29 185.5 -78.5t62.5 -137.5z"/>
<glyph glyph-name="eta" horiz-adv-x="1071" unicode="η" d="M32 940h288l9 -95q206 120 334 120q126 0 192.5 -71t66.5 -206v-618q0 -128 12.5 -268t29.5 -193v-45h-175q-33 180 -33 494v612q0 88 -41 133t-134 45q-96 0 -250 -67v-781h-166v870l-133 25v45z"/>
<glyph glyph-name="theta" horiz-adv-x="981" unicode="θ" d="M484 59q115 0 169.5 137.5t59.5 465.5h-437q2 -345 50.5 -474t157.5 -129zM484 1352q-76 0 -120.5 -57.5t-65 -175t-22.5 -369.5h438q-5 329 -59 465.5t-171 136.5zM894 710q0 -371 -102 -550.5t-308 -179.5q-196 0 -292 180.5t-96 549.5q0 368 97.5 545t298.5 177 q202 0 302 -183.5t100 -538.5z"/>
<glyph glyph-name="iota" horiz-adv-x="551" unicode="ι" d="M344 214q0 -65 23.5 -97.5t61.5 -32.5q46 0 113 16v-65q-35 -25 -90 -40t-106 -15q-85 0 -126.5 57t-41.5 160v673l-133 25v45h299v-726z"/>
<glyph glyph-name="kappa" horiz-adv-x="1032" unicode="κ" d="M324 453l434 487h185v-45l-117 -23l-264 -278l340 -526l102 -23v-45h-256l-292 474l-132 -110v-364h-166v871l-119 24v45h285v-487z"/>
<glyph glyph-name="lambda" horiz-adv-x="993" unicode="λ" d="M549 764q-34 -94 -321 -764h-174v33l430 953l-45 138q-72 224 -174 224q-28 0 -57 -12l-40 -83h-49v170q69 19 148 19q93 0 151 -61t114 -229l334 -1005q16 -48 49 -70t67 -32v-45h-196z"/>
<glyph glyph-name="mu" horiz-adv-x="1098" unicode="μ" d="M895 940v-870l119 -25v-45h-274l-8 86q-154 -106 -267 -106q-79 0 -133 47v-465h-166v1378h166v-672q0 -172 166 -172q106 0 232 45v799h165z"/>
<glyph glyph-name="nu" horiz-adv-x="926" unicode="ν" d="M739 794q0 44 -24.5 68t-53.5 33v45h198q19 -33 19 -79q0 -80 -59 -204l-322 -677h-71l-350 890l-71 25v45h233l276 -736l156 346q34 76 51.5 141t17.5 103z"/>
<glyph glyph-name="xi" horiz-adv-x="913" unicode="ξ" d="M584 802q99 11 151 11h32v-106h-32l-149 13q-158 -51 -235.5 -130.5t-77.5 -200.5q0 -66 24.5 -107.5t69 -68.5t107.5 -44t140 -34q124 -27 188.5 -78t64.5 -139q0 -97 -66 -162.5t-224 -117.5v65q80 31 116 69.5t36 92.5q0 53 -46.5 84.5t-159.5 51.5q-241 44 -337 125 t-96 230q0 125 100.5 225.5t298.5 165.5v11q-117 33 -193 109t-76 169q0 221 408 313v3l-488 -26v97h84h106q326 2 452 8v-86q-196 -37 -297 -117.5t-101 -196.5q0 -87 58 -150.5t142 -78.5z"/>
<glyph glyph-name="omicron" d="M766 475q0 216 -63 313t-197 97q-131 0 -189.5 -93t-58.5 -317q0 -227 59.5 -321.5t188.5 -94.5q132 0 196 98t64 318zM946 475q0 -495 -440 -495q-212 0 -320 127t-108 368q0 238 108 364t328 126q214 0 323 -123.5t109 -366.5z" unicode="ο"/>
<glyph glyph-name="pi" horiz-adv-x="1034" unicode="π" d="M363 856q-51 -633 -61.5 -723.5t-21.5 -132.5h-183v45q52 54 73.5 94.5t34 97.5t20.5 147l42 472h-134l-48 -128h-57l21 212h954v-84h-188v-642q0 -65 24 -97.5t62 -32.5q29 0 82 16v-65q-24 -20 -66 -37.5t-90 -17.5q-178 0 -178 217v659h-286z"/>
<glyph glyph-name="rho" horiz-adv-x="1022" unicode="ρ" d="M514 60q124 0 187 92.5t63 266.5q0 142 -34 240.5t-95.5 149.5t-142.5 51q-195 0 -195 -285v-472q108 -43 217 -43zM132 561q0 195 92.5 297.5t261.5 102.5q130 0 234.5 -65t161.5 -185t57 -279q0 -141 -50.5 -242.5t-142 -155.5t-208.5 -54t-241 42v-458h-165v997z"/>
<glyph glyph-name="sigma1" horiz-adv-x="811" unicode="ς" d="M508 892q-110 0 -180 -142.5t-70 -359.5q0 -70 26 -114.5t78 -73.5t206 -67q111 -27 167 -77.5t56 -138.5q0 -97 -65 -162t-225 -119v66q81 32 116.5 70.5t35.5 93.5q0 57 -46.5 86t-139.5 48q-217 44 -304.5 125t-87.5 230q0 164 58 305t158.5 222t216.5 81 q112 0 239 -34v-217h-55l-43 129q-66 49 -141 49z"/>
<glyph glyph-name="sigma" horiz-adv-x="1104" unicode="σ" d="M533 59q113 0 177 101t64 284q0 137 -33 244.5t-91 167.5q-190 0 -291 -103.5t-101 -301.5q0 -185 74.5 -288.5t200.5 -103.5zM1016 1048h57l-18 -192h-291v-7q93 -81 142.5 -188.5t49.5 -222.5q0 -213 -117.5 -335.5t-315.5 -122.5q-203 0 -324 135t-121 358 q0 219 142.5 343t390.5 124h349z"/>
<glyph glyph-name="tau" horiz-adv-x="823" unicode="τ" d="M150 856l-48 -128h-57l21 212h712v-84h-294v-642q0 -130 104 -130q41 0 108 16v-65q-24 -20 -79 -37.5t-105 -17.5q-88 0 -141 53.5t-53 163.5v659h-168z"/>
<glyph glyph-name="upsilon" horiz-adv-x="1014" unicode="υ" d="M514 -20q-178 0 -272.5 88.5t-94.5 256.5v545l-120 25v45h286v-658q0 -100 52.5 -158t149.5 -58q124 0 180.5 90.5t56.5 304.5q0 174 -25.5 282t-92.5 148l-1 73q155 -33 227.5 -153.5t72.5 -330.5q0 -238 -110.5 -369t-308.5 -131z"/>
<glyph glyph-name="phi" horiz-adv-x="1182" unicode="φ" d="M923 478q0 199 -44 303t-124 104q-111 0 -111 -215v-610q143 21 211 122.5t68 295.5zM644 -436h-106v420q-232 17 -345.5 134.5t-113.5 347.5q0 223 83 343.5t278 154.5l-1 -73q-96 -36 -137.5 -130.5t-41.5 -288.5q0 -192 67 -291.5t211 -122.5v612q0 142 61 219t174 77 q157 0 243 -120.5t86 -353.5q0 -227 -118 -358t-340 -151v-419z"/>
<glyph glyph-name="chi" horiz-adv-x="909" unicode="χ" d="M747 -436q-12 8 -33.5 48t-33.5 70l-214 483q-199 -392 -290 -601h-178v33q314 585 389 730l-229 480q-32 69 -137 88v45h183q25 -17 54 -86l188 -437q153 306 246 523h175v-39q-156 -275 -340 -643l266 -561q22 -47 47.5 -65t59.5 -23v-45h-153z"/>
<glyph glyph-name="psi" horiz-adv-x="1282" unicode="ψ" d="M695 60q275 15 275 240v640h286v-45l-121 -25v-550q0 -323 -440 -337v-419h-106v418q-221 7 -331.5 88.5t-110.5 249.5v550l-120 25v45h286v-640q0 -225 276 -240v1172h106v-1172z"/>
<glyph glyph-name="uni03D1" horiz-adv-x="1014" unicode="ϑ" d="M792 1061q0 144 -29.5 214t-95.5 70q-58 0 -91 -51.5t-33 -147.5q0 -206 158 -206h91v121zM958 856v-376q0 -239 -111.5 -369.5t-313.5 -130.5q-188 0 -287 86.5t-99 258.5v545l-120 25v45h286v-658q0 -101 56 -158.5t165 -57.5q138 0 198 89.5t60 305.5v395h-89 q-119 0 -185 73t-66 210q0 135 64 208.5t177 73.5q137 0 201 -96t64 -313v-72h56v-84h-56z"/>
<glyph glyph-name="uni03D2" horiz-adv-x="1479" unicode="ϒ" d="M1285 1356q109 0 207 -49l7 -266h-67l-50 121q-43 105 -145 105q-95 0 -191 -110.5t-152 -289t-56 -387.5v-400l213 -27v-53h-619v53l213 27v442q0 199 -83.5 379.5t-221.5 283.5t-297 103v53q338 0 530.5 -171.5t219.5 -494.5q18 196 88 352.5t176.5 242.5t227.5 86z "/>
<glyph glyph-name="uni03D6" horiz-adv-x="1348" unicode="ϖ" d="M261 418q0 -154 53.5 -245t147.5 -91q60 0 108.5 58t63.5 156l-9 54q-27 153 -27 206v52h166v-52q0 -55 -38 -260q17 -100 61 -154.5t104 -54.5q94 0 145 87.5t51 243.5q0 311 -189 438h-449q-188 -125 -188 -438zM1268 421q0 -207 -87 -324t-244 -117q-183 0 -256 188 h-8q-73 -188 -257 -188q-156 0 -246 117t-90 324q0 288 193 435h-168l-48 -128h-57l21 212h1247v-84h-193q193 -149 193 -435z"/>
<glyph glyph-name="uni2002" unicode=" "/>
<glyph glyph-name="uni2003" horiz-adv-x="2048" unicode=" "/>
<glyph glyph-name="uni200C" horiz-adv-x="0" unicode="‌" d="M42 1287v-1560h-84v1560h84z"/>
<glyph glyph-name="uni200D" horiz-adv-x="0" unicode="‍" d="M42 -273h-84v1369l-127 -128l-55 55l169 168l-169 167l55 56l169 -170l169 170l55 -56l-169 -167l169 -168l-55 -55l-127 128v-1369z"/>
<glyph glyph-name="uni200E" horiz-adv-x="0" unicode="‎" d="M435 1193l-223 -219l-55 55l132 125h-248v-1427h-82v1506h330l-132 125l55 56z"/>
<glyph glyph-name="endash" d="M1038 528v-102h-1052v102h1052z" unicode="–"/>
<glyph glyph-name="emdash" horiz-adv-x="2048" unicode="—" d="M2062 528v-102h-2076v102h2076z"/>
<glyph glyph-name="quoteleft" horiz-adv-x="682" unicode="‘" d="M197 999q0 135 78 227.5t227 137.5v-78q-176 -56 -176 -168q0 -21 15 -35.5t53 -34.5q67 -35 67 -100q0 -54 -34 -82t-87 -28q-61 0 -102 43.5t-41 117.5z"/>
<glyph glyph-name="quotesinglbase" horiz-adv-x="682" unicode="‚" d="M483 49q0 -137 -79.5 -229.5t-225.5 -134.5v77q176 56 176 168q0 20 -15 36t-52 35q-68 35 -68 99q0 54 34 82.5t87 28.5q61 0 102 -43.5t41 -118.5z"/>
<glyph glyph-name="quotedblleft" horiz-adv-x="909" unicode="“" d="M98 999q0 135 78 227.5t227 137.5v-78q-176 -56 -176 -168q0 -21 15 -35.5t53 -34.5q67 -35 67 -100q0 -54 -34 -82t-86 -28q-64 0 -104 45.5t-40 115.5zM518 999q0 135 78 227.5t227 137.5v-78q-176 -56 -176 -168q0 -21 15 -35.5t53 -34.5q67 -35 67 -100 q0 -54 -34 -82t-86 -28q-64 0 -104 45.5t-40 115.5z"/>
<glyph glyph-name="quotedblright" horiz-adv-x="909" unicode="”" d="M811 1200q0 -137 -79.5 -229.5t-225.5 -134.5v77q176 56 176 168q0 20 -15 36t-52 35q-68 35 -68 99q0 54 34 82.5t87 28.5q64 0 103.5 -46t39.5 -116zM391 1200q0 -137 -79.5 -229.5t-225.5 -134.5v77q176 56 176 168q0 20 -15 36t-52 35q-68 35 -68 99q0 54 34 82.5 t87 28.5q61 0 102 -43.5t41 -118.5z"/>
<glyph glyph-name="dagger" d="M612 780l-77 -1020h-46l-73 1020l63 160l-416 -47v156l416 -43l-43 415h156l-47 -415l416 43v-156l-416 47z" unicode="†"/>
<glyph glyph-name="daggerdbl" d="M416 401l73 189l-73 190l63 160l-416 -47v156l416 -43l-43 415h156l-47 -415l416 43v-156l-416 47l67 -160l-77 -190l77 -189l-67 -159l416 47v-156l-416 43l47 -416h-156l43 416l-416 -43v156l416 -47z" unicode="‡"/>
<glyph glyph-name="ellipsis" horiz-adv-x="2048" unicode="…" d="M1831 92q0 -49 -34.5 -85t-86.5 -36t-86.5 36t-34.5 85q0 51 35 86t86 35t86 -35t35 -86zM1145 92q0 -49 -34.5 -85t-86.5 -36t-86.5 36t-34.5 85q0 51 35 86t86 35t86 -35t35 -86zM459 92q0 -49 -34.5 -85t-86.5 -36t-86.5 36t-34.5 85q0 51 35 86t86 35t86 -35t35 -86z "/>
<glyph glyph-name="perthousand" horiz-adv-x="2048" unicode="‰" d="M266 -20h-110l948 1382h110zM1845 324q0 139 -34 205.5t-119 66.5q-89 0 -127.5 -59.5t-38.5 -212.5q0 -155 39 -217t127 -62q85 0 119 71t34 208zM2001 324q0 -177 -75 -265t-234 -88q-322 0 -322 353q0 178 81 262t247 84q303 0 303 -346zM1167 324q0 139 -34 205.5 t-119 66.5q-89 0 -127.5 -59.5t-38.5 -212.5q0 -155 39 -217t127 -62q85 0 119 71t34 208zM1323 324q0 -177 -75 -265t-234 -88q-322 0 -322 353q0 178 81 262t247 84q148 0 225.5 -82.5t77.5 -263.5zM520 1016q0 139 -34 205.5t-119 66.5q-89 0 -127.5 -59.5t-38.5 -212.5 q0 -155 39 -217t127 -62q85 0 119 71t34 208zM676 1016q0 -177 -75 -264.5t-234 -87.5q-322 0 -322 352q0 178 81 262t247 84q303 0 303 -346z"/>
<glyph glyph-name="minute" horiz-adv-x="448" unicode="′" d="M150 1341h197l-172 -481h-74z"/>
<glyph glyph-name="second" horiz-adv-x="853" unicode="″" d="M160 1341h197l-172 -481h-74zM545 1341h197l-172 -481h-74z"/>
<glyph glyph-name="guilsinglleft" horiz-adv-x="682" unicode="‹" d="M133 496l334 356h82l-228 -389l228 -389h-82l-334 356v66z"/>
<glyph glyph-name="guilsinglright" horiz-adv-x="682" unicode="›" d="M549 430l-334 -356h-82l228 389l-228 389h82l334 -356v-66z"/>
<glyph glyph-name="uni203E" horiz-adv-x="682" unicode="‾" d="M743 1540h-803v80h803v-80z"/>
<glyph glyph-name="fraction" horiz-adv-x="342" unicode="⁄" d="M-260 0h-102l964 1341h100z"/>
<glyph glyph-name="fraction" horiz-adv-x="342" unicode="∕" d="M-260 0h-102l964 1341h100z"/>
<glyph glyph-name="foursuperior" horiz-adv-x="614" unicode="⁴" d="M365 1186h-2l-277 -389h279v389zM502 694v-159h-137v159h-361v97l391 550h107v-544h101v-103h-101z"/>
<glyph glyph-name="Euro" d="M143 829q31 269 159 398t339 129q74 0 149.5 -10.5t178.5 -40.5l4 -252h-68l-20 133q-45 43 -104 66.5t-119 23.5q-144 0 -219 -111.5t-93 -335.5h350v-81h-354q-2 -68 -2 -91q0 -56 2 -73h354v-82h-350q20 -226 99.5 -335.5t207.5 -109.5q77 0 141.5 28t102.5 73l25 159 h67l-4 -274q-168 -63 -348 -63q-208 0 -337.5 135t-160.5 387h-112v82h106q-2 53 -2 71q0 70 2 93h-106v81h112z" unicode="€"/>
<glyph glyph-name="trademark" horiz-adv-x="2007" unicode="™" d="M1380 537h-28l-285 669v-610l109 -16v-43h-285v43l104 16v688l-104 16v41h270l244 -583l264 583h254v-41l-102 -16v-688l102 -16v-43h-348v43l108 16v608zM254 537v43l127 16v684h-31q-146 0 -196 -12l-17 -125h-41v198h709v-198h-41l-16 125q-44 10 -201 10h-29v-682 l127 -16v-43h-391z"/>
<glyph glyph-name="arrowleft" horiz-adv-x="2048" unicode="←" d="M641 297q57 -67 119 -197h-72q-127 149 -270 222v36q143 73 270 222h72q-62 -130 -119 -197h989v-86h-989z"/>
<glyph glyph-name="arrowup" d="M469 928q-67 -57 -197 -119v72q149 127 222 270h36q73 -143 222 -270v-72q-130 62 -197 119v-989h-86v989z" unicode="↑"/>
<glyph glyph-name="arrowright" horiz-adv-x="2048" unicode="→" d="M1407 383q-57 67 -119 197h72q127 -149 270 -222v-36q-143 -73 -270 -222h-72q62 130 119 197h-989v86h989z"/>
<glyph glyph-name="arrowdown" d="M555 162q67 57 197 119v-72q-149 -127 -222 -270h-36q-73 143 -222 270v72q130 -62 197 -119v989h86v-989z" unicode="↓"/>
<glyph glyph-name="partialdiff" horiz-adv-x="1012" unicode="∂" d="M813 643q-18 92 -78.5 152.5t-138.5 60.5q-91 0 -166 -69t-123.5 -206t-48.5 -276q0 -124 52 -193t141 -69q81 0 154.5 70.5t129.5 211.5t78 318zM928 938q0 -170 -36 -359t-107.5 -326.5t-172 -208.5t-224.5 -71q-152 0 -236 93.5t-84 265.5q0 155 70 306t180 226.5 t246 75.5q93 0 164.5 -49.5t105.5 -132.5h4l4 116q0 227 -74.5 348t-216.5 121q-107 0 -228 -84l-36 33l105 150q79 35 157 35q183 0 281 -138.5t98 -400.5z"/>
<glyph glyph-name="product" horiz-adv-x="1686" unicode="∏" d="M114 -436v53l172 27v1618l-172 26v53h1460v-53l-172 -26v-1618l172 -27v-53h-536v53l172 27v1607h-731v-1607l172 -27v-53h-537z"/>
<glyph glyph-name="summation" horiz-adv-x="1460" unicode="∑" d="M831 587v-39l-557 -814h445q41 0 89.5 0.5t98 1.5t97 3t86 3.5t66.5 3.5t38 4l57 228h66l-19 -414h-1206v74l578 843l-533 781v79h1105v-351h-66l-42 247q-96 12 -212.5 12h-139.5l-404 2z"/>
<glyph glyph-name="minus" horiz-adv-x="1155" unicode="−" d="M1055 731v-102h-953v102h953z"/>
<glyph glyph-name="radical" horiz-adv-x="1124" unicode="√" d="M623 -14h-107l-297 829h-168v80h271l258 -737l452 1462h90z"/>
<glyph glyph-name="infinity" horiz-adv-x="1460" unicode="∞" d="M645 596q-57 140 -123.5 211.5t-156.5 71.5q-93 0 -152.5 -80.5t-59.5 -204.5q0 -126 58.5 -203.5t157.5 -77.5q81 0 148 70.5t128 212.5zM1088 872q-80 0 -146.5 -70t-130.5 -212q60 -141 126.5 -212t152.5 -71q96 0 156.5 80t60.5 205q0 120 -61 200t-158 80zM1382 590 q0 -165 -89.5 -276t-225.5 -111q-210 0 -351 264q-64 -127 -146 -192.5t-175 -65.5q-142 0 -230 106t-88 281q0 169 89 278t229 109q105 0 194 -64t154 -194q64 125 142.5 188.5t183.5 63.5q142 0 227.5 -107.5t85.5 -279.5z"/>
<glyph glyph-name="intersection" horiz-adv-x="1479" unicode="∩" d="M282 -2v512q0 150 58 269.5t162.5 186t234.5 66.5q131 0 236.5 -66t165 -187t59.5 -269v-512h-103v514q0 190 -98 304t-258 114q-162 0 -258 -113t-96 -307v-512h-103z"/>
<glyph glyph-name="approxequal" horiz-adv-x="1124" unicode="≈" d="M780 301q-106 0 -245 121q-74 63 -122.5 91.5t-86.5 28.5q-77 0 -116 -54.5t-52 -186.5h-101q18 187 84.5 265.5t184.5 78.5q56 0 115.5 -29t134.5 -92q86 -72 127.5 -96.5t76.5 -24.5q69 0 108 52.5t58 189.5h103q-17 -130 -49 -199t-85 -107t-135 -38zM780 711 q-106 0 -245 121q-74 63 -122.5 91.5t-86.5 28.5q-77 0 -116 -54.5t-52 -186.5h-101q18 187 84.5 265.5t184.5 78.5q56 0 115.5 -29t134.5 -92q86 -72 127.5 -96.5t76.5 -24.5q69 0 108 52.5t58 189.5h103q-17 -130 -49 -199t-85 -107t-135 -38z"/>
<glyph glyph-name="notequal" horiz-adv-x="1124" unicode="≠" d="M802 936h236v-102h-307l-215 -308h522v-102h-594l-198 -284h-123l198 284h-236v102h307l215 308h-522v102h593l198 284h125z"/>
<glyph glyph-name="equivalence" horiz-adv-x="1155" unicode="≡" d="M1055 731v-102h-953v102h953zM1055 1026v-102h-953v102h953zM1055 436v-102h-953v102h953z"/>
<glyph glyph-name="lessequal" horiz-adv-x="1124" unicode="≤" d="M1038 102v-102h-953v102h953zM85 655v50l953 469v-103l-809 -391l809 -391v-103z"/>
<glyph glyph-name="greaterequal" horiz-adv-x="1124" unicode="≥" d="M1037 102v-102h-953v102h953zM86 186v103l809 391l-809 391v103l953 -469v-50z"/>
<glyph glyph-name="lozenge" horiz-adv-x="1012" unicode="◊" d="M508 1286l-354 -565l354 -574l352 574zM547 0h-82l-457 719l457 721h82l459 -719z"/>
<glyph glyph-name="spade" horiz-adv-x="1088" unicode="♠" d="M544 1231q25 -96 73 -180.5t199 -223.5q141 -126 176 -192t37 -137q0 -96 -65 -160t-152 -64q-157 0 -256 191q3 -159 42.5 -242t121 -130t213.5 -56l8 -37h-792l6 37q124 0 210 48.5t129.5 134.5t43.5 231v14q-90 -191 -260 -191q-89 0 -154 64t-65 156q0 89 44.5 157 t143.5 150q139 119 205 212t92 218z"/>
<glyph glyph-name="club" horiz-adv-x="1344" unicode="♣" d="M1094 0h-842l8 35q135 27 194.5 54t107 87t74 134.5t26.5 150.5l-2 47q-57 -120 -146 -179t-178 -59q-77 0 -141.5 38t-99.5 101t-35 140q0 115 73 194t166 80q62 0 162 -51q-38 65 -55 105q-11 37 -11 75q0 121 81 196t194 75q116 0 196 -80t80 -187q0 -86 -69 -184 q84 40 100 43q22 8 61 8q105 0 173 -78q73 -76 73 -192t-78 -198.5t-194 -82.5q-56 0 -115 24.5t-106.5 65.5t-108.5 146q5 -126 29.5 -202.5t79 -136.5t118 -86.5t177.5 -47.5z"/>
<glyph glyph-name="heart" horiz-adv-x="1216" unicode="♥" d="M610 -23q-22 86 -67.5 177t-221.5 327l-90 123q-75 100 -102 164.5t-27 130.5q0 107 69.5 175.5t170.5 68.5q87 0 158.5 -57t109.5 -177q34 119 105 177.5t159 58.5q97 0 168.5 -68t71.5 -166q0 -86 -44 -181t-155 -232q-140 -179 -204.5 -285.5t-100.5 -235.5z"/>
<glyph glyph-name="diamond" horiz-adv-x="1045" unicode="♦" d="M519 1223q72 -125 204.5 -305.5t254.5 -317.5q-68 -70 -221 -273.5t-236 -351.5q-37 71 -129.5 201.5t-166.5 226t-159 197.5q116 137 245.5 309.5t207.5 313.5z"/>
</font>
</defs>
</svg>
